<?xml version="1.0" encoding="UTF-8" standalone="no"?>
<!DOCTYPE svg PUBLIC "-//W3C//DTD SVG 1.1//EN" "http://www.w3.org/Graphics/SVG/1.1/DTD/svg11.dtd">
<svg width="100%" height="100%" viewBox="0 0 50 50" version="1.1" xmlns="http://www.w3.org/2000/svg" xmlns:xlink="http://www.w3.org/1999/xlink" xml:space="preserve" xmlns:serif="http://www.serif.com/" style="fill-rule:evenodd;clip-rule:evenodd;stroke-linejoin:round;stroke-miterlimit:1.41421;">
    <g transform="matrix(0.425855,0.425855,-0.638782,0.638782,-346.984,-477.533)">
        <path d="M1067,102C1067,100.344 1064.98,99 1062.5,99L990.5,99C988.016,99 986,100.344 986,102C986,103.656 988.016,105 990.5,105L1062.5,105C1064.98,105 1067,103.656 1067,102Z" style="fill:white;"/>
    </g>
    <g transform="matrix(0.425855,-0.425855,0.638782,0.638782,-477.295,396.746)">
        <path d="M1067,102C1067,100.344 1064.98,99 1062.5,99L990.5,99C988.016,99 986,100.344 986,102C986,103.656 988.016,105 990.5,105L1062.5,105C1064.98,105 1067,103.656 1067,102Z" style="fill:white;"/>
    </g>
</svg>
