<?xml version="1.0" encoding="UTF-8" standalone="no"?>
<!DOCTYPE svg PUBLIC "-//W3C//DTD SVG 1.1//EN" "http://www.w3.org/Graphics/SVG/1.1/DTD/svg11.dtd">
<svg width="100%" height="100%" viewBox="0 0 50 50" version="1.1" xmlns="http://www.w3.org/2000/svg" xmlns:xlink="http://www.w3.org/1999/xlink" xml:space="preserve" xmlns:serif="http://www.serif.com/" style="fill-rule:evenodd;clip-rule:evenodd;stroke-linejoin:round;stroke-miterlimit:1.41421;">
    <g transform="matrix(1.12506,0,0,1.12506,-0.289119,-3.25528)">
        <path d="M29.77,8.973C30.128,9.045 30.182,9.128 30.207,9.468L30.214,14.592C30.184,14.985 30.088,15.059 29.722,15.093C28.43,15.112 26.857,14.998 26.314,15.263C25.72,15.552 25.5,16.592 25.5,16.592L25.5,19.056L29.902,19.056C30.319,19.088 30.411,19.218 30.399,19.61L29.808,25.054C29.741,25.418 29.656,25.475 29.311,25.5L25.5,25.5L25.494,40.838C25.409,41.193 25.336,41.233 25,41.26L18.361,41.26C17.966,41.229 17.892,41.132 17.861,40.763L17.756,25.5L14.978,25.494C14.622,25.408 14.581,25.334 14.556,24.997L14.591,19.642C14.625,19.247 14.723,19.173 15.093,19.145L17.966,19.157C18.021,16.141 17.415,12.867 19.403,10.812C20.449,9.732 21.941,9.172 23.444,9.081L29.698,8.969C29.722,8.97 29.746,8.972 29.77,8.973ZM23.54,10.078C21.871,10.143 20.136,10.976 19.41,12.548C18.441,14.649 19.159,17.168 18.947,19.706C18.898,20.041 18.774,20.135 18.446,20.159L15.588,20.147L15.56,24.5L18.252,24.5C18.647,24.531 18.721,24.628 18.752,24.997L18.857,40.26L24.5,40.26L24.5,25C24.531,24.604 24.63,24.529 25,24.5L28.862,24.5L29.345,20.056L25,20.056C24.604,20.025 24.529,19.927 24.5,19.556L24.5,16.556C24.575,15.419 25.411,14.257 26.69,14.154C27.529,14.118 28.371,14.115 29.213,14.101L29.207,9.978C27.318,10.011 25.429,10.045 23.54,10.078Z" style="fill:white;fill-rule:nonzero;"/>
    </g>
</svg>
