<?xml version="1.0" encoding="UTF-8" standalone="no"?>
<!DOCTYPE svg PUBLIC "-//W3C//DTD SVG 1.1//EN" "http://www.w3.org/Graphics/SVG/1.1/DTD/svg11.dtd">
<svg width="100%" height="100%" viewBox="0 0 100 100" version="1.1" xmlns="http://www.w3.org/2000/svg" xmlns:xlink="http://www.w3.org/1999/xlink" xml:space="preserve" xmlns:serif="http://www.serif.com/" style="fill-rule:evenodd;clip-rule:evenodd;stroke-linejoin:round;stroke-miterlimit:1.41421;">
    <g transform="matrix(0.21815,0,0,0.21815,-45.7221,-19.0785)">
        <g transform="matrix(3.68222,0,0,3.68222,-3118.24,-12751.6)">
            <circle cx="966" cy="3549" r="61" style="fill:rgb(204,54,84);"/>
            <clipPath id="_clip1">
                <circle cx="966" cy="3549" r="61"/>
            </clipPath>
            <g clip-path="url(#_clip1)">
                <g transform="matrix(0.609295,1.50203e-32,0,0.609295,610.835,3309.79)">
                    <path d="M582.911,311.245C627.804,311.245 664.252,347.693 664.252,392.587C664.252,437.48 627.804,473.928 582.911,473.928C538.017,473.928 501.57,437.48 501.57,392.587C501.57,347.693 538.017,311.245 582.911,311.245ZM582.911,330.566C617.141,330.566 644.931,358.356 644.931,392.587C644.931,426.817 617.141,454.607 582.911,454.607C548.681,454.607 520.89,426.817 520.89,392.587C520.89,358.356 548.681,330.566 582.911,330.566Z" style="fill:rgb(252,199,104);"/>
                </g>
                <g transform="matrix(0.609295,1.50203e-32,0,0.609295,610.835,3309.79)">
                    <path d="M583.175,310.8C608.349,310.92 633.049,323.217 648.293,343.468C663.524,363.702 668.675,391.202 661.311,415.934C654.445,438.993 636.881,458.647 614.504,468.039C590.384,478.161 561.359,475.828 539.049,461.614C516.034,446.95 501.124,420.504 501.124,392.587C501.124,365.855 515,339.679 537.4,324.638C550.606,315.771 566.466,310.928 582.382,310.801C582.647,310.8 582.911,310.8 583.175,310.8ZM582.649,311.692C557.579,311.811 532.991,324.161 517.95,344.394C500.57,367.773 497.065,400.822 509.997,427.645C520.891,450.239 542.805,467.276 567.605,472.034C592.848,476.876 620.203,468.888 638.888,450.966C654.572,435.922 663.806,414.444 663.806,392.587C663.806,366.024 649.898,339.94 627.52,325.108C614.459,316.452 598.84,311.766 583.172,311.692C582.998,311.691 582.824,311.691 582.649,311.692ZM583.113,330.121C608.727,330.243 633.357,347.28 641.969,372.198C648.399,390.803 645.439,412.441 633.846,428.738C622.355,444.892 602.901,455.053 582.911,455.053C559.703,455.053 536.956,441.12 526.609,419.659C516.832,399.382 519.006,373.744 532.861,355.222C544.386,339.816 563.104,330.214 582.709,330.121C582.844,330.12 582.978,330.12 583.113,330.121ZM582.712,331.012C557.3,331.133 532.942,348.138 524.573,372.847C518.324,391.297 521.441,412.591 532.918,428.522C544.256,444.26 563.305,454.161 582.911,454.161C605.817,454.161 628.228,440.389 638.41,419.272C648.031,399.319 645.93,374.047 632.246,355.756C620.873,340.552 602.439,331.104 583.11,331.012C582.977,331.012 582.844,331.012 582.712,331.012Z" style="fill-rule:nonzero;"/>
                </g>
                <g>
                    <g transform="matrix(-8.408e-17,0.40823,-0.490332,-8.20662e-17,2570.66,3354.89)">
                        <path d="M485.25,3287C485.25,3291.69 489.059,3300.5 493.75,3300.5C494.246,3300.5 494.733,3300.46 495.206,3300.38L512,3397L439,3397L455.794,3300.38C456.267,3300.46 456.754,3300.5 457.25,3300.5C461.941,3300.5 465.75,3291.69 465.75,3287L485.25,3287Z" style="fill:rgb(252,199,104);"/>
                    </g>
                    <g transform="matrix(2.11134e-17,-0.541832,0.738856,5.73061e-17,-1590.12,4065.09)">
                        <path d="M976.053,3377C976.052,3377.02 976.049,3377.05 976.046,3377.09L964.814,3439.41C964.791,3439.5 964.764,3439.59 964.714,3439.67C964.568,3439.92 964.302,3440.08 964.02,3440.09C963.955,3440.11 963.892,3440.14 963.828,3440.16C963.332,3440.35 962.861,3440.6 962.417,3440.89C961.411,3441.54 960.524,3442.42 959.982,3443.5C959.891,3443.68 959.811,3443.86 959.741,3444.05C959.579,3444.49 959.477,3444.95 959.436,3445.42C959.419,3445.62 959.415,3445.82 959.414,3446.02L959.409,3446.09C959.403,3446.14 959.396,3446.19 959.383,3446.24C959.369,3446.29 959.345,3446.34 959.322,3446.39C959.217,3446.6 959.012,3446.75 958.789,3446.82C958.713,3446.84 958.638,3446.84 958.56,3446.85L958.147,3446.85C958.049,3446.84 958.02,3446.84 957.93,3446.8C957.794,3446.74 957.693,3446.61 957.659,3446.46C957.651,3446.43 957.651,3446.39 957.647,3446.35L957.647,3445.69L957.659,3445.58L957.671,3445.54C957.675,3445.45 957.682,3445.37 957.689,3445.28C957.699,3445.18 957.71,3445.08 957.722,3444.99C957.75,3444.78 957.783,3444.58 957.827,3444.39C957.928,3443.93 958.076,3443.48 958.268,3443.06C958.925,3441.59 960.076,3440.4 961.411,3439.53C961.953,3439.17 962.528,3438.87 963.131,3438.63L963.177,3438.61L974.283,3377L976.053,3377ZM930.679,3377L941.067,3437.87C941.178,3437.9 941.288,3437.94 941.399,3437.97C941.509,3438.01 941.619,3438.05 941.728,3438.09C943.129,3438.61 944.447,3439.44 945.382,3440.62C945.529,3440.81 945.666,3441 945.79,3441.2C945.948,3441.46 946.087,3441.73 946.204,3442C946.383,3442.42 946.512,3442.87 946.59,3443.32C946.625,3443.52 946.643,3443.73 946.667,3443.93C946.676,3443.98 946.686,3444.03 946.699,3444.08C946.795,3444.41 946.967,3444.72 947.104,3445.03C947.134,3445.1 947.162,3445.18 947.19,3445.25C947.226,3445.35 947.258,3445.46 947.286,3445.57L947.29,3445.59L947.3,3445.69L947.3,3446.35C947.296,3446.39 947.296,3446.43 947.288,3446.46C947.254,3446.61 947.153,3446.74 947.017,3446.8C946.927,3446.84 946.899,3446.84 946.8,3446.85L946.462,3446.85C946.373,3446.85 946.285,3446.84 946.199,3446.81C945.952,3446.74 945.739,3446.56 945.642,3446.31C945.6,3446.21 945.589,3446.1 945.583,3445.98C945.579,3445.95 945.574,3445.93 945.566,3445.9C945.537,3445.79 945.497,3445.7 945.454,3445.6C945.377,3445.43 945.299,3445.27 945.222,3445.1C945.119,3444.86 945.023,3444.62 944.968,3444.36C944.924,3444.16 944.911,3443.95 944.884,3443.75C944.871,3443.66 944.871,3443.66 944.856,3443.57C944.83,3443.43 944.801,3443.29 944.763,3443.16C944.669,3442.82 944.533,3442.49 944.358,3442.18C943.777,3441.16 942.806,3440.42 941.761,3439.92C941.301,3439.7 940.819,3439.52 940.321,3439.4C940.301,3439.4 940.282,3439.4 940.262,3439.39L940.157,3439.39L940.061,3439.36C939.829,3439.3 939.622,3439.15 939.511,3438.93C939.473,3438.86 939.451,3438.78 939.432,3438.7L928.917,3377.08C928.915,3377.05 928.912,3377.02 928.911,3377L930.679,3377Z" style="fill:rgb(204,54,84);"/>
                    </g>
                    <g transform="matrix(4.16404e-17,-0.68004,0.68004,4.16404e-17,-1392.24,4196.45)">
                        <path d="M951.004,3395.13C951.08,3395.66 951.875,3396.13 952.107,3396.16C951.559,3396.9 951.054,3397.67 950.593,3398.47L950.581,3398.49L950.599,3398.5L950.599,3398.5L949.945,3399.86L949.931,3399.86C949.921,3399.88 949.91,3399.91 949.899,3399.94C949.697,3400.47 949.531,3401.01 949.406,3401.56C948.968,3403.5 949.004,3405.53 949.311,3407.48C949.578,3409.18 950.046,3410.84 950.639,3412.46C951.291,3414.23 952.097,3415.95 953.028,3417.59C953.102,3417.47 953.175,3417.35 953.248,3417.24C953.661,3416.56 954.057,3415.87 954.42,3415.16C955.641,3412.78 956.538,3410.19 956.759,3407.51C956.804,3406.97 956.821,3406.42 956.808,3405.88C956.79,3405.17 956.722,3404.46 956.6,3403.76C956.485,3403.1 956.321,3402.44 956.11,3401.8C956.035,3401.57 955.954,3401.34 955.867,3401.12C956.465,3401.15 956.982,3401.02 957.359,3400.82C957.372,3400.86 957.386,3400.89 957.407,3400.95C957.517,3401.27 957.621,3401.59 957.713,3401.91C957.92,3402.64 958.074,3403.38 958.174,3404.13C958.278,3404.91 958.323,3405.71 958.31,3406.5C958.3,3407.11 958.257,3407.72 958.183,3408.33C957.798,3411.47 956.591,3414.47 955.018,3417.2C954.581,3417.95 954.11,3418.69 953.623,3419.42L953.566,3419.49C953.5,3419.56 953.435,3419.62 953.35,3419.66C953.1,3419.8 952.788,3419.77 952.56,3419.61C952.482,3419.55 952.426,3419.48 952.369,3419.41C952.276,3419.26 952.186,3419.11 952.096,3418.97C951.444,3417.88 950.854,3416.75 950.321,3415.6C949.98,3414.86 949.663,3414.11 949.373,3413.35C949.151,3412.77 948.946,3412.19 948.758,3411.59C948.605,3411.11 948.464,3410.62 948.336,3410.13C948.224,3409.7 948.122,3409.27 948.032,3408.83C947.495,3406.22 947.367,3403.48 948.026,3400.89C948.165,3400.34 948.339,3399.81 948.544,3399.29L948.545,3399.28L948.545,3399.28L949.182,3397.92L949.192,3397.91C949.245,3397.81 949.298,3397.72 949.352,3397.62C949.708,3397.02 950.083,3396.42 950.485,3395.85C950.653,3395.6 950.826,3395.37 951.004,3395.13ZM956.531,3398.92C956.618,3398.89 956.703,3398.85 956.788,3398.82C957.002,3398.72 957.212,3398.62 957.415,3398.5C958.245,3398.03 958.973,3397.4 959.618,3396.7C960.197,3396.07 960.712,3395.38 961.175,3394.66C961.706,3393.84 962.17,3392.97 962.567,3392.08C962.833,3391.47 963.071,3390.86 963.261,3390.23C963.401,3389.76 963.523,3389.28 963.565,3388.8L963.565,3388.8C963.549,3388.8 963.534,3388.8 963.519,3388.8C962.328,3388.97 961.166,3389.32 960.057,3389.78C958.47,3390.44 956.985,3391.35 955.652,3392.43C955.065,3392.91 954.506,3393.42 953.977,3393.96C953.892,3393.81 953.564,3393.29 953,3393C952.955,3392.98 952.911,3392.96 952.871,3392.95C952.927,3392.89 952.983,3392.83 953.04,3392.77C953.738,3392.08 954.476,3391.42 955.263,3390.83C956.763,3389.7 958.423,3388.77 960.189,3388.12C960.858,3387.88 961.542,3387.67 962.238,3387.51C962.776,3387.39 963.32,3387.3 963.87,3387.26C963.931,3387.25 963.991,3387.25 964.052,3387.25C964.159,3387.26 964.261,3387.27 964.363,3387.31C964.451,3387.34 964.535,3387.39 964.61,3387.45C964.663,3387.49 964.712,3387.53 964.755,3387.58C965.07,3387.94 965.094,3388.46 965.06,3388.91C965.053,3389.01 965.043,3389.1 965.03,3389.2C965.011,3389.34 964.988,3389.48 964.961,3389.61C964.924,3389.8 964.881,3389.99 964.833,3390.18C964.78,3390.38 964.722,3390.58 964.659,3390.78C964.577,3391.05 964.487,3391.31 964.392,3391.57C964.006,3392.61 963.527,3393.62 962.974,3394.59C962.394,3395.61 961.727,3396.57 960.958,3397.45C960.114,3398.41 959.135,3399.28 958.004,3399.89C957.75,3400.03 957.489,3400.15 957.222,3400.26L957.17,3400.28C957.17,3400.28 955.678,3400.68 955.678,3400.68C955.574,3400.7 955.47,3400.71 955.366,3400.72C955.277,3400.73 955.188,3400.74 955.099,3400.74C954.499,3400.77 953.897,3400.73 953.301,3400.66C952.709,3400.58 952.121,3400.48 951.541,3400.34C951.229,3400.26 950.92,3400.18 950.615,3400.08C950.882,3399.8 951.046,3399.11 951.134,3398.67C951.9,3398.91 952.686,3399.07 953.481,3399.16C953.729,3399.2 953.978,3399.22 954.228,3399.23C954.444,3399.25 954.66,3399.26 954.877,3399.25L954.947,3399.25L954.996,3399.25L954.994,3399.24L954.994,3399.24C955.603,3399.22 956.084,3399.09 956.523,3398.92L956.531,3398.92ZM947.746,3398.88C947.254,3398.62 946.774,3398.33 946.309,3398.02C944.905,3397.09 943.632,3395.97 942.497,3394.73C941.767,3393.93 941.09,3393.07 940.478,3392.18C940.325,3391.95 940.174,3391.73 940.028,3391.5C939.93,3391.35 939.839,3391.2 939.745,3391.05C939.653,3390.9 939.564,3390.75 939.476,3390.6C939.389,3390.45 939.299,3390.3 939.231,3390.14C939.094,3389.81 939.045,3389.45 939.156,3389.11C939.192,3389.01 939.243,3388.9 939.308,3388.81C939.343,3388.76 939.383,3388.71 939.425,3388.66C939.772,3388.29 940.297,3388.17 940.786,3388.14C940.87,3388.14 940.955,3388.14 941.04,3388.14C941.16,3388.14 941.279,3388.14 941.399,3388.15C941.558,3388.16 941.716,3388.18 941.875,3388.2C942.045,3388.22 942.215,3388.25 942.384,3388.28C942.603,3388.32 942.82,3388.37 943.037,3388.43C943.652,3388.58 944.255,3388.78 944.848,3389C945.53,3389.25 946.198,3389.55 946.85,3389.87C948.288,3390.58 949.657,3391.43 950.928,3392.41C951.396,3392.77 951.847,3393.15 952.288,3393.55C952.289,3393.55 952.291,3393.55 952.292,3393.55C952.587,3393.99 953.33,3394.58 953.372,3394.59C953.377,3394.59 953.383,3394.59 953.391,3394.59L953.379,3394.6C953.496,3394.72 953.611,3394.84 953.726,3394.97C954.229,3395.52 954.706,3396.09 955.146,3396.7C955.507,3397.2 955.841,3397.71 956.149,3398.24L954.656,3398.67C954.428,3398.3 954.188,3397.93 953.932,3397.58C953.467,3396.94 952.956,3396.33 952.412,3395.76L952.409,3395.76C952.348,3395.65 951.463,3394.75 951.332,3394.7L951.332,3394.7C950.392,3393.85 949.368,3393.08 948.294,3392.4C947.149,3391.68 945.939,3391.04 944.68,3390.54C944.025,3390.28 943.357,3390.05 942.673,3389.88C942.157,3389.75 941.631,3389.65 941.099,3389.64C941.039,3389.64 941.04,3389.64 940.98,3389.64C940.883,3389.64 940.787,3389.64 940.69,3389.66L940.671,3389.66C940.912,3390.08 941.163,3390.5 941.429,3390.91C942.302,3392.24 943.315,3393.48 944.457,3394.6C945.483,3395.59 946.615,3396.49 947.847,3397.22C948.088,3397.36 948.334,3397.5 948.583,3397.63L947.746,3398.88Z" style="fill:rgb(204,54,84);"/>
                    </g>
                    <g transform="matrix(4.16404e-17,-0.68004,0.68004,4.16404e-17,-1392.24,4196.45)">
                        <path d="M956.346,3398.27C956.325,3398.35 956.278,3398.4 956.203,3398.43L954.71,3398.86C954.516,3398.89 954.422,3398.67 954.314,3398.5C953.724,3397.58 953.042,3396.72 952.295,3395.92C952.295,3395.92 951.685,3395.21 951.259,3394.89C951.239,3394.88 950.636,3394.34 950.117,3393.93C947.842,3392.14 945.23,3390.68 942.434,3390.03C941.963,3389.92 941.483,3389.83 941.002,3389.84C942.871,3393.02 945.463,3395.76 948.676,3397.45C948.676,3397.45 948.825,3397.59 948.749,3397.74L947.912,3398.99C947.773,3399.15 947.559,3399.01 947.373,3398.9C943.94,3396.97 941.18,3393.94 939.238,3390.58C938.835,3389.89 938.748,3388.95 939.418,3388.4C940.194,3387.75 941.318,3387.89 942.227,3388.05C944.018,3388.36 945.727,3389.06 947.345,3389.9C949.109,3390.81 950.758,3391.94 952.254,3393.25C952.254,3393.25 952.813,3393.91 953.403,3394.37C953.403,3394.37 953.996,3394.95 954.433,3395.47C955.113,3396.27 955.728,3397.13 956.263,3398.04C956.28,3398.07 956.35,3398.17 956.346,3398.27ZM955.802,3398.05C955.095,3396.89 954.248,3395.81 953.322,3394.83C953.322,3394.83 952.575,3394.3 952.142,3393.69L952.135,3393.68C949.21,3391.08 945.742,3388.89 941.79,3388.39C941.627,3388.37 941.463,3388.35 941.299,3388.34C941.192,3388.34 941.086,3388.33 940.979,3388.34C940.889,3388.34 940.8,3388.34 940.71,3388.35C940.078,3388.4 939.297,3388.73 939.294,3389.5C939.293,3389.93 939.545,3390.32 939.781,3390.72C941.706,3393.96 944.389,3396.78 947.659,3398.61L948.294,3397.7C945.002,3395.91 942.362,3393 940.498,3389.76C940.498,3389.76 940.307,3389.4 941.157,3389.44C943.34,3389.53 945.437,3390.52 947.411,3391.64C948.791,3392.42 950.095,3393.34 951.288,3394.39C951.288,3394.39 952.11,3395.07 952.546,3395.61C952.546,3395.61 952.509,3395.57 952.762,3395.84C953.492,3396.64 954.16,3397.5 954.739,3398.42L955.845,3398.12C955.831,3398.1 955.816,3398.07 955.802,3398.05ZM952.29,3396.24C952.29,3396.24 952.132,3396.46 952.016,3396.63C951.603,3397.21 951.215,3397.81 950.852,3398.43L950.779,3398.59L950.091,3399.99C948.592,3403.82 949.345,3408.18 950.664,3411.94C950.95,3412.75 951.269,3413.56 951.619,3414.35C952.045,3415.31 952.519,3416.26 953.029,3417.18C953.029,3417.18 953.505,3416.43 953.895,3415.72C956.284,3411.36 957.565,3406.13 955.681,3401.19C955.681,3401.19 955.605,3400.92 956.085,3400.92C956.47,3400.91 956.853,3400.84 957.202,3400.68C957.202,3400.68 957.394,3400.51 957.525,3400.71C957.623,3400.86 957.754,3401.34 957.869,3401.73C959.598,3407.59 957.34,3414.17 953.971,3419.26C953.956,3419.28 953.799,3419.51 953.785,3419.53C953.518,3419.91 953.383,3419.89 953.193,3419.93C952.751,3420.02 952.341,3419.74 952.062,3419.29C949.596,3415.29 947.807,3410.77 947.439,3406.12C947.26,3403.86 947.48,3401.55 948.281,3399.41C948.294,3399.38 948.306,3399.35 948.319,3399.31C948.34,3399.26 948.364,3399.2 948.364,3399.2L949.004,3397.83C949.048,3397.75 949.093,3397.67 949.138,3397.59C949.634,3396.73 950.183,3395.9 950.777,3395.1C950.777,3395.1 950.806,3395.01 950.915,3394.95C951.124,3394.85 951.226,3395.28 951.43,3395.5C951.671,3395.76 952.137,3395.96 952.137,3395.96C952.252,3395.99 952.349,3396.04 952.29,3396.24ZM958.112,3406.13C958.097,3404.43 957.805,3402.74 957.259,3401.14C957.259,3401.14 956.743,3401.3 956.156,3401.32C956.853,3403.25 957.124,3405.35 956.966,3407.43C956.691,3411.04 955.2,3414.47 953.308,3417.52C953.308,3417.52 953.071,3417.99 952.854,3417.69C950.458,3413.43 948.717,3408.68 948.89,3404.05C948.94,3402.69 949.177,3401.34 949.637,3400.07C949.689,3399.93 949.797,3399.71 949.797,3399.71L950.407,3398.4C950.81,3397.68 951.264,3396.99 951.741,3396.32C951.741,3396.32 951.832,3396.29 951.615,3396.16C951.362,3396 951.128,3395.8 950.961,3395.55L950.952,3395.54C950.375,3396.33 949.841,3397.15 949.367,3398C947.63,3401.16 947.493,3405.69 948.37,3409.44C949.178,3412.9 950.602,3416.24 952.503,3419.24C952.503,3419.24 952.583,3419.38 952.693,3419.46C952.912,3419.6 953.22,3419.56 953.416,3419.36L953.46,3419.3C956.043,3415.44 958.048,3411.1 958.111,3406.43C958.112,3406.33 958.112,3406.23 958.112,3406.13ZM965.272,3388.65C965.251,3390.05 964.718,3391.41 964.145,3392.71C962.713,3395.98 960.538,3399.11 957.297,3400.45L957.222,3400.47L955.705,3400.88C955.336,3400.93 955.296,3400.93 955.11,3400.94C953.626,3401.03 952.109,3400.74 950.672,3400.31C950.612,3400.29 950.262,3400.3 950.551,3399.84C950.767,3399.48 950.852,3399.05 950.939,3398.63C950.939,3398.63 951.027,3398.45 951.192,3398.48C952.412,3398.85 953.694,3399.09 954.938,3399.05C954.938,3399.05 956.026,3398.95 956.863,3398.56C958.447,3397.82 959.688,3396.48 960.699,3395.02C961.958,3393.2 963.024,3391.13 963.335,3389.04L963.337,3389.03C959.847,3389.58 956.616,3391.56 954.12,3394.1C954.12,3394.1 953.972,3394.27 953.665,3393.85C953.437,3393.54 953.15,3393.25 952.806,3393.13C952.806,3393.13 952.578,3393 952.728,3392.81C955.639,3389.81 959.406,3387.56 963.539,3387.09C963.773,3387.06 964.061,3387.05 964.061,3387.05C964.785,3387.11 965.273,3387.8 965.272,3388.65ZM963.759,3388.86C963.651,3389.92 963.271,3390.94 962.849,3391.93C961.32,3395.51 958.721,3399.22 955.062,3399.44C955.062,3399.44 954.342,3399.46 953.646,3399.39C952.851,3399.3 952.065,3399.14 951.296,3398.93C951.296,3398.93 951.172,3399.52 950.941,3399.96L950.934,3399.97C952.445,3400.41 954.036,3400.7 955.574,3400.5L955.638,3400.49L957.107,3400.09C961.248,3398.45 964.031,3393.62 964.784,3389.47C964.806,3389.35 964.826,3389.23 964.841,3389.1C964.852,3389.01 964.861,3388.91 964.867,3388.81C964.87,3388.76 964.872,3388.7 964.872,3388.65C964.877,3388.04 964.695,3387.35 963.483,3387.5C959.626,3387.97 956.047,3390.09 953.246,3392.85C953.246,3392.85 953.052,3392.76 953.411,3393.02C953.695,3393.24 954.01,3393.64 954.01,3393.64C954.086,3393.57 954.164,3393.49 954.241,3393.41C956.709,3391.04 959.801,3389.24 963.151,3388.66C963.188,3388.65 963.226,3388.65 963.264,3388.64C963.301,3388.63 963.339,3388.63 963.377,3388.62C963.556,3388.59 963.79,3388.52 963.759,3388.86ZM953.344,3394.39C953.344,3394.39 953.361,3394.39 953.344,3394.39Z" style="fill:rgb(204,54,84);fill-rule:nonzero;"/>
                    </g>
                </g>
                <g transform="matrix(-1,-1.22465e-16,1.22465e-16,-1,1932,7097.99)">
                    <g transform="matrix(-8.408e-17,0.40823,-0.490332,-8.20662e-17,2570.66,3354.89)">
                        <path d="M485.25,3287C485.25,3291.69 489.059,3300.5 493.75,3300.5C494.246,3300.5 494.733,3300.46 495.206,3300.38L512,3397L439,3397L455.794,3300.38C456.267,3300.46 456.754,3300.5 457.25,3300.5C461.941,3300.5 465.75,3291.69 465.75,3287L485.25,3287Z" style="fill:rgb(252,199,104);"/>
                    </g>
                    <g transform="matrix(2.11134e-17,-0.541832,0.738856,5.73061e-17,-1590.12,4065.09)">
                        <path d="M976.053,3377C976.052,3377.02 976.049,3377.05 976.046,3377.09L964.814,3439.41C964.791,3439.5 964.764,3439.59 964.714,3439.67C964.568,3439.92 964.302,3440.08 964.02,3440.09C963.955,3440.11 963.892,3440.14 963.828,3440.16C963.332,3440.35 962.861,3440.6 962.417,3440.89C961.411,3441.54 960.524,3442.42 959.982,3443.5C959.891,3443.68 959.811,3443.86 959.741,3444.05C959.579,3444.49 959.477,3444.95 959.436,3445.42C959.419,3445.62 959.415,3445.82 959.414,3446.02L959.409,3446.09C959.403,3446.14 959.396,3446.19 959.383,3446.24C959.369,3446.29 959.345,3446.34 959.322,3446.39C959.217,3446.6 959.012,3446.75 958.789,3446.82C958.713,3446.84 958.638,3446.84 958.56,3446.85L958.147,3446.85C958.049,3446.84 958.02,3446.84 957.93,3446.8C957.794,3446.74 957.693,3446.61 957.659,3446.46C957.651,3446.43 957.651,3446.39 957.647,3446.35L957.647,3445.69L957.659,3445.58L957.671,3445.54C957.675,3445.45 957.682,3445.37 957.689,3445.28C957.699,3445.18 957.71,3445.08 957.722,3444.99C957.75,3444.78 957.783,3444.58 957.827,3444.39C957.928,3443.93 958.076,3443.48 958.268,3443.06C958.925,3441.59 960.076,3440.4 961.411,3439.53C961.953,3439.17 962.528,3438.87 963.131,3438.63L963.177,3438.61L974.283,3377L976.053,3377ZM930.679,3377L941.067,3437.87C941.178,3437.9 941.288,3437.94 941.399,3437.97C941.509,3438.01 941.619,3438.05 941.728,3438.09C943.129,3438.61 944.447,3439.44 945.382,3440.62C945.529,3440.81 945.666,3441 945.79,3441.2C945.948,3441.46 946.087,3441.73 946.204,3442C946.383,3442.42 946.512,3442.87 946.59,3443.32C946.625,3443.52 946.643,3443.73 946.667,3443.93C946.676,3443.98 946.686,3444.03 946.699,3444.08C946.795,3444.41 946.967,3444.72 947.104,3445.03C947.134,3445.1 947.162,3445.18 947.19,3445.25C947.226,3445.35 947.258,3445.46 947.286,3445.57L947.29,3445.59L947.3,3445.69L947.3,3446.35C947.296,3446.39 947.296,3446.43 947.288,3446.46C947.254,3446.61 947.153,3446.74 947.017,3446.8C946.927,3446.84 946.899,3446.84 946.8,3446.85L946.462,3446.85C946.373,3446.85 946.285,3446.84 946.199,3446.81C945.952,3446.74 945.739,3446.56 945.642,3446.31C945.6,3446.21 945.589,3446.1 945.583,3445.98C945.579,3445.95 945.574,3445.93 945.566,3445.9C945.537,3445.79 945.497,3445.7 945.454,3445.6C945.377,3445.43 945.299,3445.27 945.222,3445.1C945.119,3444.86 945.023,3444.62 944.968,3444.36C944.924,3444.16 944.911,3443.95 944.884,3443.75C944.871,3443.66 944.871,3443.66 944.856,3443.57C944.83,3443.43 944.801,3443.29 944.763,3443.16C944.669,3442.82 944.533,3442.49 944.358,3442.18C943.777,3441.16 942.806,3440.42 941.761,3439.92C941.301,3439.7 940.819,3439.52 940.321,3439.4C940.301,3439.4 940.282,3439.4 940.262,3439.39L940.157,3439.39L940.061,3439.36C939.829,3439.3 939.622,3439.15 939.511,3438.93C939.473,3438.86 939.451,3438.78 939.432,3438.7L928.917,3377.08C928.915,3377.05 928.912,3377.02 928.911,3377L930.679,3377Z" style="fill:rgb(204,54,84);"/>
                    </g>
                    <g transform="matrix(4.16404e-17,-0.68004,0.68004,4.16404e-17,-1392.24,4196.45)">
                        <path d="M951.004,3395.13C951.08,3395.66 951.875,3396.13 952.107,3396.16C951.559,3396.9 951.054,3397.67 950.593,3398.47L950.581,3398.49L950.599,3398.5L950.599,3398.5L949.945,3399.86L949.931,3399.86C949.921,3399.88 949.91,3399.91 949.899,3399.94C949.697,3400.47 949.531,3401.01 949.406,3401.56C948.968,3403.5 949.004,3405.53 949.311,3407.48C949.578,3409.18 950.046,3410.84 950.639,3412.46C951.291,3414.23 952.097,3415.95 953.028,3417.59C953.102,3417.47 953.175,3417.35 953.248,3417.24C953.661,3416.56 954.057,3415.87 954.42,3415.16C955.641,3412.78 956.538,3410.19 956.759,3407.51C956.804,3406.97 956.821,3406.42 956.808,3405.88C956.79,3405.17 956.722,3404.46 956.6,3403.76C956.485,3403.1 956.321,3402.44 956.11,3401.8C956.035,3401.57 955.954,3401.34 955.867,3401.12C956.465,3401.15 956.982,3401.02 957.359,3400.82C957.372,3400.86 957.386,3400.89 957.407,3400.95C957.517,3401.27 957.621,3401.59 957.713,3401.91C957.92,3402.64 958.074,3403.38 958.174,3404.13C958.278,3404.91 958.323,3405.71 958.31,3406.5C958.3,3407.11 958.257,3407.72 958.183,3408.33C957.798,3411.47 956.591,3414.47 955.018,3417.2C954.581,3417.95 954.11,3418.69 953.623,3419.42L953.566,3419.49C953.5,3419.56 953.435,3419.62 953.35,3419.66C953.1,3419.8 952.788,3419.77 952.56,3419.61C952.482,3419.55 952.426,3419.48 952.369,3419.41C952.276,3419.26 952.186,3419.11 952.096,3418.97C951.444,3417.88 950.854,3416.75 950.321,3415.6C949.98,3414.86 949.663,3414.11 949.373,3413.35C949.151,3412.77 948.946,3412.19 948.758,3411.59C948.605,3411.11 948.464,3410.62 948.336,3410.13C948.224,3409.7 948.122,3409.27 948.032,3408.83C947.495,3406.22 947.367,3403.48 948.026,3400.89C948.165,3400.34 948.339,3399.81 948.544,3399.29L948.545,3399.28L948.545,3399.28L949.182,3397.92L949.192,3397.91C949.245,3397.81 949.298,3397.72 949.352,3397.62C949.708,3397.02 950.083,3396.42 950.485,3395.85C950.653,3395.6 950.826,3395.37 951.004,3395.13ZM956.531,3398.92C956.618,3398.89 956.703,3398.85 956.788,3398.82C957.002,3398.72 957.212,3398.62 957.415,3398.5C958.245,3398.03 958.973,3397.4 959.618,3396.7C960.197,3396.07 960.712,3395.38 961.175,3394.66C961.706,3393.84 962.17,3392.97 962.567,3392.08C962.833,3391.47 963.071,3390.86 963.261,3390.23C963.401,3389.76 963.523,3389.28 963.565,3388.8L963.565,3388.8C963.549,3388.8 963.534,3388.8 963.519,3388.8C962.328,3388.97 961.166,3389.32 960.057,3389.78C958.47,3390.44 956.985,3391.35 955.652,3392.43C955.065,3392.91 954.506,3393.42 953.977,3393.96C953.892,3393.81 953.564,3393.29 953,3393C952.955,3392.98 952.911,3392.96 952.871,3392.95C952.927,3392.89 952.983,3392.83 953.04,3392.77C953.738,3392.08 954.476,3391.42 955.263,3390.83C956.763,3389.7 958.423,3388.77 960.189,3388.12C960.858,3387.88 961.542,3387.67 962.238,3387.51C962.776,3387.39 963.32,3387.3 963.87,3387.26C963.931,3387.25 963.991,3387.25 964.052,3387.25C964.159,3387.26 964.261,3387.27 964.363,3387.31C964.451,3387.34 964.535,3387.39 964.61,3387.45C964.663,3387.49 964.712,3387.53 964.755,3387.58C965.07,3387.94 965.094,3388.46 965.06,3388.91C965.053,3389.01 965.043,3389.1 965.03,3389.2C965.011,3389.34 964.988,3389.48 964.961,3389.61C964.924,3389.8 964.881,3389.99 964.833,3390.18C964.78,3390.38 964.722,3390.58 964.659,3390.78C964.577,3391.05 964.487,3391.31 964.392,3391.57C964.006,3392.61 963.527,3393.62 962.974,3394.59C962.394,3395.61 961.727,3396.57 960.958,3397.45C960.114,3398.41 959.135,3399.28 958.004,3399.89C957.75,3400.03 957.489,3400.15 957.222,3400.26L957.17,3400.28C957.17,3400.28 955.678,3400.68 955.678,3400.68C955.574,3400.7 955.47,3400.71 955.366,3400.72C955.277,3400.73 955.188,3400.74 955.099,3400.74C954.499,3400.77 953.897,3400.73 953.301,3400.66C952.709,3400.58 952.121,3400.48 951.541,3400.34C951.229,3400.26 950.92,3400.18 950.615,3400.08C950.882,3399.8 951.046,3399.11 951.134,3398.67C951.9,3398.91 952.686,3399.07 953.481,3399.16C953.729,3399.2 953.978,3399.22 954.228,3399.23C954.444,3399.25 954.66,3399.26 954.877,3399.25L954.947,3399.25L954.996,3399.25L954.994,3399.24L954.994,3399.24C955.603,3399.22 956.084,3399.09 956.523,3398.92L956.531,3398.92ZM947.746,3398.88C947.254,3398.62 946.774,3398.33 946.309,3398.02C944.905,3397.09 943.632,3395.97 942.497,3394.73C941.767,3393.93 941.09,3393.07 940.478,3392.18C940.325,3391.95 940.174,3391.73 940.028,3391.5C939.93,3391.35 939.839,3391.2 939.745,3391.05C939.653,3390.9 939.564,3390.75 939.476,3390.6C939.389,3390.45 939.299,3390.3 939.231,3390.14C939.094,3389.81 939.045,3389.45 939.156,3389.11C939.192,3389.01 939.243,3388.9 939.308,3388.81C939.343,3388.76 939.383,3388.71 939.425,3388.66C939.772,3388.29 940.297,3388.17 940.786,3388.14C940.87,3388.14 940.955,3388.14 941.04,3388.14C941.16,3388.14 941.279,3388.14 941.399,3388.15C941.558,3388.16 941.716,3388.18 941.875,3388.2C942.045,3388.22 942.215,3388.25 942.384,3388.28C942.603,3388.32 942.82,3388.37 943.037,3388.43C943.652,3388.58 944.255,3388.78 944.848,3389C945.53,3389.25 946.198,3389.55 946.85,3389.87C948.288,3390.58 949.657,3391.43 950.928,3392.41C951.396,3392.77 951.847,3393.15 952.288,3393.55C952.289,3393.55 952.291,3393.55 952.292,3393.55C952.587,3393.99 953.33,3394.58 953.372,3394.59C953.377,3394.59 953.383,3394.59 953.391,3394.59L953.379,3394.6C953.496,3394.72 953.611,3394.84 953.726,3394.97C954.229,3395.52 954.706,3396.09 955.146,3396.7C955.507,3397.2 955.841,3397.71 956.149,3398.24L954.656,3398.67C954.428,3398.3 954.188,3397.93 953.932,3397.58C953.467,3396.94 952.956,3396.33 952.412,3395.76L952.409,3395.76C952.348,3395.65 951.463,3394.75 951.332,3394.7L951.332,3394.7C950.392,3393.85 949.368,3393.08 948.294,3392.4C947.149,3391.68 945.939,3391.04 944.68,3390.54C944.025,3390.28 943.357,3390.05 942.673,3389.88C942.157,3389.75 941.631,3389.65 941.099,3389.64C941.039,3389.64 941.04,3389.64 940.98,3389.64C940.883,3389.64 940.787,3389.64 940.69,3389.66L940.671,3389.66C940.912,3390.08 941.163,3390.5 941.429,3390.91C942.302,3392.24 943.315,3393.48 944.457,3394.6C945.483,3395.59 946.615,3396.49 947.847,3397.22C948.088,3397.36 948.334,3397.5 948.583,3397.63L947.746,3398.88Z" style="fill:rgb(204,54,84);"/>
                    </g>
                    <g transform="matrix(4.16404e-17,-0.68004,0.68004,4.16404e-17,-1392.24,4196.45)">
                        <path d="M955.093,3399.04C957.425,3398.87 959.318,3397.01 960.699,3395.02C961.958,3393.2 963.024,3391.13 963.335,3389.04L963.337,3389.03C959.847,3389.58 956.616,3391.56 954.12,3394.1C954.12,3394.1 953.972,3394.27 953.665,3393.85C953.437,3393.54 953.15,3393.25 952.806,3393.13C952.806,3393.13 952.602,3392.97 952.728,3392.81C955.639,3389.81 959.406,3387.56 963.539,3387.09C963.773,3387.06 964.061,3387.05 964.061,3387.05C964.46,3387.08 964.834,3387.29 965.043,3387.64C965.602,3388.58 965.182,3389.74 964.896,3390.69C964.174,3393.11 962.95,3395.39 961.325,3397.33C960.227,3398.64 958.886,3399.79 957.297,3400.45L957.222,3400.47L955.705,3400.88C955.336,3400.93 955.296,3400.93 955.11,3400.94C953.626,3401.03 952.108,3400.74 950.672,3400.31C950.612,3400.29 950.261,3400.3 950.551,3399.83C950.767,3399.48 950.852,3399.05 950.939,3398.63C950.939,3398.63 951.027,3398.45 951.191,3398.48C952.412,3398.85 953.692,3399.11 954.947,3399.05C955.03,3399.02 955.029,3399.04 955.093,3399.04ZM951.015,3399.99C952.517,3400.41 954.09,3400.7 955.638,3400.49L957.107,3400.09C961.104,3398.5 963.671,3394.09 964.674,3389.99C964.711,3389.83 964.745,3389.68 964.775,3389.53C964.797,3389.41 964.816,3389.29 964.832,3389.17C964.846,3389.07 964.857,3388.96 964.864,3388.85C964.869,3388.78 964.872,3388.72 964.872,3388.65C964.877,3388.04 964.695,3387.35 963.483,3387.5C959.626,3387.97 956.047,3390.09 953.246,3392.85C953.246,3392.85 953.052,3392.76 953.411,3393.02C953.695,3393.24 954.01,3393.64 954.01,3393.64C954.086,3393.57 954.164,3393.49 954.241,3393.41C954.344,3393.32 954.344,3393.32 954.448,3393.22C956.935,3390.89 960.046,3389.13 963.377,3388.62C963.572,3388.59 963.798,3388.54 963.749,3388.96C963.38,3392.13 961.392,3395.27 959.322,3397.29C958.15,3398.43 956.673,3399.34 955.062,3399.44C955.062,3399.44 954.342,3399.46 953.646,3399.39C952.851,3399.3 952.065,3399.14 951.296,3398.93C951.296,3398.93 951.172,3399.52 950.941,3399.96C950.941,3399.96 950.986,3399.99 951.015,3399.99ZM947.38,3404.48C947.401,3402.75 947.672,3401.04 948.281,3399.41C948.294,3399.38 948.306,3399.35 948.319,3399.31C948.34,3399.26 948.364,3399.2 948.364,3399.2L949.004,3397.83C949.526,3396.88 950.129,3395.97 950.777,3395.1C950.777,3395.1 950.806,3395.01 950.915,3394.95C951.128,3394.85 951.231,3395.3 951.448,3395.52C951.686,3395.76 952.137,3395.96 952.137,3395.96C952.513,3396.07 952.199,3396.37 952.016,3396.63C951.603,3397.21 951.215,3397.81 950.852,3398.43C950.852,3398.43 950.75,3398.61 950.779,3398.59C950.779,3398.59 950.091,3399.99 950.091,3399.99C948.571,3403.87 949.368,3408.3 950.717,3412.09C950.99,3412.85 951.291,3413.6 951.619,3414.35C952.045,3415.31 952.519,3416.26 953.029,3417.18C953.029,3417.18 953.505,3416.43 953.895,3415.72C956.284,3411.36 957.565,3406.13 955.681,3401.19C955.681,3401.19 955.605,3400.92 956.085,3400.92C956.496,3400.91 956.904,3400.83 957.269,3400.64C957.269,3400.64 957.411,3400.54 957.525,3400.71C957.623,3400.86 957.754,3401.34 957.869,3401.73C959.599,3407.59 957.339,3414.17 953.971,3419.26C953.956,3419.28 953.799,3419.51 953.785,3419.53C953.518,3419.91 953.383,3419.89 953.193,3419.93C952.751,3420.02 952.341,3419.74 952.062,3419.29C949.373,3414.93 947.462,3409.94 947.381,3404.86C947.38,3404.73 947.38,3404.6 947.38,3404.48ZM947.779,3404.73C947.825,3409.86 949.777,3414.94 952.503,3419.24C952.503,3419.24 952.583,3419.38 952.693,3419.46C952.912,3419.6 953.22,3419.56 953.416,3419.36L953.46,3419.3C957.048,3413.94 959.397,3407.43 957.259,3401.14C957.259,3401.14 956.743,3401.3 956.156,3401.32C956.853,3403.25 957.124,3405.35 956.966,3407.43C956.691,3411.04 955.2,3414.47 953.308,3417.52C953.308,3417.52 953.071,3417.99 952.854,3417.69C950.458,3413.43 948.717,3408.68 948.89,3404.05C948.941,3402.69 949.177,3401.34 949.637,3400.07C949.691,3399.92 949.797,3399.71 949.797,3399.71L950.407,3398.4C950.81,3397.68 951.264,3396.99 951.741,3396.32C951.741,3396.32 951.832,3396.29 951.615,3396.16C951.362,3396 951.128,3395.8 950.961,3395.55L950.952,3395.54C950.375,3396.33 949.841,3397.15 949.367,3398C948.308,3399.93 947.775,3402.35 947.779,3404.73ZM938.896,3389.46C938.913,3389.03 939.116,3388.63 939.459,3388.36C940.343,3387.68 941.577,3387.91 942.588,3388.12C946.163,3388.86 949.493,3390.84 952.254,3393.25C952.254,3393.25 952.812,3393.91 953.403,3394.37C953.403,3394.37 953.94,3394.89 954.341,3395.36C955.057,3396.2 955.704,3397.09 956.263,3398.04C956.29,3398.09 956.455,3398.33 956.203,3398.43L954.71,3398.86C954.516,3398.89 954.422,3398.67 954.314,3398.5C953.724,3397.58 953.042,3396.72 952.295,3395.92C952.295,3395.92 951.685,3395.21 951.259,3394.89C951.247,3394.88 950.64,3394.35 950.117,3393.93C947.84,3392.13 945.23,3390.68 942.434,3390.03C941.963,3389.92 941.483,3389.83 941.002,3389.84C942.871,3393.02 945.463,3395.76 948.676,3397.45C948.676,3397.45 948.825,3397.59 948.749,3397.74L947.912,3398.99C947.773,3399.15 947.559,3399.01 947.373,3398.9C943.948,3396.97 941.18,3393.94 939.238,3390.58C939.036,3390.23 938.888,3389.94 938.896,3389.46ZM940.49,3389.58C940.581,3389.43 940.655,3389.46 940.741,3389.45C942.134,3389.3 943.587,3389.87 944.991,3390.45C945.782,3390.78 946.553,3391.16 947.299,3391.58C948.788,3392.41 950.187,3393.4 951.449,3394.54C951.872,3394.8 952.236,3395.23 952.546,3395.61C952.546,3395.61 952.509,3395.57 952.762,3395.84C953.492,3396.64 954.16,3397.5 954.739,3398.42L955.845,3398.12C955.792,3398.03 955.738,3397.94 955.683,3397.85C955.002,3396.77 954.201,3395.76 953.322,3394.83C953.322,3394.83 952.577,3394.3 952.142,3393.69L952.135,3393.68C949.211,3391.08 945.742,3388.89 941.79,3388.39C941.627,3388.37 941.463,3388.35 941.299,3388.34C941.192,3388.34 941.086,3388.33 940.979,3388.34C940.889,3388.34 940.8,3388.34 940.71,3388.35C940.078,3388.4 939.297,3388.73 939.294,3389.5C939.293,3389.93 939.545,3390.32 939.781,3390.72C941.706,3393.96 944.389,3396.78 947.659,3398.61L948.294,3397.7C945.008,3395.91 942.381,3393.03 940.498,3389.76C940.498,3389.76 940.442,3389.72 940.49,3389.58ZM953.352,3394.39C953.294,3394.4 953.332,3394.39 953.352,3394.39Z" style="fill:rgb(204,54,84);fill-rule:nonzero;"/>
                    </g>
                </g>
                <g transform="matrix(6.12323e-17,-1,1,6.12323e-17,-2583,4515)">
                    <g transform="matrix(-8.408e-17,0.40823,-0.490332,-8.20662e-17,2570.66,3354.89)">
                        <path d="M485.25,3287C485.25,3291.69 489.059,3300.5 493.75,3300.5C494.246,3300.5 494.733,3300.46 495.206,3300.38L512,3397L439,3397L455.794,3300.38C456.267,3300.46 456.754,3300.5 457.25,3300.5C461.941,3300.5 465.75,3291.69 465.75,3287L485.25,3287Z" style="fill:rgb(252,199,104);"/>
                    </g>
                    <g transform="matrix(2.11134e-17,-0.541832,0.738856,5.73061e-17,-1590.12,4065.09)">
                        <path d="M976.053,3377C976.052,3377.02 976.049,3377.05 976.046,3377.09L964.814,3439.41C964.791,3439.5 964.764,3439.59 964.714,3439.67C964.568,3439.92 964.302,3440.08 964.02,3440.09C963.955,3440.11 963.892,3440.14 963.828,3440.16C963.332,3440.35 962.861,3440.6 962.417,3440.89C961.411,3441.54 960.524,3442.42 959.982,3443.5C959.891,3443.68 959.811,3443.86 959.741,3444.05C959.579,3444.49 959.477,3444.95 959.436,3445.42C959.419,3445.62 959.415,3445.82 959.414,3446.02L959.409,3446.09C959.403,3446.14 959.396,3446.19 959.383,3446.24C959.369,3446.29 959.345,3446.34 959.322,3446.39C959.217,3446.6 959.012,3446.75 958.789,3446.82C958.713,3446.84 958.638,3446.84 958.56,3446.85L958.147,3446.85C958.049,3446.84 958.02,3446.84 957.93,3446.8C957.794,3446.74 957.693,3446.61 957.659,3446.46C957.651,3446.43 957.651,3446.39 957.647,3446.35L957.647,3445.69L957.659,3445.58L957.671,3445.54C957.675,3445.45 957.682,3445.37 957.689,3445.28C957.699,3445.18 957.71,3445.08 957.722,3444.99C957.75,3444.78 957.783,3444.58 957.827,3444.39C957.928,3443.93 958.076,3443.48 958.268,3443.06C958.925,3441.59 960.076,3440.4 961.411,3439.53C961.953,3439.17 962.528,3438.87 963.131,3438.63L963.177,3438.61L974.283,3377L976.053,3377ZM930.679,3377L941.067,3437.87C941.178,3437.9 941.288,3437.94 941.399,3437.97C941.509,3438.01 941.619,3438.05 941.728,3438.09C943.129,3438.61 944.447,3439.44 945.382,3440.62C945.529,3440.81 945.666,3441 945.79,3441.2C945.948,3441.46 946.087,3441.73 946.204,3442C946.383,3442.42 946.512,3442.87 946.59,3443.32C946.625,3443.52 946.643,3443.73 946.667,3443.93C946.676,3443.98 946.686,3444.03 946.699,3444.08C946.795,3444.41 946.967,3444.72 947.104,3445.03C947.134,3445.1 947.162,3445.18 947.19,3445.25C947.226,3445.35 947.258,3445.46 947.286,3445.57L947.29,3445.59L947.3,3445.69L947.3,3446.35C947.296,3446.39 947.296,3446.43 947.288,3446.46C947.254,3446.61 947.153,3446.74 947.017,3446.8C946.927,3446.84 946.899,3446.84 946.8,3446.85L946.462,3446.85C946.373,3446.85 946.285,3446.84 946.199,3446.81C945.952,3446.74 945.739,3446.56 945.642,3446.31C945.6,3446.21 945.589,3446.1 945.583,3445.98C945.579,3445.95 945.574,3445.93 945.566,3445.9C945.537,3445.79 945.497,3445.7 945.454,3445.6C945.377,3445.43 945.299,3445.27 945.222,3445.1C945.119,3444.86 945.023,3444.62 944.968,3444.36C944.924,3444.16 944.911,3443.95 944.884,3443.75C944.871,3443.66 944.871,3443.66 944.856,3443.57C944.83,3443.43 944.801,3443.29 944.763,3443.16C944.669,3442.82 944.533,3442.49 944.358,3442.18C943.777,3441.16 942.806,3440.42 941.761,3439.92C941.301,3439.7 940.819,3439.52 940.321,3439.4C940.301,3439.4 940.282,3439.4 940.262,3439.39L940.157,3439.39L940.061,3439.36C939.829,3439.3 939.622,3439.15 939.511,3438.93C939.473,3438.86 939.451,3438.78 939.432,3438.7L928.917,3377.08C928.915,3377.05 928.912,3377.02 928.911,3377L930.679,3377Z" style="fill:rgb(204,54,84);"/>
                    </g>
                    <g transform="matrix(4.16404e-17,-0.68004,0.68004,4.16404e-17,-1392.24,4196.45)">
                        <path d="M951.004,3395.13C951.08,3395.66 951.875,3396.13 952.107,3396.16C951.559,3396.9 951.054,3397.67 950.593,3398.47L950.581,3398.49L950.599,3398.5L950.599,3398.5L949.945,3399.86L949.931,3399.86C949.921,3399.88 949.91,3399.91 949.899,3399.94C949.697,3400.47 949.531,3401.01 949.406,3401.56C948.968,3403.5 949.004,3405.53 949.311,3407.48C949.578,3409.18 950.046,3410.84 950.639,3412.46C951.291,3414.23 952.097,3415.95 953.028,3417.59C953.102,3417.47 953.175,3417.35 953.248,3417.24C953.661,3416.56 954.057,3415.87 954.42,3415.16C955.641,3412.78 956.538,3410.19 956.759,3407.51C956.804,3406.97 956.821,3406.42 956.808,3405.88C956.79,3405.17 956.722,3404.46 956.6,3403.76C956.485,3403.1 956.321,3402.44 956.11,3401.8C956.035,3401.57 955.954,3401.34 955.867,3401.12C956.465,3401.15 956.982,3401.02 957.359,3400.82C957.372,3400.86 957.386,3400.89 957.407,3400.95C957.517,3401.27 957.621,3401.59 957.713,3401.91C957.92,3402.64 958.074,3403.38 958.174,3404.13C958.278,3404.91 958.323,3405.71 958.31,3406.5C958.3,3407.11 958.257,3407.72 958.183,3408.33C957.798,3411.47 956.591,3414.47 955.018,3417.2C954.581,3417.95 954.11,3418.69 953.623,3419.42L953.566,3419.49C953.5,3419.56 953.435,3419.62 953.35,3419.66C953.1,3419.8 952.788,3419.77 952.56,3419.61C952.482,3419.55 952.426,3419.48 952.369,3419.41C952.276,3419.26 952.186,3419.11 952.096,3418.97C951.444,3417.88 950.854,3416.75 950.321,3415.6C949.98,3414.86 949.663,3414.11 949.373,3413.35C949.151,3412.77 948.946,3412.19 948.758,3411.59C948.605,3411.11 948.464,3410.62 948.336,3410.13C948.224,3409.7 948.122,3409.27 948.032,3408.83C947.495,3406.22 947.367,3403.48 948.026,3400.89C948.165,3400.34 948.339,3399.81 948.544,3399.29L948.545,3399.28L948.545,3399.28L949.182,3397.92L949.192,3397.91C949.245,3397.81 949.298,3397.72 949.352,3397.62C949.708,3397.02 950.083,3396.42 950.485,3395.85C950.653,3395.6 950.826,3395.37 951.004,3395.13ZM956.531,3398.92C956.618,3398.89 956.703,3398.85 956.788,3398.82C957.002,3398.72 957.212,3398.62 957.415,3398.5C958.245,3398.03 958.973,3397.4 959.618,3396.7C960.197,3396.07 960.712,3395.38 961.175,3394.66C961.706,3393.84 962.17,3392.97 962.567,3392.08C962.833,3391.47 963.071,3390.86 963.261,3390.23C963.401,3389.76 963.523,3389.28 963.565,3388.8L963.565,3388.8C963.549,3388.8 963.534,3388.8 963.519,3388.8C962.328,3388.97 961.166,3389.32 960.057,3389.78C958.47,3390.44 956.985,3391.35 955.652,3392.43C955.065,3392.91 954.506,3393.42 953.977,3393.96C953.892,3393.81 953.564,3393.29 953,3393C952.955,3392.98 952.911,3392.96 952.871,3392.95C952.927,3392.89 952.983,3392.83 953.04,3392.77C953.738,3392.08 954.476,3391.42 955.263,3390.83C956.763,3389.7 958.423,3388.77 960.189,3388.12C960.858,3387.88 961.542,3387.67 962.238,3387.51C962.776,3387.39 963.32,3387.3 963.87,3387.26C963.931,3387.25 963.991,3387.25 964.052,3387.25C964.159,3387.26 964.261,3387.27 964.363,3387.31C964.451,3387.34 964.535,3387.39 964.61,3387.45C964.663,3387.49 964.712,3387.53 964.755,3387.58C965.07,3387.94 965.094,3388.46 965.06,3388.91C965.053,3389.01 965.043,3389.1 965.03,3389.2C965.011,3389.34 964.988,3389.48 964.961,3389.61C964.924,3389.8 964.881,3389.99 964.833,3390.18C964.78,3390.38 964.722,3390.58 964.659,3390.78C964.577,3391.05 964.487,3391.31 964.392,3391.57C964.006,3392.61 963.527,3393.62 962.974,3394.59C962.394,3395.61 961.727,3396.57 960.958,3397.45C960.114,3398.41 959.135,3399.28 958.004,3399.89C957.75,3400.03 957.489,3400.15 957.222,3400.26L957.17,3400.28C957.17,3400.28 955.678,3400.68 955.678,3400.68C955.574,3400.7 955.47,3400.71 955.366,3400.72C955.277,3400.73 955.188,3400.74 955.099,3400.74C954.499,3400.77 953.897,3400.73 953.301,3400.66C952.709,3400.58 952.121,3400.48 951.541,3400.34C951.229,3400.26 950.92,3400.18 950.615,3400.08C950.882,3399.8 951.046,3399.11 951.134,3398.67C951.9,3398.91 952.686,3399.07 953.481,3399.16C953.729,3399.2 953.978,3399.22 954.228,3399.23C954.444,3399.25 954.66,3399.26 954.877,3399.25L954.947,3399.25L954.996,3399.25L954.994,3399.24L954.994,3399.24C955.603,3399.22 956.084,3399.09 956.523,3398.92L956.531,3398.92ZM947.746,3398.88C947.254,3398.62 946.774,3398.33 946.309,3398.02C944.905,3397.09 943.632,3395.97 942.497,3394.73C941.767,3393.93 941.09,3393.07 940.478,3392.18C940.325,3391.95 940.174,3391.73 940.028,3391.5C939.93,3391.35 939.839,3391.2 939.745,3391.05C939.653,3390.9 939.564,3390.75 939.476,3390.6C939.389,3390.45 939.299,3390.3 939.231,3390.14C939.094,3389.81 939.045,3389.45 939.156,3389.11C939.192,3389.01 939.243,3388.9 939.308,3388.81C939.343,3388.76 939.383,3388.71 939.425,3388.66C939.772,3388.29 940.297,3388.17 940.786,3388.14C940.87,3388.14 940.955,3388.14 941.04,3388.14C941.16,3388.14 941.279,3388.14 941.399,3388.15C941.558,3388.16 941.716,3388.18 941.875,3388.2C942.045,3388.22 942.215,3388.25 942.384,3388.28C942.603,3388.32 942.82,3388.37 943.037,3388.43C943.652,3388.58 944.255,3388.78 944.848,3389C945.53,3389.25 946.198,3389.55 946.85,3389.87C948.288,3390.58 949.657,3391.43 950.928,3392.41C951.396,3392.77 951.847,3393.15 952.288,3393.55C952.289,3393.55 952.291,3393.55 952.292,3393.55C952.587,3393.99 953.33,3394.58 953.372,3394.59C953.377,3394.59 953.383,3394.59 953.391,3394.59L953.379,3394.6C953.496,3394.72 953.611,3394.84 953.726,3394.97C954.229,3395.52 954.706,3396.09 955.146,3396.7C955.507,3397.2 955.841,3397.71 956.149,3398.24L954.656,3398.67C954.428,3398.3 954.188,3397.93 953.932,3397.58C953.467,3396.94 952.956,3396.33 952.412,3395.76L952.409,3395.76C952.348,3395.65 951.463,3394.75 951.332,3394.7L951.332,3394.7C950.392,3393.85 949.368,3393.08 948.294,3392.4C947.149,3391.68 945.939,3391.04 944.68,3390.54C944.025,3390.28 943.357,3390.05 942.673,3389.88C942.157,3389.75 941.631,3389.65 941.099,3389.64C941.039,3389.64 941.04,3389.64 940.98,3389.64C940.883,3389.64 940.787,3389.64 940.69,3389.66L940.671,3389.66C940.912,3390.08 941.163,3390.5 941.429,3390.91C942.302,3392.24 943.315,3393.48 944.457,3394.6C945.483,3395.59 946.615,3396.49 947.847,3397.22C948.088,3397.36 948.334,3397.5 948.583,3397.63L947.746,3398.88Z" style="fill:rgb(204,54,84);"/>
                    </g>
                    <g transform="matrix(4.16404e-17,-0.68004,0.68004,4.16404e-17,-1392.24,4196.45)">
                        <path d="M953.908,3394.15C953.76,3394.07 953.911,3394.19 953.665,3393.85C953.438,3393.54 953.15,3393.25 952.806,3393.13C952.806,3393.13 952.602,3392.97 952.728,3392.81C955.616,3389.84 959.406,3387.56 963.539,3387.09C963.773,3387.06 964.061,3387.05 964.061,3387.05C964.46,3387.08 964.834,3387.29 965.043,3387.64C965.602,3388.58 965.182,3389.74 964.896,3390.69C964.174,3393.11 962.95,3395.39 961.325,3397.33C960.227,3398.64 958.886,3399.79 957.297,3400.45L957.222,3400.47L955.705,3400.88C955.336,3400.93 955.296,3400.93 955.11,3400.94C953.626,3401.03 952.109,3400.74 950.672,3400.31C950.612,3400.29 950.262,3400.3 950.551,3399.83C950.767,3399.48 950.852,3399.05 950.939,3398.63C950.939,3398.63 951.027,3398.45 951.192,3398.48C952.412,3398.85 953.692,3399.11 954.947,3399.05C955.235,3398.95 955.475,3399.01 955.733,3398.95C957.777,3398.51 959.413,3396.88 960.699,3395.02C961.958,3393.2 963.024,3391.13 963.335,3389.04L963.337,3389.03C959.847,3389.58 956.616,3391.56 954.12,3394.1C954.12,3394.1 954.093,3394.19 953.908,3394.15ZM954.629,3399.45C953.504,3399.42 952.383,3399.23 951.296,3398.93C951.296,3398.93 951.172,3399.52 950.941,3399.96L950.934,3399.97C952.445,3400.41 954.036,3400.7 955.574,3400.5L955.638,3400.49L957.107,3400.09C961.247,3398.45 964.031,3393.62 964.784,3389.47C964.806,3389.35 964.826,3389.23 964.841,3389.1C964.852,3389.01 964.861,3388.91 964.867,3388.81C964.87,3388.76 964.872,3388.7 964.872,3388.65C964.877,3388.04 964.667,3387.35 963.483,3387.5C959.626,3387.97 956.047,3390.09 953.246,3392.85C953.246,3392.85 953.052,3392.76 953.411,3393.02C953.695,3393.24 954.01,3393.64 954.01,3393.64C954.086,3393.57 954.164,3393.49 954.241,3393.41C956.769,3390.98 959.945,3389.15 963.377,3388.62C963.566,3388.59 963.8,3388.52 963.749,3388.96C963.38,3392.13 961.392,3395.27 959.322,3397.29C958.15,3398.43 956.673,3399.34 955.062,3399.44C955.062,3399.44 954.841,3399.46 954.629,3399.45ZM954.583,3398.85C954.44,3398.78 954.136,3398.2 953.818,3397.76C953.545,3397.38 953.256,3397.02 952.954,3396.66C952.795,3396.47 952.633,3396.29 952.467,3396.11C952.233,3395.85 951.769,3395.27 951.259,3394.89C951.247,3394.88 950.617,3394.33 950.117,3393.93C947.841,3392.14 945.23,3390.68 942.434,3390.03C941.963,3389.92 941.483,3389.83 941.002,3389.84C942.871,3393.02 945.469,3395.76 948.676,3397.45C948.676,3397.45 948.825,3397.59 948.749,3397.74L947.912,3398.99C947.773,3399.15 947.559,3399.01 947.373,3398.9C943.952,3396.97 941.18,3393.94 939.238,3390.58C938.834,3389.89 938.748,3388.95 939.418,3388.4C940.194,3387.75 941.318,3387.89 942.227,3388.05C944.018,3388.36 945.727,3389.06 947.345,3389.9C949.109,3390.81 950.758,3391.94 952.254,3393.25C952.254,3393.25 952.813,3393.91 953.403,3394.37C953.403,3394.37 953.94,3394.89 954.341,3395.36C955.057,3396.2 955.704,3397.09 956.263,3398.04C956.29,3398.09 956.455,3398.33 956.203,3398.43L954.71,3398.86C954.661,3398.87 954.69,3398.88 954.583,3398.85ZM948.294,3397.7C945.001,3395.91 942.362,3393 940.498,3389.76C940.498,3389.76 940.287,3389.4 941.157,3389.44C943.34,3389.53 945.437,3390.52 947.411,3391.64C948.827,3392.44 950.162,3393.39 951.378,3394.47C951.378,3394.47 952.104,3395.06 952.546,3395.61C952.546,3395.61 952.509,3395.57 952.762,3395.84C953.492,3396.64 954.16,3397.5 954.739,3398.42L955.845,3398.12C955.792,3398.03 955.738,3397.94 955.683,3397.85C955.002,3396.77 954.201,3395.76 953.322,3394.83C953.322,3394.83 952.575,3394.3 952.142,3393.69L952.135,3393.68C949.192,3391.06 945.67,3388.88 941.79,3388.39C941.627,3388.37 941.463,3388.35 941.298,3388.34C941.192,3388.34 941.086,3388.33 940.979,3388.34C940.889,3388.34 940.8,3388.34 940.71,3388.35C940.078,3388.4 939.297,3388.73 939.294,3389.5C939.293,3389.93 939.545,3390.32 939.781,3390.72C941.706,3393.96 944.389,3396.78 947.659,3398.61L947.681,3398.62C947.885,3398.31 948.09,3398.01 948.294,3397.7ZM953.351,3394.39C953.293,3394.4 953.332,3394.39 953.351,3394.39ZM952.965,3419.95C952.577,3419.93 952.281,3419.64 952.062,3419.29C949.596,3415.29 947.807,3410.77 947.439,3406.12C947.26,3403.86 947.48,3401.55 948.281,3399.41C948.294,3399.38 948.306,3399.35 948.319,3399.31C948.34,3399.26 948.364,3399.2 948.364,3399.2L949.004,3397.83C949.527,3396.88 950.129,3395.97 950.777,3395.1C950.777,3395.1 950.806,3395.01 950.915,3394.95C951.124,3394.85 951.226,3395.28 951.43,3395.5C951.672,3395.76 952.137,3395.96 952.137,3395.96C952.513,3396.07 952.199,3396.37 952.016,3396.63C951.603,3397.21 951.215,3397.81 950.852,3398.43C950.852,3398.43 950.75,3398.61 950.779,3398.59L950.091,3399.99C948.571,3403.87 949.368,3408.3 950.717,3412.09C950.99,3412.85 951.291,3413.6 951.619,3414.35C952.045,3415.31 952.519,3416.26 953.029,3417.18C953.029,3417.18 953.505,3416.43 953.895,3415.72C956.284,3411.36 957.565,3406.13 955.681,3401.19C955.681,3401.19 955.605,3400.92 956.085,3400.92C956.47,3400.91 956.853,3400.84 957.202,3400.68C957.202,3400.68 957.394,3400.51 957.525,3400.71C957.614,3400.84 957.727,3401.26 957.833,3401.61C958.61,3404.16 958.693,3406.89 958.197,3409.54C957.54,3413.04 955.932,3416.28 953.971,3419.26L953.88,3419.39C953.716,3419.64 953.708,3419.63 953.708,3419.63C953.507,3419.83 953.325,3419.96 952.965,3419.95ZM952.955,3417.78C952.881,3417.74 952.871,3417.71 952.854,3417.69C950.46,3413.43 948.717,3408.69 948.89,3404.05C948.941,3402.69 949.177,3401.34 949.637,3400.07C949.69,3399.92 949.797,3399.71 949.797,3399.71L950.407,3398.4C950.81,3397.68 951.263,3396.99 951.741,3396.32C951.741,3396.32 951.832,3396.29 951.615,3396.16C951.362,3396 951.128,3395.8 950.961,3395.55L950.952,3395.54C950.375,3396.33 949.841,3397.15 949.367,3398C947.35,3401.67 947.556,3406.9 948.809,3411.08C949.67,3413.95 950.914,3416.74 952.503,3419.24C952.503,3419.24 952.583,3419.38 952.693,3419.46C952.912,3419.6 953.22,3419.56 953.416,3419.36L953.46,3419.3C957.079,3413.89 959.358,3407.32 957.259,3401.14C957.259,3401.14 956.742,3401.3 956.156,3401.32C956.853,3403.25 957.124,3405.35 956.966,3407.43C956.691,3411.04 955.2,3414.47 953.308,3417.52C953.308,3417.52 953.219,3417.84 952.955,3417.78Z" style="fill:rgb(204,54,84);fill-rule:nonzero;"/>
                    </g>
                </g>
                <g transform="matrix(6.12323e-17,1,-1,6.12323e-17,4515,2583)">
                    <g transform="matrix(-8.408e-17,0.40823,-0.490332,-8.20662e-17,2570.66,3354.89)">
                        <path d="M485.25,3287C485.25,3291.69 489.059,3300.5 493.75,3300.5C494.246,3300.5 494.733,3300.46 495.206,3300.38L512,3397L439,3397L455.794,3300.38C456.267,3300.46 456.754,3300.5 457.25,3300.5C461.941,3300.5 465.75,3291.69 465.75,3287L485.25,3287Z" style="fill:rgb(252,199,104);"/>
                    </g>
                    <g transform="matrix(2.11134e-17,-0.541832,0.738856,5.73061e-17,-1590.12,4065.09)">
                        <path d="M976.053,3377C976.052,3377.02 976.049,3377.05 976.046,3377.09L964.814,3439.41C964.791,3439.5 964.764,3439.59 964.714,3439.67C964.568,3439.92 964.302,3440.08 964.02,3440.09C963.955,3440.11 963.892,3440.14 963.828,3440.16C963.332,3440.35 962.861,3440.6 962.417,3440.89C961.411,3441.54 960.524,3442.42 959.982,3443.5C959.891,3443.68 959.811,3443.86 959.741,3444.05C959.579,3444.49 959.477,3444.95 959.436,3445.42C959.419,3445.62 959.415,3445.82 959.414,3446.02L959.409,3446.09C959.403,3446.14 959.396,3446.19 959.383,3446.24C959.369,3446.29 959.345,3446.34 959.322,3446.39C959.217,3446.6 959.012,3446.75 958.789,3446.82C958.713,3446.84 958.638,3446.84 958.56,3446.85L958.147,3446.85C958.049,3446.84 958.02,3446.84 957.93,3446.8C957.794,3446.74 957.693,3446.61 957.659,3446.46C957.651,3446.43 957.651,3446.39 957.647,3446.35L957.647,3445.69L957.659,3445.58L957.671,3445.54C957.675,3445.45 957.682,3445.37 957.689,3445.28C957.699,3445.18 957.71,3445.08 957.722,3444.99C957.75,3444.78 957.783,3444.58 957.827,3444.39C957.928,3443.93 958.076,3443.48 958.268,3443.06C958.925,3441.59 960.076,3440.4 961.411,3439.53C961.953,3439.17 962.528,3438.87 963.131,3438.63L963.177,3438.61L974.283,3377L976.053,3377ZM930.679,3377L941.067,3437.87C941.178,3437.9 941.288,3437.94 941.399,3437.97C941.509,3438.01 941.619,3438.05 941.728,3438.09C943.129,3438.61 944.447,3439.44 945.382,3440.62C945.529,3440.81 945.666,3441 945.79,3441.2C945.948,3441.46 946.087,3441.73 946.204,3442C946.383,3442.42 946.512,3442.87 946.59,3443.32C946.625,3443.52 946.643,3443.73 946.667,3443.93C946.676,3443.98 946.686,3444.03 946.699,3444.08C946.795,3444.41 946.967,3444.72 947.104,3445.03C947.134,3445.1 947.162,3445.18 947.19,3445.25C947.226,3445.35 947.258,3445.46 947.286,3445.57L947.29,3445.59L947.3,3445.69L947.3,3446.35C947.296,3446.39 947.296,3446.43 947.288,3446.46C947.254,3446.61 947.153,3446.74 947.017,3446.8C946.927,3446.84 946.899,3446.84 946.8,3446.85L946.462,3446.85C946.373,3446.85 946.285,3446.84 946.199,3446.81C945.952,3446.74 945.739,3446.56 945.642,3446.31C945.6,3446.21 945.589,3446.1 945.583,3445.98C945.579,3445.95 945.574,3445.93 945.566,3445.9C945.537,3445.79 945.497,3445.7 945.454,3445.6C945.377,3445.43 945.299,3445.27 945.222,3445.1C945.119,3444.86 945.023,3444.62 944.968,3444.36C944.924,3444.16 944.911,3443.95 944.884,3443.75C944.871,3443.66 944.871,3443.66 944.856,3443.57C944.83,3443.43 944.801,3443.29 944.763,3443.16C944.669,3442.82 944.533,3442.49 944.358,3442.18C943.777,3441.16 942.806,3440.42 941.761,3439.92C941.301,3439.7 940.819,3439.52 940.321,3439.4C940.301,3439.4 940.282,3439.4 940.262,3439.39L940.157,3439.39L940.061,3439.36C939.829,3439.3 939.622,3439.15 939.511,3438.93C939.473,3438.86 939.451,3438.78 939.432,3438.7L928.917,3377.08C928.915,3377.05 928.912,3377.02 928.911,3377L930.679,3377Z" style="fill:rgb(204,54,84);"/>
                    </g>
                    <g transform="matrix(4.16404e-17,-0.68004,0.68004,4.16404e-17,-1392.24,4196.45)">
                        <path d="M951.004,3395.13C951.08,3395.66 951.875,3396.13 952.107,3396.16C951.559,3396.9 951.054,3397.67 950.593,3398.47L950.581,3398.49L950.599,3398.5L950.599,3398.5L949.945,3399.86L949.931,3399.86C949.921,3399.88 949.91,3399.91 949.899,3399.94C949.697,3400.47 949.531,3401.01 949.406,3401.56C948.968,3403.5 949.004,3405.53 949.311,3407.48C949.578,3409.18 950.046,3410.84 950.639,3412.46C951.291,3414.23 952.097,3415.95 953.028,3417.59C953.102,3417.47 953.175,3417.35 953.248,3417.24C953.661,3416.56 954.057,3415.87 954.42,3415.16C955.641,3412.78 956.538,3410.19 956.759,3407.51C956.804,3406.97 956.821,3406.42 956.808,3405.88C956.79,3405.17 956.722,3404.46 956.6,3403.76C956.485,3403.1 956.321,3402.44 956.11,3401.8C956.035,3401.57 955.954,3401.34 955.867,3401.12C956.465,3401.15 956.982,3401.02 957.359,3400.82C957.372,3400.86 957.386,3400.89 957.407,3400.95C957.517,3401.27 957.621,3401.59 957.713,3401.91C957.92,3402.64 958.074,3403.38 958.174,3404.13C958.278,3404.91 958.323,3405.71 958.31,3406.5C958.3,3407.11 958.257,3407.72 958.183,3408.33C957.798,3411.47 956.591,3414.47 955.018,3417.2C954.581,3417.95 954.11,3418.69 953.623,3419.42L953.566,3419.49C953.5,3419.56 953.435,3419.62 953.35,3419.66C953.1,3419.8 952.788,3419.77 952.56,3419.61C952.482,3419.55 952.426,3419.48 952.369,3419.41C952.276,3419.26 952.186,3419.11 952.096,3418.97C951.444,3417.88 950.854,3416.75 950.321,3415.6C949.98,3414.86 949.663,3414.11 949.373,3413.35C949.151,3412.77 948.946,3412.19 948.758,3411.59C948.605,3411.11 948.464,3410.62 948.336,3410.13C948.224,3409.7 948.122,3409.27 948.032,3408.83C947.495,3406.22 947.367,3403.48 948.026,3400.89C948.165,3400.34 948.339,3399.81 948.544,3399.29L948.545,3399.28L948.545,3399.28L949.182,3397.92L949.192,3397.91C949.245,3397.81 949.298,3397.72 949.352,3397.62C949.708,3397.02 950.083,3396.42 950.485,3395.85C950.653,3395.6 950.826,3395.37 951.004,3395.13ZM956.531,3398.92C956.618,3398.89 956.703,3398.85 956.788,3398.82C957.002,3398.72 957.212,3398.62 957.415,3398.5C958.245,3398.03 958.973,3397.4 959.618,3396.7C960.197,3396.07 960.712,3395.38 961.175,3394.66C961.706,3393.84 962.17,3392.97 962.567,3392.08C962.833,3391.47 963.071,3390.86 963.261,3390.23C963.401,3389.76 963.523,3389.28 963.565,3388.8L963.565,3388.8C963.549,3388.8 963.534,3388.8 963.519,3388.8C962.328,3388.97 961.166,3389.32 960.057,3389.78C958.47,3390.44 956.985,3391.35 955.652,3392.43C955.065,3392.91 954.506,3393.42 953.977,3393.96C953.892,3393.81 953.564,3393.29 953,3393C952.955,3392.98 952.911,3392.96 952.871,3392.95C952.927,3392.89 952.983,3392.83 953.04,3392.77C953.738,3392.08 954.476,3391.42 955.263,3390.83C956.763,3389.7 958.423,3388.77 960.189,3388.12C960.858,3387.88 961.542,3387.67 962.238,3387.51C962.776,3387.39 963.32,3387.3 963.87,3387.26C963.931,3387.25 963.991,3387.25 964.052,3387.25C964.159,3387.26 964.261,3387.27 964.363,3387.31C964.451,3387.34 964.535,3387.39 964.61,3387.45C964.663,3387.49 964.712,3387.53 964.755,3387.58C965.07,3387.94 965.094,3388.46 965.06,3388.91C965.053,3389.01 965.043,3389.1 965.03,3389.2C965.011,3389.34 964.988,3389.48 964.961,3389.61C964.924,3389.8 964.881,3389.99 964.833,3390.18C964.78,3390.38 964.722,3390.58 964.659,3390.78C964.577,3391.05 964.487,3391.31 964.392,3391.57C964.006,3392.61 963.527,3393.62 962.974,3394.59C962.394,3395.61 961.727,3396.57 960.958,3397.45C960.114,3398.41 959.135,3399.28 958.004,3399.89C957.75,3400.03 957.489,3400.15 957.222,3400.26L957.17,3400.28C957.17,3400.28 955.678,3400.68 955.678,3400.68C955.574,3400.7 955.47,3400.71 955.366,3400.72C955.277,3400.73 955.188,3400.74 955.099,3400.74C954.499,3400.77 953.897,3400.73 953.301,3400.66C952.709,3400.58 952.121,3400.48 951.541,3400.34C951.229,3400.26 950.92,3400.18 950.615,3400.08C950.882,3399.8 951.046,3399.11 951.134,3398.67C951.9,3398.91 952.686,3399.07 953.481,3399.16C953.729,3399.2 953.978,3399.22 954.228,3399.23C954.444,3399.25 954.66,3399.26 954.877,3399.25L954.947,3399.25L954.996,3399.25L954.994,3399.24L954.994,3399.24C955.603,3399.22 956.084,3399.09 956.523,3398.92L956.531,3398.92ZM947.746,3398.88C947.254,3398.62 946.774,3398.33 946.309,3398.02C944.905,3397.09 943.632,3395.97 942.497,3394.73C941.767,3393.93 941.09,3393.07 940.478,3392.18C940.325,3391.95 940.174,3391.73 940.028,3391.5C939.93,3391.35 939.839,3391.2 939.745,3391.05C939.653,3390.9 939.564,3390.75 939.476,3390.6C939.389,3390.45 939.299,3390.3 939.231,3390.14C939.094,3389.81 939.045,3389.45 939.156,3389.11C939.192,3389.01 939.243,3388.9 939.308,3388.81C939.343,3388.76 939.383,3388.71 939.425,3388.66C939.772,3388.29 940.297,3388.17 940.786,3388.14C940.87,3388.14 940.955,3388.14 941.04,3388.14C941.16,3388.14 941.279,3388.14 941.399,3388.15C941.558,3388.16 941.716,3388.18 941.875,3388.2C942.045,3388.22 942.215,3388.25 942.384,3388.28C942.603,3388.32 942.82,3388.37 943.037,3388.43C943.652,3388.58 944.255,3388.78 944.848,3389C945.53,3389.25 946.198,3389.55 946.85,3389.87C948.288,3390.58 949.657,3391.43 950.928,3392.41C951.396,3392.77 951.847,3393.15 952.288,3393.55C952.289,3393.55 952.291,3393.55 952.292,3393.55C952.587,3393.99 953.33,3394.58 953.372,3394.59C953.377,3394.59 953.383,3394.59 953.391,3394.59L953.379,3394.6C953.496,3394.72 953.611,3394.84 953.726,3394.97C954.229,3395.52 954.706,3396.09 955.146,3396.7C955.507,3397.2 955.841,3397.71 956.149,3398.24L954.656,3398.67C954.428,3398.3 954.188,3397.93 953.932,3397.58C953.467,3396.94 952.956,3396.33 952.412,3395.76L952.409,3395.76C952.348,3395.65 951.463,3394.75 951.332,3394.7L951.332,3394.7C950.392,3393.85 949.368,3393.08 948.294,3392.4C947.149,3391.68 945.939,3391.04 944.68,3390.54C944.025,3390.28 943.357,3390.05 942.673,3389.88C942.157,3389.75 941.631,3389.65 941.099,3389.64C941.039,3389.64 941.04,3389.64 940.98,3389.64C940.883,3389.64 940.787,3389.64 940.69,3389.66L940.671,3389.66C940.912,3390.08 941.163,3390.5 941.429,3390.91C942.302,3392.24 943.315,3393.48 944.457,3394.6C945.483,3395.59 946.615,3396.49 947.847,3397.22C948.088,3397.36 948.334,3397.5 948.583,3397.63L947.746,3398.88Z" style="fill:rgb(204,54,84);"/>
                    </g>
                    <g transform="matrix(4.16404e-17,-0.68004,0.68004,4.16404e-17,-1392.24,4196.45)">
                        <path d="M950.099,3399.99C950.099,3399.99 949.762,3400.87 949.581,3401.7C948.409,3407.07 950.568,3412.71 953.029,3417.18C953.029,3417.18 953.505,3416.43 953.895,3415.72C956.284,3411.36 957.565,3406.13 955.681,3401.19C955.681,3401.19 955.605,3400.92 956.085,3400.92C956.47,3400.91 956.853,3400.84 957.202,3400.68C957.202,3400.68 957.394,3400.51 957.525,3400.71C957.623,3400.86 957.754,3401.34 957.869,3401.73C959.599,3407.59 957.34,3414.17 953.971,3419.26C953.956,3419.28 953.799,3419.51 953.785,3419.53C953.518,3419.91 953.383,3419.89 953.193,3419.93C952.751,3420.02 952.341,3419.74 952.062,3419.29C949.596,3415.29 947.807,3410.77 947.439,3406.12C947.26,3403.86 947.48,3401.55 948.281,3399.41C948.294,3399.38 948.306,3399.35 948.319,3399.31C948.34,3399.26 948.364,3399.2 948.364,3399.2L949.004,3397.83C949.526,3396.88 950.129,3395.97 950.777,3395.1C950.777,3395.1 950.806,3395.01 950.915,3394.95C951.124,3394.85 951.226,3395.28 951.43,3395.5C951.671,3395.76 952.137,3395.96 952.137,3395.96C952.513,3396.07 952.199,3396.37 952.016,3396.63C951.603,3397.21 951.215,3397.81 950.852,3398.43C950.852,3398.43 950.75,3398.61 950.779,3398.59L950.125,3399.95C950.117,3399.96 950.108,3399.97 950.099,3399.99ZM950.902,3395.6C950.345,3396.37 949.828,3397.17 949.367,3398C947.25,3401.85 947.547,3406.87 948.809,3411.08C949.67,3413.95 950.914,3416.74 952.503,3419.24C952.503,3419.24 952.583,3419.38 952.693,3419.46C952.912,3419.6 953.22,3419.56 953.416,3419.36L953.46,3419.3C957.079,3413.89 959.358,3407.32 957.259,3401.14C957.259,3401.14 956.742,3401.3 956.156,3401.32C956.853,3403.25 957.124,3405.35 956.966,3407.43C956.691,3411.04 955.2,3414.47 953.308,3417.52C953.308,3417.52 953.071,3417.99 952.854,3417.69C950.46,3413.43 948.717,3408.69 948.89,3404.05C948.94,3402.69 949.177,3401.34 949.637,3400.07C949.689,3399.93 949.797,3399.71 949.797,3399.71L950.407,3398.4C950.81,3397.68 951.264,3396.99 951.741,3396.32C951.741,3396.32 951.832,3396.29 951.615,3396.16C951.362,3396 951.128,3395.8 950.961,3395.55C950.961,3395.55 950.919,3395.58 950.902,3395.6ZM951.263,3398.5C952.437,3398.85 953.66,3399.09 954.871,3399.05C955.888,3399.02 956.306,3398.82 956.863,3398.56C958.493,3397.8 959.759,3396.41 960.789,3394.89C961.998,3393.1 963.03,3391.09 963.335,3389.04L963.337,3389.03C959.847,3389.58 956.616,3391.56 954.12,3394.1C954.12,3394.1 953.972,3394.27 953.665,3393.85C953.437,3393.54 953.15,3393.25 952.806,3393.13C952.806,3393.13 952.602,3392.97 952.728,3392.81C955.639,3389.81 959.406,3387.56 963.539,3387.09C963.773,3387.06 964.061,3387.05 964.061,3387.05C964.459,3387.08 964.834,3387.29 965.043,3387.64C965.602,3388.58 965.182,3389.74 964.896,3390.69C964.174,3393.11 962.95,3395.39 961.325,3397.33C960.225,3398.64 958.879,3399.79 957.297,3400.45L957.222,3400.47L955.705,3400.88C955.336,3400.93 955.296,3400.93 955.11,3400.94C953.626,3401.03 952.109,3400.74 950.672,3400.31C950.612,3400.29 950.262,3400.3 950.551,3399.83C950.767,3399.48 950.852,3399.05 950.939,3398.63C950.939,3398.63 951.032,3398.43 951.263,3398.5ZM963.682,3388.64C963.825,3388.77 963.776,3388.73 963.749,3388.96C963.617,3390.09 963.186,3391.18 962.712,3392.24C961.17,3395.68 958.625,3399.22 955.062,3399.44C955.062,3399.44 954.342,3399.46 953.646,3399.39C952.851,3399.3 952.065,3399.14 951.296,3398.93C951.296,3398.93 951.172,3399.52 950.941,3399.96L950.934,3399.97C952.445,3400.41 954.036,3400.7 955.574,3400.5L955.638,3400.49L957.107,3400.09C961.248,3398.45 964.031,3393.62 964.784,3389.47C964.806,3389.35 964.826,3389.23 964.841,3389.1C964.852,3389.01 964.861,3388.91 964.867,3388.81C964.87,3388.76 964.872,3388.7 964.872,3388.65C964.877,3388.04 964.695,3387.35 963.483,3387.5C959.626,3387.97 956.047,3390.09 953.246,3392.85C953.246,3392.85 953.052,3392.76 953.411,3393.02C953.695,3393.24 954.01,3393.64 954.01,3393.64C954.086,3393.57 954.164,3393.49 954.241,3393.41C956.766,3390.99 959.945,3389.15 963.377,3388.62C963.477,3388.61 963.557,3388.57 963.682,3388.64ZM941.087,3387.94C943.351,3387.97 945.544,3388.93 947.613,3390.04C949.276,3390.93 950.834,3392.01 952.254,3393.25C952.254,3393.25 952.812,3393.91 953.403,3394.37C953.403,3394.37 953.996,3394.95 954.433,3395.47C955.113,3396.27 955.73,3397.13 956.263,3398.04C956.29,3398.09 956.455,3398.33 956.203,3398.43L954.71,3398.86C954.516,3398.89 954.422,3398.67 954.314,3398.5C953.743,3397.61 953.093,3396.78 952.368,3396C952.311,3395.94 952.344,3395.99 952.217,3395.84C951.924,3395.49 951.603,3395.15 951.259,3394.89C951.239,3394.88 950.615,3394.33 950.117,3393.93C947.84,3392.13 945.23,3390.68 942.434,3390.03C941.963,3389.92 941.483,3389.83 941.002,3389.84C942.871,3393.02 945.469,3395.76 948.676,3397.45C948.676,3397.45 948.825,3397.59 948.749,3397.74L947.912,3398.99C947.773,3399.15 947.559,3399.01 947.373,3398.9C943.984,3396.99 941.236,3394.02 939.303,3390.7C938.865,3389.94 938.715,3388.9 939.502,3388.33C939.944,3388.01 940.532,3387.93 941.087,3387.94ZM941.157,3389.44C942.433,3389.5 943.676,3389.92 944.873,3390.4C947.285,3391.38 949.52,3392.79 951.449,3394.54C951.87,3394.8 952.236,3395.23 952.546,3395.61C952.546,3395.61 952.509,3395.57 952.762,3395.84C953.492,3396.64 954.16,3397.5 954.739,3398.42L955.845,3398.12C955.792,3398.03 955.738,3397.94 955.683,3397.85C955.002,3396.77 954.201,3395.76 953.322,3394.83C953.322,3394.83 952.575,3394.3 952.142,3393.69L952.135,3393.68C949.21,3391.08 945.742,3388.89 941.79,3388.39C941.627,3388.37 941.463,3388.35 941.299,3388.34C941.192,3388.34 941.086,3388.33 940.979,3388.34C940.889,3388.34 940.8,3388.34 940.71,3388.35C940.078,3388.4 939.297,3388.73 939.294,3389.5C939.293,3389.93 939.545,3390.32 939.781,3390.72C941.706,3393.96 944.389,3396.78 947.659,3398.61L948.294,3397.7C944.992,3395.91 942.358,3392.99 940.498,3389.76C940.498,3389.76 940.153,3389.4 941.157,3389.44ZM953.344,3394.39C953.344,3394.39 953.361,3394.39 953.344,3394.39Z" style="fill:rgb(204,54,84);fill-rule:nonzero;"/>
                    </g>
                </g>
            </g>
        </g>
        <g transform="matrix(2.24356,0,0,2.24356,-936.403,-593.029)">
            <circle cx="612.95" cy="405.449" r="20.504"/>
        </g>
        <g transform="matrix(1.23615,-0.552586,0.552586,1.23615,-918.821,467.787)">
            <path d="M957.707,176.234L953.541,185.657L959.831,188.87C960.53,189.264 960.82,190.139 960.492,190.873L954.816,202.296L952.13,200.961L957.145,190.867L950.809,187.624C950.2,187.215 949.953,186.427 950.224,185.741L954.964,175.021C955.878,175.426 956.793,175.83 957.707,176.234Z" style="fill:rgb(204,54,84);fill-rule:nonzero;"/>
        </g>
        <g transform="matrix(-0.400755,1.29337,-1.29337,-0.400755,1214.79,-783.538)">
            <path d="M957.707,176.234L953.541,185.657L959.831,188.87C960.53,189.264 960.82,190.139 960.492,190.873L954.816,202.296L952.13,200.961L957.145,190.867C957.145,190.867 950.809,187.624 950.809,187.624C950.2,187.215 949.953,186.427 950.224,185.741L954.964,175.021C955.878,175.426 956.793,175.83 957.707,176.234Z" style="fill:rgb(204,54,84);fill-rule:nonzero;"/>
        </g>
        <g transform="matrix(0.465646,-1.27145,1.27145,0.465646,-453.505,1341.51)">
            <rect x="944.78" y="228.574" width="4" height="23.268" style="fill:rgb(204,54,84);fill-rule:nonzero;"/>
        </g>
        <g transform="matrix(-1.258,0.500841,-0.500841,-1.258,1812.5,291.147)">
            <rect x="944.78" y="228.574" width="4" height="23.268" style="fill:rgb(204,54,84);fill-rule:nonzero;"/>
        </g>
        <g transform="matrix(1.08016,-0.816496,0.816496,1.08016,-831.183,575.428)">
            <path d="M859.849,291.802L868.599,283.052C869.189,283.641 869.778,284.23 870.367,284.82L859.849,295.338L859.849,307.204L855.849,307.204L855.849,295.338L845.331,284.82L847.099,283.052L855.849,291.802L855.849,283.936L859.849,283.936L859.849,291.802Z" style="fill:rgb(204,54,84);"/>
        </g>
        <g transform="matrix(0.818931,-1.07832,1.07832,0.818931,-690.69,875.266)">
            <path d="M834.014,292.238L840.523,297.117L839.023,299.118L834.014,295.362L834.014,298.055L840.523,302.934L839.023,304.935L834.014,301.179L834.014,307.204L830.014,307.204L830.014,298.18L823.505,293.301L825.005,291.3L830.014,295.056L830.014,292.363L823.505,287.484L825.005,285.483L830.014,289.239L830.014,283.936L834.014,283.936L834.014,292.238Z" style="fill:rgb(204,54,84);"/>
        </g>
        <g transform="matrix(1.02592,0.88369,-0.88369,1.02592,-176.367,-952.304)">
            <path d="M949.623,292.238L956.132,297.117L954.632,299.118L949.623,295.362L949.623,298.055L956.132,302.934L954.632,304.935L949.623,301.179L949.623,307.204L945.623,307.204L945.623,298.18L939.114,293.301L940.613,291.3L945.623,295.056L945.623,292.363L939.114,287.484L940.613,285.483L945.623,289.239L945.623,283.936L949.623,283.936L949.623,292.238Z" style="fill:rgb(204,54,84);"/>
        </g>
        <g transform="matrix(-0.938989,0.975557,-0.975557,-0.938989,1833.57,-326.047)">
            <path d="M1057.02,291.858L1064.74,286.076C1065.24,286.742 1065.74,287.409 1066.24,288.076L1057.02,294.983L1057.02,307.204L1053.02,307.204L1053.02,297.982L1047.32,302.258L1045.82,300.257L1053.02,294.857L1053.02,283.936L1057.02,283.936L1057.02,291.858Z" style="fill:rgb(204,54,84);"/>
        </g>
        <g transform="matrix(-0.935069,-0.979314,0.979314,-0.935069,1113.43,1836.82)">
            <path d="M1155.36,291.858L1163.08,286.076C1163.58,286.742 1164.08,287.409 1164.58,288.076L1155.36,294.983L1155.36,307.204L1151.36,307.204L1151.36,297.982L1145.66,302.258L1144.16,300.257L1151.36,294.857L1151.36,283.936L1155.36,283.936L1155.36,291.858Z" style="fill:rgb(204,54,84);"/>
        </g>
        <g transform="matrix(-1.14368,0.724857,-0.724857,-1.14368,1975.51,4.56617)">
            <path d="M1082.03,294.857L1089.23,300.257L1087.73,302.258L1082.03,297.982L1082.03,307.204L1078.03,307.204L1078.03,294.983L1068.82,288.076L1070.32,286.076L1078.03,291.858L1078.03,283.936L1082.03,283.936L1082.03,294.857Z" style="fill:rgb(204,54,84);"/>
        </g>
        <g transform="matrix(0.841916,1.06047,-1.06047,0.841916,56.9046,-1065.6)">
            <path d="M966.62,282.437C966.853,282.456 967.072,282.518 967.28,282.622L976.335,287.616C978.303,288.804 977.119,289.742 976.372,290.222L968.653,294.768L976.027,306.401L973.493,308.007L968.056,299.43L968.056,307.204L965.056,307.204L965.056,283.936C965.095,282.912 966.436,282.436 966.62,282.437ZM968.056,291.638L972.582,288.972L968.056,286.476C968.056,288.197 968.056,289.917 968.056,291.638Z" style="fill:rgb(204,54,84);fill-rule:nonzero;"/>
        </g>
        <g transform="matrix(0.46325,1.27232,-1.27232,0.46325,496.872,-1156.75)">
            <path d="M988.517,291.802L997.267,283.052C997.856,283.641 998.445,284.23 999.034,284.82L988.517,295.338L988.517,307.204L984.517,307.204L984.517,283.936L988.517,283.936L988.517,291.802Z" style="fill:rgb(204,54,84);"/>
        </g>
        <g transform="matrix(-0.753445,1.12505,-1.12505,-0.753445,1687.2,-541.289)">
            <path d="M1035.98,291.802L1044.73,283.052C1045.32,283.641 1045.91,284.23 1046.5,284.82L1035.98,295.338L1035.98,307.204L1031.98,307.204L1031.98,283.936L1035.98,283.936L1035.98,291.802Z" style="fill:rgb(204,54,84);"/>
        </g>
        <g transform="matrix(-0.801092,-1.09163,1.09163,-0.801092,919.902,1919.21)">
            <path d="M1171.8,291.802L1180.55,283.052C1181.13,283.641 1181.72,284.23 1182.31,284.82L1171.8,295.338L1171.8,307.204L1167.8,307.204L1167.8,283.936L1171.8,283.936L1171.8,291.802Z" style="fill:rgb(204,54,84);"/>
        </g>
        <g transform="matrix(1.23468,0.555861,-0.499681,1.10989,-493.455,-671.729)">
            <path d="M921.902,279.654C922.136,279.678 922.356,279.751 922.564,279.872L933.383,286.763C935.411,288.174 934.085,289.227 933.311,289.702L925.116,294.285C925.116,294.285 932.66,298.647 932.66,298.647C932.956,298.87 932.987,298.938 933.083,299.085C933.566,299.828 933.499,300.834 932.675,301.47L922.626,308.61C920.593,309.936 920.352,308.187 920.319,307.204L920.319,281.32C920.359,280.171 921.716,279.65 921.902,279.654ZM923.319,304.158L928.871,300.213L923.319,297.008C923.319,299.391 923.319,301.775 923.319,304.158ZM923.319,291.555L929.469,288.116L923.319,284.198C923.319,286.651 923.319,289.103 923.319,291.555Z" style="fill:rgb(204,54,84);fill-rule:nonzero;"/>
        </g>
        <g transform="matrix(-1.21308,-0.601543,0.601543,-1.21308,1551.68,1492.85)">
            <path d="M1132.63,282.439C1133.25,282.506 1133.34,282.654 1133.57,282.861L1141.69,290.76L1139.6,292.91L1134.03,287.488L1134.03,307.204L1131.03,307.204C1131.03,307.204 1131.03,283.819 1131.03,283.819C1131.12,283.024 1131.8,282.414 1132.63,282.439Z" style="fill:rgb(204,54,84);fill-rule:nonzero;"/>
        </g>
    </g>
</svg>
