<?xml version="1.0" encoding="UTF-8" standalone="no"?>
<!DOCTYPE svg PUBLIC "-//W3C//DTD SVG 1.1//EN" "http://www.w3.org/Graphics/SVG/1.1/DTD/svg11.dtd">
<svg width="100%" height="100%" viewBox="0 0 50 50" version="1.1" xmlns="http://www.w3.org/2000/svg" xmlns:xlink="http://www.w3.org/1999/xlink" xml:space="preserve" xmlns:serif="http://www.serif.com/" style="fill-rule:evenodd;clip-rule:evenodd;stroke-linecap:round;stroke-linejoin:round;stroke-miterlimit:1.5;">
    <g transform="matrix(0.395338,0,0,0.395338,-356.897,-1378.06)">
        <g>
            <g>
                <circle cx="966" cy="3549" r="61" style="fill:none;"/>
                <clipPath id="_clip1">
                    <circle cx="966" cy="3549" r="61"/>
                </clipPath>
                <g clip-path="url(#_clip1)">
                    <g transform="matrix(0.71178,0,0,0.71178,288.029,1084.32)">
                        <g transform="matrix(-0.753425,-9.22679e-17,8.1272e-17,-0.663636,1310.75,5631.37)">
                            <g>
                                <path d="M487.616,3287.31L487.626,3287.48L487.64,3287.65L487.659,3287.84L487.682,3288.03L487.709,3288.23L487.741,3288.44L487.778,3288.65L487.819,3288.87L487.865,3289.09L487.915,3289.31L487.969,3289.54L488.028,3289.78L488.091,3290.01L488.159,3290.25L488.23,3290.49L488.306,3290.74L488.386,3290.98L488.469,3291.22L488.557,3291.47L488.648,3291.71L488.742,3291.96L488.841,3292.2L488.942,3292.45L489.047,3292.69L489.155,3292.93L489.266,3293.16L489.381,3293.4L489.498,3293.63L489.617,3293.86L489.739,3294.09L489.864,3294.31L489.991,3294.53L490.12,3294.74L490.251,3294.95L490.383,3295.15L490.517,3295.35L490.652,3295.54L490.789,3295.72L490.926,3295.9L491.064,3296.07L491.203,3296.24L491.342,3296.39L491.48,3296.54L491.618,3296.68L491.755,3296.81L491.892,3296.94L492.027,3297.05L492.16,3297.16L492.292,3297.26L492.421,3297.35L492.547,3297.43L492.671,3297.5L492.792,3297.57L492.91,3297.62L493.024,3297.67L493.136,3297.71L493.244,3297.75L493.349,3297.78L493.452,3297.8L493.552,3297.81L493.652,3297.82L493.758,3297.82L494.031,3297.82L494.308,3297.8L494.582,3297.77L494.895,3297.72L495.289,3297.7L495.681,3297.75L496.06,3297.88L496.414,3298.08L496.735,3298.34L497.013,3298.66L497.241,3299.02L497.411,3299.43L497.52,3299.86L514.314,3396.48L514.357,3396.91L514.34,3397.34L514.262,3397.76L514.126,3398.16L513.936,3398.53L513.696,3398.86L513.412,3399.14L513.092,3399.37L512.744,3399.54L512.377,3399.64L512,3399.68L439,3399.68L438.623,3399.64L438.256,3399.54L437.908,3399.37L437.588,3399.14L437.304,3398.86L437.064,3398.53L436.874,3398.16L436.738,3397.76L436.66,3397.34L436.643,3396.91L436.686,3396.48L446.453,3340.29L453.48,3299.86L453.589,3299.43L453.759,3299.02L453.987,3298.66L454.265,3298.34L454.586,3298.08L454.94,3297.88L455.319,3297.75L455.711,3297.7L456.105,3297.72L456.418,3297.77L456.692,3297.8L456.969,3297.82L457.242,3297.82L457.348,3297.82L457.448,3297.81L457.548,3297.8L457.651,3297.78L457.756,3297.75L457.864,3297.71L457.976,3297.67L458.09,3297.62L458.208,3297.57L458.329,3297.5L458.453,3297.43L458.579,3297.35L458.708,3297.26L458.84,3297.16L458.973,3297.05L459.108,3296.94L459.245,3296.81L459.382,3296.68L459.52,3296.54L459.658,3296.39L459.797,3296.24L459.936,3296.07L460.074,3295.9L460.211,3295.72L460.348,3295.54L460.483,3295.35L460.617,3295.15L460.749,3294.95L460.88,3294.74L461.009,3294.53L461.136,3294.31L461.261,3294.09L461.383,3293.86L461.502,3293.63L461.619,3293.4L461.734,3293.16L461.845,3292.93L461.953,3292.69L462.058,3292.45L462.159,3292.2L462.258,3291.96L462.352,3291.71L462.443,3291.47L462.531,3291.22L462.614,3290.98L462.694,3290.74L462.77,3290.49L462.841,3290.25L462.909,3290.01L462.972,3289.78L463.031,3289.54L463.085,3289.31L463.135,3289.09L463.181,3288.87L463.222,3288.65L463.259,3288.44L463.291,3288.23L463.318,3288.03L463.341,3287.84L463.36,3287.65L463.374,3287.48L463.384,3287.31L463.39,3287.15L463.392,3286.96L463.433,3286.5L463.543,3286.06L463.719,3285.64L463.955,3285.26L464.245,3284.94L464.58,3284.68L464.95,3284.48L465.344,3284.36L465.75,3284.32L485.25,3284.32L485.656,3284.36L486.05,3284.48L486.42,3284.68L486.755,3284.94L487.045,3285.26L487.281,3285.64L487.457,3286.06L487.567,3286.5L487.608,3286.96L487.61,3287.15L487.616,3287.31ZM509.131,3394.32L504.341,3366.77L493.285,3303.16L493.073,3303.14L492.741,3303.09L492.414,3303.03L492.092,3302.94L491.777,3302.84L491.468,3302.73L491.166,3302.6L490.871,3302.46L490.582,3302.31L490.301,3302.14L490.026,3301.96L489.758,3301.78L489.497,3301.58L489.242,3301.38L488.994,3301.16L488.751,3300.94L488.514,3300.71L488.283,3300.48L488.058,3300.24L487.838,3299.99L487.623,3299.73L487.414,3299.47L487.209,3299.21L487.009,3298.94L486.814,3298.66L486.624,3298.39L486.438,3298.1L486.258,3297.81L486.081,3297.52L485.909,3297.23L485.742,3296.93L485.579,3296.63L485.421,3296.33L485.267,3296.02L485.118,3295.71L484.973,3295.4L484.832,3295.09L484.696,3294.78L484.564,3294.46L484.437,3294.15L484.315,3293.83L484.197,3293.51L484.084,3293.2L483.975,3292.88L483.871,3292.56L483.772,3292.24L483.678,3291.93L483.589,3291.61L483.504,3291.29L483.424,3290.98L483.35,3290.66L483.281,3290.35L483.216,3290.04L483.158,3289.73L483.149,3289.68L467.851,3289.68L467.842,3289.73L467.784,3290.04L467.719,3290.35L467.65,3290.66L467.576,3290.98L467.496,3291.29L467.411,3291.61L467.322,3291.93L467.228,3292.24L467.129,3292.56L467.025,3292.88L466.916,3293.2L466.803,3293.51L466.685,3293.83L466.563,3294.15L466.436,3294.46L466.304,3294.78L466.168,3295.09L466.027,3295.4L465.882,3295.71L465.733,3296.02L465.579,3296.33L465.421,3296.63L465.258,3296.93L465.091,3297.23L464.919,3297.52L464.742,3297.81L464.562,3298.1L464.376,3298.39L464.186,3298.66L463.991,3298.94L463.791,3299.21L463.586,3299.47L463.377,3299.73L463.162,3299.99L462.942,3300.24L462.717,3300.48L462.486,3300.71L462.249,3300.94L462.006,3301.16L461.758,3301.38L461.503,3301.58L461.242,3301.78L460.974,3301.96L460.699,3302.14L460.418,3302.31L460.129,3302.46L459.834,3302.6L459.532,3302.73L459.223,3302.84L458.908,3302.94L458.586,3303.03L458.259,3303.09L457.927,3303.14L457.715,3303.16L450.837,3342.72L441.869,3394.32L509.131,3394.32Z" style="fill:white;"/>
                            </g>
                        </g>
                        <g transform="matrix(1.18462,0,0,1.18462,-176.376,-625.407)">
                            <path d="M951.004,3395.13C951.08,3395.66 951.875,3396.13 952.107,3396.16C951.559,3396.9 951.054,3397.67 950.593,3398.47L950.581,3398.49L950.599,3398.5L950.599,3398.5L949.945,3399.86L949.931,3399.86C949.921,3399.88 949.91,3399.91 949.899,3399.94C949.697,3400.47 949.531,3401.01 949.406,3401.56C948.968,3403.5 949.004,3405.53 949.311,3407.48C949.578,3409.18 950.046,3410.84 950.639,3412.46C951.291,3414.23 952.097,3415.95 953.028,3417.59C953.102,3417.47 953.175,3417.35 953.248,3417.24C953.661,3416.56 954.057,3415.87 954.42,3415.16C955.641,3412.78 956.538,3410.19 956.759,3407.51C956.804,3406.97 956.821,3406.42 956.808,3405.88C956.79,3405.17 956.722,3404.46 956.6,3403.76C956.485,3403.1 956.321,3402.44 956.11,3401.8C956.035,3401.57 955.954,3401.34 955.867,3401.12C956.465,3401.15 956.982,3401.02 957.359,3400.82C957.372,3400.86 957.386,3400.89 957.407,3400.95C957.517,3401.27 957.621,3401.59 957.713,3401.91C957.92,3402.64 958.074,3403.38 958.174,3404.13C958.278,3404.91 958.323,3405.71 958.31,3406.5C958.3,3407.11 958.257,3407.72 958.183,3408.33C957.798,3411.47 956.591,3414.47 955.018,3417.2C954.581,3417.95 954.11,3418.69 953.623,3419.42L953.566,3419.49C953.5,3419.56 953.435,3419.62 953.35,3419.66C953.1,3419.8 952.788,3419.77 952.56,3419.61C952.482,3419.55 952.426,3419.48 952.369,3419.41C952.276,3419.26 952.186,3419.11 952.096,3418.97C951.444,3417.88 950.854,3416.75 950.321,3415.6C949.98,3414.86 949.663,3414.11 949.373,3413.35C949.151,3412.77 948.946,3412.19 948.758,3411.59C948.605,3411.11 948.464,3410.62 948.336,3410.13C948.224,3409.7 948.122,3409.27 948.032,3408.83C947.495,3406.22 947.367,3403.48 948.026,3400.89C948.165,3400.34 948.339,3399.81 948.544,3399.29L948.545,3399.28L948.545,3399.28L949.182,3397.92L949.192,3397.91C949.245,3397.81 949.298,3397.72 949.352,3397.62C949.708,3397.02 950.083,3396.42 950.485,3395.85C950.653,3395.6 950.826,3395.37 951.004,3395.13ZM956.531,3398.92C956.618,3398.89 956.703,3398.85 956.788,3398.82C957.002,3398.72 957.212,3398.62 957.415,3398.5C958.245,3398.03 958.973,3397.4 959.618,3396.7C960.197,3396.07 960.712,3395.38 961.175,3394.66C961.706,3393.84 962.17,3392.97 962.567,3392.08C962.833,3391.47 963.071,3390.86 963.261,3390.23C963.401,3389.76 963.523,3389.28 963.565,3388.8L963.565,3388.8C963.549,3388.8 963.534,3388.8 963.519,3388.8C962.328,3388.97 961.166,3389.32 960.057,3389.78C958.47,3390.44 956.985,3391.35 955.652,3392.43C955.065,3392.91 954.506,3393.42 953.977,3393.96C953.892,3393.81 953.564,3393.29 953,3393C952.955,3392.98 952.911,3392.96 952.871,3392.95C952.927,3392.89 952.983,3392.83 953.04,3392.77C953.738,3392.08 954.476,3391.42 955.263,3390.83C956.763,3389.7 958.423,3388.77 960.189,3388.12C960.858,3387.88 961.542,3387.67 962.238,3387.51C962.776,3387.39 963.32,3387.3 963.87,3387.26C963.931,3387.25 963.991,3387.25 964.052,3387.25C964.159,3387.26 964.261,3387.27 964.363,3387.31C964.451,3387.34 964.535,3387.39 964.61,3387.45C964.663,3387.49 964.712,3387.53 964.755,3387.58C965.07,3387.94 965.094,3388.46 965.06,3388.91C965.053,3389.01 965.043,3389.1 965.03,3389.2C965.011,3389.34 964.988,3389.48 964.961,3389.61C964.924,3389.8 964.881,3389.99 964.833,3390.18C964.78,3390.38 964.722,3390.58 964.659,3390.78C964.577,3391.05 964.487,3391.31 964.392,3391.57C964.006,3392.61 963.527,3393.62 962.974,3394.59C962.394,3395.61 961.727,3396.57 960.958,3397.45C960.114,3398.41 959.135,3399.28 958.004,3399.89C957.75,3400.03 957.489,3400.15 957.222,3400.26L957.17,3400.28C957.17,3400.28 955.678,3400.68 955.678,3400.68C955.574,3400.7 955.47,3400.71 955.366,3400.72C955.277,3400.73 955.188,3400.74 955.099,3400.74C954.499,3400.77 953.897,3400.73 953.301,3400.66C952.709,3400.58 952.121,3400.48 951.541,3400.34C951.229,3400.26 950.92,3400.18 950.615,3400.08C950.882,3399.8 951.046,3399.11 951.134,3398.67C951.9,3398.91 952.686,3399.07 953.481,3399.16C953.729,3399.2 953.978,3399.22 954.228,3399.23C954.444,3399.25 954.66,3399.26 954.877,3399.25L954.947,3399.25L954.996,3399.25L954.994,3399.24L954.994,3399.24C955.603,3399.22 956.084,3399.09 956.523,3398.92L956.531,3398.92ZM947.746,3398.88C947.254,3398.62 946.774,3398.33 946.309,3398.02C944.905,3397.09 943.632,3395.97 942.497,3394.73C941.767,3393.93 941.09,3393.07 940.478,3392.18C940.325,3391.95 940.174,3391.73 940.028,3391.5C939.93,3391.35 939.839,3391.2 939.745,3391.05C939.653,3390.9 939.564,3390.75 939.476,3390.6C939.389,3390.45 939.299,3390.3 939.231,3390.14C939.094,3389.81 939.045,3389.45 939.156,3389.11C939.192,3389.01 939.243,3388.9 939.308,3388.81C939.343,3388.76 939.383,3388.71 939.425,3388.66C939.772,3388.29 940.297,3388.17 940.786,3388.14C940.87,3388.14 940.955,3388.14 941.04,3388.14C941.16,3388.14 941.279,3388.14 941.399,3388.15C941.558,3388.16 941.716,3388.18 941.875,3388.2C942.045,3388.22 942.215,3388.25 942.384,3388.28C942.603,3388.32 942.82,3388.37 943.037,3388.43C943.652,3388.58 944.255,3388.78 944.848,3389C945.53,3389.25 946.198,3389.55 946.85,3389.87C948.288,3390.58 949.657,3391.43 950.928,3392.41C951.396,3392.77 951.847,3393.15 952.288,3393.55C952.289,3393.55 952.291,3393.55 952.292,3393.55C952.587,3393.99 953.33,3394.58 953.372,3394.59C953.377,3394.59 953.383,3394.59 953.391,3394.59L953.379,3394.6C953.496,3394.72 953.611,3394.84 953.726,3394.97C954.229,3395.52 954.706,3396.09 955.146,3396.7C955.507,3397.2 955.841,3397.71 956.149,3398.24L954.656,3398.67C954.428,3398.3 954.188,3397.93 953.932,3397.58C953.467,3396.94 952.956,3396.33 952.412,3395.76L952.409,3395.76C952.348,3395.65 951.463,3394.75 951.332,3394.7L951.332,3394.7C950.392,3393.85 949.368,3393.08 948.294,3392.4C947.149,3391.68 945.939,3391.04 944.68,3390.54C944.025,3390.28 943.357,3390.05 942.673,3389.88C942.157,3389.75 941.631,3389.65 941.099,3389.64C941.039,3389.64 941.04,3389.64 940.98,3389.64C940.883,3389.64 940.787,3389.64 940.69,3389.66L940.671,3389.66C940.912,3390.08 941.163,3390.5 941.429,3390.91C942.302,3392.24 943.315,3393.48 944.457,3394.6C945.483,3395.59 946.615,3396.49 947.847,3397.22C948.088,3397.36 948.334,3397.5 948.583,3397.63L947.746,3398.88Z" style="fill:white;"/>
                        </g>
                        <path d="M976.053,3377C976.052,3377.02 976.049,3377.05 976.046,3377.09L964.814,3439.41C964.791,3439.5 964.764,3439.59 964.714,3439.67C964.568,3439.92 964.302,3440.08 964.02,3440.09C963.955,3440.11 963.892,3440.14 963.828,3440.16C963.332,3440.35 962.861,3440.6 962.417,3440.89C961.411,3441.54 960.524,3442.42 959.982,3443.5C959.891,3443.68 959.811,3443.86 959.741,3444.05C959.579,3444.49 959.477,3444.95 959.436,3445.42C959.419,3445.62 959.415,3445.82 959.414,3446.02L959.409,3446.09C959.403,3446.14 959.396,3446.19 959.383,3446.24C959.369,3446.29 959.345,3446.34 959.322,3446.39C959.217,3446.6 959.012,3446.75 958.789,3446.82C958.713,3446.84 958.638,3446.84 958.56,3446.85L958.147,3446.85C958.049,3446.84 958.02,3446.84 957.93,3446.8C957.794,3446.74 957.693,3446.61 957.659,3446.46C957.651,3446.43 957.651,3446.39 957.647,3446.35L957.647,3445.69L957.659,3445.58L957.671,3445.54C957.675,3445.45 957.682,3445.37 957.689,3445.28C957.699,3445.18 957.71,3445.08 957.722,3444.99C957.75,3444.78 957.783,3444.58 957.827,3444.39C957.928,3443.93 958.076,3443.48 958.268,3443.06C958.925,3441.59 960.076,3440.4 961.411,3439.53C961.953,3439.17 962.528,3438.87 963.131,3438.63L963.177,3438.61L974.283,3377L976.053,3377ZM930.679,3377L941.067,3437.87C941.178,3437.9 941.288,3437.94 941.399,3437.97C941.509,3438.01 941.619,3438.05 941.728,3438.09C943.129,3438.61 944.447,3439.44 945.382,3440.62C945.529,3440.81 945.666,3441 945.79,3441.2C945.948,3441.46 946.087,3441.73 946.204,3442C946.383,3442.42 946.512,3442.87 946.59,3443.32C946.625,3443.52 946.643,3443.73 946.667,3443.93C946.676,3443.98 946.686,3444.03 946.699,3444.08C946.795,3444.41 946.967,3444.72 947.104,3445.03C947.134,3445.1 947.162,3445.18 947.19,3445.25C947.226,3445.35 947.258,3445.46 947.286,3445.57L947.29,3445.59L947.3,3445.69L947.3,3446.35C947.296,3446.39 947.296,3446.43 947.288,3446.46C947.254,3446.61 947.153,3446.74 947.017,3446.8C946.927,3446.84 946.899,3446.84 946.8,3446.85L946.462,3446.85C946.373,3446.85 946.285,3446.84 946.199,3446.81C945.952,3446.74 945.739,3446.56 945.642,3446.31C945.6,3446.21 945.589,3446.1 945.583,3445.98C945.579,3445.95 945.574,3445.93 945.566,3445.9C945.537,3445.79 945.497,3445.7 945.454,3445.6C945.377,3445.43 945.299,3445.27 945.222,3445.1C945.119,3444.86 945.023,3444.62 944.968,3444.36C944.924,3444.16 944.911,3443.95 944.884,3443.75C944.871,3443.66 944.871,3443.66 944.856,3443.57C944.83,3443.43 944.801,3443.29 944.763,3443.16C944.669,3442.82 944.533,3442.49 944.358,3442.18C943.777,3441.16 942.806,3440.42 941.761,3439.92C941.301,3439.7 940.819,3439.52 940.321,3439.4C940.301,3439.4 940.282,3439.4 940.262,3439.39L940.157,3439.39L940.061,3439.36C939.829,3439.3 939.622,3439.15 939.511,3438.93C939.473,3438.86 939.451,3438.78 939.432,3438.7L928.917,3377.08C928.915,3377.05 928.912,3377.02 928.911,3377L930.679,3377Z" style="fill:white;"/>
                    </g>
                    <g transform="matrix(-0.71178,-8.71679e-17,8.71679e-17,-0.71178,1643.97,6013.68)">
                        <g transform="matrix(-0.753425,-9.22679e-17,8.1272e-17,-0.663636,1310.75,5631.37)">
                            <g>
                                <path d="M496.06,3297.88L496.414,3298.08L496.735,3298.34L497.013,3298.66L497.241,3299.02L497.411,3299.43L497.52,3299.86L514.314,3396.48L514.357,3396.91L514.34,3397.34L514.262,3397.76L514.126,3398.16L513.936,3398.53L513.696,3398.86L513.412,3399.14L513.092,3399.37L512.744,3399.54L512.377,3399.64L512,3399.68L439,3399.68L438.623,3399.64L438.256,3399.54L437.908,3399.37L437.588,3399.14L437.304,3398.86L437.064,3398.53L436.874,3398.16L436.738,3397.76L436.66,3397.34L436.643,3396.91L436.686,3396.48L446.453,3340.29L453.48,3299.86L453.589,3299.43L453.759,3299.02L453.987,3298.66L454.265,3298.34L454.586,3298.08L454.94,3297.88L455.319,3297.75L455.711,3297.7L456.105,3297.72L456.418,3297.77L456.692,3297.8L456.969,3297.82L457.242,3297.82L457.348,3297.82L457.448,3297.81L457.548,3297.8L457.651,3297.78L457.756,3297.75L457.864,3297.71L457.976,3297.67L458.09,3297.62L458.208,3297.57L458.329,3297.5L458.453,3297.43L458.579,3297.35L458.708,3297.26L458.84,3297.16L458.973,3297.05L459.108,3296.94L459.245,3296.81L459.382,3296.68L459.52,3296.54L459.658,3296.39L459.797,3296.24L459.936,3296.07L460.074,3295.9L460.211,3295.72L460.348,3295.54L460.483,3295.35L460.617,3295.15L460.749,3294.95L460.88,3294.74L461.009,3294.53L461.136,3294.31L461.261,3294.09L461.383,3293.86L461.502,3293.63L461.619,3293.4L461.734,3293.16L461.845,3292.93L461.953,3292.69L462.058,3292.45L462.159,3292.2L462.258,3291.96L462.352,3291.71L462.443,3291.47L462.531,3291.22L462.614,3290.98L462.694,3290.74L462.77,3290.49L462.841,3290.25L462.909,3290.01L462.972,3289.78L463.031,3289.54L463.085,3289.31L463.135,3289.09L463.181,3288.87L463.222,3288.65L463.259,3288.44L463.291,3288.23L463.318,3288.03L463.341,3287.84L463.36,3287.65L463.374,3287.48L463.384,3287.31L463.39,3287.15L463.392,3286.96L463.433,3286.5L463.543,3286.06L463.719,3285.64L463.955,3285.26L464.245,3284.94L464.58,3284.68L464.95,3284.48L465.344,3284.36L465.75,3284.32L485.25,3284.32L485.656,3284.36L486.05,3284.48L486.42,3284.68L486.755,3284.94L487.045,3285.26L487.281,3285.64L487.457,3286.06L487.567,3286.5L487.608,3286.96L487.61,3287.15L487.616,3287.31L487.626,3287.48L487.64,3287.65L487.659,3287.84L487.682,3288.03L487.709,3288.23L487.741,3288.44L487.778,3288.65L487.819,3288.87L487.865,3289.09L487.915,3289.31L487.969,3289.54L488.028,3289.78L488.091,3290.01L488.159,3290.25L488.23,3290.49L488.306,3290.74L488.386,3290.98L488.469,3291.22L488.557,3291.47L488.648,3291.71L488.742,3291.96L488.841,3292.2L488.942,3292.45L489.047,3292.69L489.155,3292.93L489.266,3293.16L489.381,3293.4L489.498,3293.63L489.617,3293.86L489.739,3294.09L489.864,3294.31L489.991,3294.53L490.12,3294.74L490.251,3294.95L490.383,3295.15L490.517,3295.35L490.652,3295.54L490.789,3295.72L490.926,3295.9L491.064,3296.07L491.203,3296.24L491.342,3296.39L491.48,3296.54L491.618,3296.68L491.755,3296.81L491.892,3296.94L492.027,3297.05L492.16,3297.16L492.292,3297.26L492.421,3297.35L492.547,3297.43L492.671,3297.5L492.792,3297.57L492.91,3297.62L493.024,3297.67L493.136,3297.71L493.244,3297.75L493.349,3297.78L493.452,3297.8L493.552,3297.81L493.652,3297.82L493.758,3297.82L494.031,3297.82L494.308,3297.8L494.582,3297.77L494.895,3297.72L495.289,3297.7L495.681,3297.75L496.06,3297.88ZM467.851,3289.68L467.842,3289.73L467.784,3290.04L467.719,3290.35L467.65,3290.66L467.576,3290.98L467.496,3291.29L467.411,3291.61L467.322,3291.93L467.228,3292.24L467.129,3292.56L467.025,3292.88L466.916,3293.2L466.803,3293.51L466.685,3293.83L466.563,3294.15L466.436,3294.46L466.304,3294.78L466.168,3295.09L466.027,3295.4L465.882,3295.71L465.733,3296.02L465.579,3296.33L465.421,3296.63L465.258,3296.93L465.091,3297.23L464.919,3297.52L464.742,3297.81L464.562,3298.1L464.376,3298.39L464.186,3298.66L463.991,3298.94L463.791,3299.21L463.586,3299.47L463.377,3299.73L463.162,3299.99L462.942,3300.24L462.717,3300.48L462.486,3300.71L462.249,3300.94L462.006,3301.16L461.758,3301.38L461.503,3301.58L461.242,3301.78L460.974,3301.96L460.699,3302.14L460.418,3302.31L460.129,3302.46L459.834,3302.6L459.532,3302.73L459.223,3302.84L458.908,3302.94L458.586,3303.03L458.259,3303.09L457.927,3303.14L457.715,3303.16L450.837,3342.72L441.869,3394.32L509.131,3394.32L504.341,3366.77L493.285,3303.16L493.073,3303.14L492.741,3303.09L492.414,3303.03L492.092,3302.94L491.777,3302.84L491.468,3302.73L491.166,3302.6L490.871,3302.46L490.582,3302.31L490.301,3302.14L490.026,3301.96L489.758,3301.78L489.497,3301.58L489.242,3301.38L488.994,3301.16L488.751,3300.94L488.514,3300.71L488.283,3300.48L488.058,3300.24L487.838,3299.99L487.623,3299.73L487.414,3299.47L487.209,3299.21L487.009,3298.94L486.814,3298.66L486.624,3298.39L486.438,3298.1L486.258,3297.81L486.081,3297.52L485.909,3297.23L485.742,3296.93L485.579,3296.63L485.421,3296.33L485.267,3296.02L485.118,3295.71L484.973,3295.4L484.832,3295.09L484.696,3294.78L484.564,3294.46L484.437,3294.15L484.315,3293.83L484.197,3293.51L484.084,3293.2L483.975,3292.88L483.871,3292.56L483.772,3292.24L483.678,3291.93L483.589,3291.61L483.504,3291.29L483.424,3290.98L483.35,3290.66L483.281,3290.35L483.216,3290.04L483.158,3289.73L483.149,3289.68L467.851,3289.68Z" style="fill:white;"/>
                            </g>
                        </g>
                        <g transform="matrix(1.18462,0,0,1.18462,-176.376,-625.407)">
                            <path d="M951.004,3395.13C951.08,3395.66 951.875,3396.13 952.107,3396.16C951.559,3396.9 951.054,3397.67 950.593,3398.47L950.581,3398.49L950.599,3398.5L950.599,3398.5L949.945,3399.86L949.931,3399.86C949.921,3399.88 949.91,3399.91 949.899,3399.94C949.697,3400.47 949.531,3401.01 949.406,3401.56C948.968,3403.5 949.004,3405.53 949.311,3407.48C949.578,3409.18 950.046,3410.84 950.639,3412.46C951.291,3414.23 952.097,3415.95 953.028,3417.59C953.102,3417.47 953.175,3417.35 953.248,3417.24C953.661,3416.56 954.057,3415.87 954.42,3415.16C955.641,3412.78 956.538,3410.19 956.759,3407.51C956.804,3406.97 956.821,3406.42 956.808,3405.88C956.79,3405.17 956.722,3404.46 956.6,3403.76C956.485,3403.1 956.321,3402.44 956.11,3401.8C956.035,3401.57 955.954,3401.34 955.867,3401.12C956.465,3401.15 956.982,3401.02 957.359,3400.82C957.372,3400.86 957.386,3400.89 957.407,3400.95C957.517,3401.27 957.621,3401.59 957.713,3401.91C957.92,3402.64 958.074,3403.38 958.174,3404.13C958.278,3404.91 958.323,3405.71 958.31,3406.5C958.3,3407.11 958.257,3407.72 958.183,3408.33C957.798,3411.47 956.591,3414.47 955.018,3417.2C954.581,3417.95 954.11,3418.69 953.623,3419.42L953.566,3419.49C953.5,3419.56 953.435,3419.62 953.35,3419.66C953.1,3419.8 952.788,3419.77 952.56,3419.61C952.482,3419.55 952.426,3419.48 952.369,3419.41C952.276,3419.26 952.186,3419.11 952.096,3418.97C951.444,3417.88 950.854,3416.75 950.321,3415.6C949.98,3414.86 949.663,3414.11 949.373,3413.35C949.151,3412.77 948.946,3412.19 948.758,3411.59C948.605,3411.11 948.464,3410.62 948.336,3410.13C948.224,3409.7 948.122,3409.27 948.032,3408.83C947.495,3406.22 947.367,3403.48 948.026,3400.89C948.165,3400.34 948.339,3399.81 948.544,3399.29L948.545,3399.28L948.545,3399.28L949.182,3397.92L949.192,3397.91C949.245,3397.81 949.298,3397.72 949.352,3397.62C949.708,3397.02 950.083,3396.42 950.485,3395.85C950.653,3395.6 950.826,3395.37 951.004,3395.13ZM956.531,3398.92C956.618,3398.89 956.703,3398.85 956.788,3398.82C957.002,3398.72 957.212,3398.62 957.415,3398.5C958.245,3398.03 958.973,3397.4 959.618,3396.7C960.197,3396.07 960.712,3395.38 961.175,3394.66C961.706,3393.84 962.17,3392.97 962.567,3392.08C962.833,3391.47 963.071,3390.86 963.261,3390.23C963.401,3389.76 963.523,3389.28 963.565,3388.8L963.565,3388.8C963.549,3388.8 963.534,3388.8 963.519,3388.8C962.328,3388.97 961.166,3389.32 960.057,3389.78C958.47,3390.44 956.985,3391.35 955.652,3392.43C955.065,3392.91 954.506,3393.42 953.977,3393.96C953.892,3393.81 953.564,3393.29 953,3393C952.955,3392.98 952.911,3392.96 952.871,3392.95C952.927,3392.89 952.983,3392.83 953.04,3392.77C953.738,3392.08 954.476,3391.42 955.263,3390.83C956.763,3389.7 958.423,3388.77 960.189,3388.12C960.858,3387.88 961.542,3387.67 962.238,3387.51C962.776,3387.39 963.32,3387.3 963.87,3387.26C963.931,3387.25 963.991,3387.25 964.052,3387.25C964.159,3387.26 964.261,3387.27 964.363,3387.31C964.451,3387.34 964.535,3387.39 964.61,3387.45C964.663,3387.49 964.712,3387.53 964.755,3387.58C965.07,3387.94 965.094,3388.46 965.06,3388.91C965.053,3389.01 965.043,3389.1 965.03,3389.2C965.011,3389.34 964.988,3389.48 964.961,3389.61C964.924,3389.8 964.881,3389.99 964.833,3390.18C964.78,3390.38 964.722,3390.58 964.659,3390.78C964.577,3391.05 964.487,3391.31 964.392,3391.57C964.006,3392.61 963.527,3393.62 962.974,3394.59C962.394,3395.61 961.727,3396.57 960.958,3397.45C960.114,3398.41 959.135,3399.28 958.004,3399.89C957.75,3400.03 957.489,3400.15 957.222,3400.26L957.17,3400.28C957.17,3400.28 955.678,3400.68 955.678,3400.68C955.574,3400.7 955.47,3400.71 955.366,3400.72C955.277,3400.73 955.188,3400.74 955.099,3400.74C954.499,3400.77 953.897,3400.73 953.301,3400.66C952.709,3400.58 952.121,3400.48 951.541,3400.34C951.229,3400.26 950.92,3400.18 950.615,3400.08C950.882,3399.8 951.046,3399.11 951.134,3398.67C951.9,3398.91 952.686,3399.07 953.481,3399.16C953.729,3399.2 953.978,3399.22 954.228,3399.23C954.444,3399.25 954.66,3399.26 954.877,3399.25L954.947,3399.25L954.996,3399.25L954.994,3399.24L954.994,3399.24C955.603,3399.22 956.084,3399.09 956.523,3398.92L956.531,3398.92ZM947.746,3398.88C947.254,3398.62 946.774,3398.33 946.309,3398.02C944.905,3397.09 943.632,3395.97 942.497,3394.73C941.767,3393.93 941.09,3393.07 940.478,3392.18C940.325,3391.95 940.174,3391.73 940.028,3391.5C939.93,3391.35 939.839,3391.2 939.745,3391.05C939.653,3390.9 939.564,3390.75 939.476,3390.6C939.389,3390.45 939.299,3390.3 939.231,3390.14C939.094,3389.81 939.045,3389.45 939.156,3389.11C939.192,3389.01 939.243,3388.9 939.308,3388.81C939.343,3388.76 939.383,3388.71 939.425,3388.66C939.772,3388.29 940.297,3388.17 940.786,3388.14C940.87,3388.14 940.955,3388.14 941.04,3388.14C941.16,3388.14 941.279,3388.14 941.399,3388.15C941.558,3388.16 941.716,3388.18 941.875,3388.2C942.045,3388.22 942.215,3388.25 942.384,3388.28C942.603,3388.32 942.82,3388.37 943.037,3388.43C943.652,3388.58 944.255,3388.78 944.848,3389C945.53,3389.25 946.198,3389.55 946.85,3389.87C948.288,3390.58 949.657,3391.43 950.928,3392.41C951.396,3392.77 951.847,3393.15 952.288,3393.55C952.289,3393.55 952.291,3393.55 952.292,3393.55C952.587,3393.99 953.33,3394.58 953.372,3394.59C953.377,3394.59 953.383,3394.59 953.391,3394.59L953.379,3394.6C953.496,3394.72 953.611,3394.84 953.726,3394.97C954.229,3395.52 954.706,3396.09 955.146,3396.7C955.507,3397.2 955.841,3397.71 956.149,3398.24L954.656,3398.67C954.428,3398.3 954.188,3397.93 953.932,3397.58C953.467,3396.94 952.956,3396.33 952.412,3395.76L952.409,3395.76C952.348,3395.65 951.463,3394.75 951.332,3394.7L951.332,3394.7C950.392,3393.85 949.368,3393.08 948.294,3392.4C947.149,3391.68 945.939,3391.04 944.68,3390.54C944.025,3390.28 943.357,3390.05 942.673,3389.88C942.157,3389.75 941.631,3389.65 941.099,3389.64C941.039,3389.64 941.04,3389.64 940.98,3389.64C940.883,3389.64 940.787,3389.64 940.69,3389.66L940.671,3389.66C940.912,3390.08 941.163,3390.5 941.429,3390.91C942.302,3392.24 943.315,3393.48 944.457,3394.6C945.483,3395.59 946.615,3396.49 947.847,3397.22C948.088,3397.36 948.334,3397.5 948.583,3397.63L947.746,3398.88Z" style="fill:white;"/>
                        </g>
                        <path d="M976.053,3377C976.052,3377.02 976.049,3377.05 976.046,3377.09L964.814,3439.41C964.791,3439.5 964.764,3439.59 964.714,3439.67C964.568,3439.92 964.302,3440.08 964.02,3440.09C963.955,3440.11 963.892,3440.14 963.828,3440.16C963.332,3440.35 962.861,3440.6 962.417,3440.89C961.411,3441.54 960.524,3442.42 959.982,3443.5C959.891,3443.68 959.811,3443.86 959.741,3444.05C959.579,3444.49 959.477,3444.95 959.436,3445.42C959.419,3445.62 959.415,3445.82 959.414,3446.02L959.409,3446.09C959.403,3446.14 959.396,3446.19 959.383,3446.24C959.369,3446.29 959.345,3446.34 959.322,3446.39C959.217,3446.6 959.012,3446.75 958.789,3446.82C958.713,3446.84 958.638,3446.84 958.56,3446.85L958.147,3446.85C958.049,3446.84 958.02,3446.84 957.93,3446.8C957.794,3446.74 957.693,3446.61 957.659,3446.46C957.651,3446.43 957.651,3446.39 957.647,3446.35L957.647,3445.69L957.659,3445.58L957.671,3445.54C957.675,3445.45 957.682,3445.37 957.689,3445.28C957.699,3445.18 957.71,3445.08 957.722,3444.99C957.75,3444.78 957.783,3444.58 957.827,3444.39C957.928,3443.93 958.076,3443.48 958.268,3443.06C958.925,3441.59 960.076,3440.4 961.411,3439.53C961.953,3439.17 962.528,3438.87 963.131,3438.63L963.177,3438.61L974.283,3377L976.053,3377ZM930.679,3377L941.067,3437.87C941.178,3437.9 941.288,3437.94 941.399,3437.97C941.509,3438.01 941.619,3438.05 941.728,3438.09C943.129,3438.61 944.447,3439.44 945.382,3440.62C945.529,3440.81 945.666,3441 945.79,3441.2C945.948,3441.46 946.087,3441.73 946.204,3442C946.383,3442.42 946.512,3442.87 946.59,3443.32C946.625,3443.52 946.643,3443.73 946.667,3443.93C946.676,3443.98 946.686,3444.03 946.699,3444.08C946.795,3444.41 946.967,3444.72 947.104,3445.03C947.134,3445.1 947.162,3445.18 947.19,3445.25C947.226,3445.35 947.258,3445.46 947.286,3445.57L947.29,3445.59L947.3,3445.69L947.3,3446.35C947.296,3446.39 947.296,3446.43 947.288,3446.46C947.254,3446.61 947.153,3446.74 947.017,3446.8C946.927,3446.84 946.899,3446.84 946.8,3446.85L946.462,3446.85C946.373,3446.85 946.285,3446.84 946.199,3446.81C945.952,3446.74 945.739,3446.56 945.642,3446.31C945.6,3446.21 945.589,3446.1 945.583,3445.98C945.579,3445.95 945.574,3445.93 945.566,3445.9C945.537,3445.79 945.497,3445.7 945.454,3445.6C945.377,3445.43 945.299,3445.27 945.222,3445.1C945.119,3444.86 945.023,3444.62 944.968,3444.36C944.924,3444.16 944.911,3443.95 944.884,3443.75C944.871,3443.66 944.871,3443.66 944.856,3443.57C944.83,3443.43 944.801,3443.29 944.763,3443.16C944.669,3442.82 944.533,3442.49 944.358,3442.18C943.777,3441.16 942.806,3440.42 941.761,3439.92C941.301,3439.7 940.819,3439.52 940.321,3439.4C940.301,3439.4 940.282,3439.4 940.262,3439.39L940.157,3439.39L940.061,3439.36C939.829,3439.3 939.622,3439.15 939.511,3438.93C939.473,3438.86 939.451,3438.78 939.432,3438.7L928.917,3377.08C928.915,3377.05 928.912,3377.02 928.911,3377L930.679,3377Z" style="fill:white;"/>
                    </g>
                    <g transform="matrix(4.3584e-17,-0.71178,0.71178,4.3584e-17,-1498.68,4226.97)">
                        <g transform="matrix(-0.753425,-9.22679e-17,8.1272e-17,-0.663636,1310.75,5631.37)">
                            <g>
                                <path d="M487.61,3287.15L487.616,3287.31L487.626,3287.48L487.64,3287.65L487.659,3287.84L487.682,3288.03L487.709,3288.23L487.741,3288.44L487.778,3288.65L487.819,3288.87L487.865,3289.09L487.915,3289.31L487.969,3289.54L488.028,3289.78L488.091,3290.01L488.159,3290.25L488.23,3290.49L488.306,3290.74L488.386,3290.98L488.469,3291.22L488.557,3291.47L488.648,3291.71L488.742,3291.96L488.841,3292.2L488.942,3292.45L489.047,3292.69L489.155,3292.93L489.266,3293.16L489.381,3293.4L489.498,3293.63L489.617,3293.86L489.739,3294.09L489.864,3294.31L489.991,3294.53L490.12,3294.74L490.251,3294.95L490.383,3295.15L490.517,3295.35L490.652,3295.54L490.789,3295.72L490.926,3295.9L491.064,3296.07L491.203,3296.24L491.342,3296.39L491.48,3296.54L491.618,3296.68L491.755,3296.81L491.892,3296.94L492.027,3297.05L492.16,3297.16L492.292,3297.26L492.421,3297.35L492.547,3297.43L492.671,3297.5L492.792,3297.57L492.91,3297.62L493.024,3297.67L493.136,3297.71L493.244,3297.75L493.349,3297.78L493.452,3297.8L493.552,3297.81L493.652,3297.82L493.758,3297.82L494.031,3297.82L494.308,3297.8L494.582,3297.77L494.895,3297.72L495.289,3297.7L495.681,3297.75L496.06,3297.88L496.414,3298.08L496.735,3298.34L497.013,3298.66L497.241,3299.02L497.411,3299.43L497.52,3299.86L514.314,3396.48L514.357,3396.91L514.34,3397.34L514.262,3397.76L514.126,3398.16L513.936,3398.53L513.696,3398.86L513.412,3399.14L513.092,3399.37L512.744,3399.54L512.377,3399.64L512,3399.68L439,3399.68L438.623,3399.64L438.256,3399.54L437.908,3399.37L437.588,3399.14L437.304,3398.86L437.064,3398.53L436.874,3398.16L436.738,3397.76L436.66,3397.34L436.643,3396.91L436.686,3396.48L446.453,3340.29L453.48,3299.86L453.589,3299.43L453.759,3299.02L453.987,3298.66L454.265,3298.34L454.586,3298.08L454.94,3297.88L455.319,3297.75L455.711,3297.7L456.105,3297.72L456.418,3297.77L456.692,3297.8L456.969,3297.82L457.242,3297.82L457.348,3297.82L457.448,3297.81L457.548,3297.8L457.651,3297.78L457.756,3297.75L457.864,3297.71L457.976,3297.67L458.09,3297.62L458.208,3297.57L458.329,3297.5L458.453,3297.43L458.579,3297.35L458.708,3297.26L458.84,3297.16L458.973,3297.05L459.108,3296.94L459.245,3296.81L459.382,3296.68L459.52,3296.54L459.658,3296.39L459.797,3296.24L459.936,3296.07L460.074,3295.9L460.211,3295.72L460.348,3295.54L460.483,3295.35L460.617,3295.15L460.749,3294.95L460.88,3294.74L461.009,3294.53L461.136,3294.31L461.261,3294.09L461.383,3293.86L461.502,3293.63L461.619,3293.4L461.734,3293.16L461.845,3292.93L461.953,3292.69L462.058,3292.45L462.159,3292.2L462.258,3291.96L462.352,3291.71L462.443,3291.47L462.531,3291.22L462.614,3290.98L462.694,3290.74L462.77,3290.49L462.841,3290.25L462.909,3290.01L462.972,3289.78L463.031,3289.54L463.085,3289.31L463.135,3289.09L463.181,3288.87L463.222,3288.65L463.259,3288.44L463.291,3288.23L463.318,3288.03L463.341,3287.84L463.36,3287.65L463.374,3287.48L463.384,3287.31L463.39,3287.15L463.392,3286.96L463.433,3286.5L463.543,3286.06L463.719,3285.64L463.955,3285.26L464.245,3284.94L464.58,3284.68L464.95,3284.48L465.344,3284.36L465.75,3284.32L485.25,3284.32L485.656,3284.36L486.05,3284.48L486.42,3284.68L486.755,3284.94L487.045,3285.26L487.281,3285.64L487.457,3286.06L487.567,3286.5L487.608,3286.96L487.61,3287.15ZM509.131,3394.32L504.341,3366.77L493.285,3303.16L493.073,3303.14L492.741,3303.09L492.414,3303.03L492.092,3302.94L491.777,3302.84L491.468,3302.73L491.166,3302.6L490.871,3302.46L490.582,3302.31L490.301,3302.14L490.026,3301.96L489.758,3301.78L489.497,3301.58L489.242,3301.38L488.994,3301.16L488.751,3300.94L488.514,3300.71L488.283,3300.48L488.058,3300.24L487.838,3299.99L487.623,3299.73L487.414,3299.47L487.209,3299.21L487.009,3298.94L486.814,3298.66L486.624,3298.39L486.438,3298.1L486.258,3297.81L486.081,3297.52L485.909,3297.23L485.742,3296.93L485.579,3296.63L485.421,3296.33L485.267,3296.02L485.118,3295.71L484.973,3295.4L484.832,3295.09L484.696,3294.78L484.564,3294.46L484.437,3294.15L484.315,3293.83L484.197,3293.51L484.084,3293.2L483.975,3292.88L483.871,3292.56L483.772,3292.24L483.678,3291.93L483.589,3291.61L483.504,3291.29L483.424,3290.98L483.35,3290.66L483.281,3290.35L483.216,3290.04L483.158,3289.73L483.149,3289.68L467.851,3289.68L467.842,3289.73L467.784,3290.04L467.719,3290.35L467.65,3290.66L467.576,3290.98L467.496,3291.29L467.411,3291.61L467.322,3291.93L467.228,3292.24L467.129,3292.56L467.025,3292.88L466.916,3293.2L466.803,3293.51L466.685,3293.83L466.563,3294.15L466.436,3294.46L466.304,3294.78L466.168,3295.09L466.027,3295.4L465.882,3295.71L465.733,3296.02L465.579,3296.33L465.421,3296.63L465.258,3296.93L465.091,3297.23L464.919,3297.52L464.742,3297.81L464.562,3298.1L464.376,3298.39L464.186,3298.66L463.991,3298.94L463.791,3299.21L463.586,3299.47L463.377,3299.73L463.162,3299.99L462.942,3300.24L462.717,3300.48L462.486,3300.71L462.249,3300.94L462.006,3301.16L461.758,3301.38L461.503,3301.58L461.242,3301.78L460.974,3301.96L460.699,3302.14L460.418,3302.31L460.129,3302.46L459.834,3302.6L459.532,3302.73L459.223,3302.84L458.908,3302.94L458.586,3303.03L458.259,3303.09L457.927,3303.14L457.715,3303.16L450.837,3342.72L441.869,3394.32L509.131,3394.32Z" style="fill:white;"/>
                            </g>
                        </g>
                        <g transform="matrix(1.18462,0,0,1.18462,-176.376,-625.407)">
                            <path d="M951.004,3395.13C951.08,3395.66 951.875,3396.13 952.107,3396.16C951.559,3396.9 951.054,3397.67 950.593,3398.47L950.581,3398.49L950.599,3398.5L950.599,3398.5L949.945,3399.86L949.931,3399.86C949.921,3399.88 949.91,3399.91 949.899,3399.94C949.697,3400.47 949.531,3401.01 949.406,3401.56C948.968,3403.5 949.004,3405.53 949.311,3407.48C949.578,3409.18 950.046,3410.84 950.639,3412.46C951.291,3414.23 952.097,3415.95 953.028,3417.59C953.102,3417.47 953.175,3417.35 953.248,3417.24C953.661,3416.56 954.057,3415.87 954.42,3415.16C955.641,3412.78 956.538,3410.19 956.759,3407.51C956.804,3406.97 956.821,3406.42 956.808,3405.88C956.79,3405.17 956.722,3404.46 956.6,3403.76C956.485,3403.1 956.321,3402.44 956.11,3401.8C956.035,3401.57 955.954,3401.34 955.867,3401.12C956.465,3401.15 956.982,3401.02 957.359,3400.82C957.372,3400.86 957.386,3400.89 957.407,3400.95C957.517,3401.27 957.621,3401.59 957.713,3401.91C957.92,3402.64 958.074,3403.38 958.174,3404.13C958.278,3404.91 958.323,3405.71 958.31,3406.5C958.3,3407.11 958.257,3407.72 958.183,3408.33C957.798,3411.47 956.591,3414.47 955.018,3417.2C954.581,3417.95 954.11,3418.69 953.623,3419.42L953.566,3419.49C953.5,3419.56 953.435,3419.62 953.35,3419.66C953.1,3419.8 952.788,3419.77 952.56,3419.61C952.482,3419.55 952.426,3419.48 952.369,3419.41C952.276,3419.26 952.186,3419.11 952.096,3418.97C951.444,3417.88 950.854,3416.75 950.321,3415.6C949.98,3414.86 949.663,3414.11 949.373,3413.35C949.151,3412.77 948.946,3412.19 948.758,3411.59C948.605,3411.11 948.464,3410.62 948.336,3410.13C948.224,3409.7 948.122,3409.27 948.032,3408.83C947.495,3406.22 947.367,3403.48 948.026,3400.89C948.165,3400.34 948.339,3399.81 948.544,3399.29L948.545,3399.28L948.545,3399.28L949.182,3397.92L949.192,3397.91C949.245,3397.81 949.298,3397.72 949.352,3397.62C949.708,3397.02 950.083,3396.42 950.485,3395.85C950.653,3395.6 950.826,3395.37 951.004,3395.13ZM956.531,3398.92C956.618,3398.89 956.703,3398.85 956.788,3398.82C957.002,3398.72 957.212,3398.62 957.415,3398.5C958.245,3398.03 958.973,3397.4 959.618,3396.7C960.197,3396.07 960.712,3395.38 961.175,3394.66C961.706,3393.84 962.17,3392.97 962.567,3392.08C962.833,3391.47 963.071,3390.86 963.261,3390.23C963.401,3389.76 963.523,3389.28 963.565,3388.8L963.565,3388.8C963.549,3388.8 963.534,3388.8 963.519,3388.8C962.328,3388.97 961.166,3389.32 960.057,3389.78C958.47,3390.44 956.985,3391.35 955.652,3392.43C955.065,3392.91 954.506,3393.42 953.977,3393.96C953.892,3393.81 953.564,3393.29 953,3393C952.955,3392.98 952.911,3392.96 952.871,3392.95C952.927,3392.89 952.983,3392.83 953.04,3392.77C953.738,3392.08 954.476,3391.42 955.263,3390.83C956.763,3389.7 958.423,3388.77 960.189,3388.12C960.858,3387.88 961.542,3387.67 962.238,3387.51C962.776,3387.39 963.32,3387.3 963.87,3387.26C963.931,3387.25 963.991,3387.25 964.052,3387.25C964.159,3387.26 964.261,3387.27 964.363,3387.31C964.451,3387.34 964.535,3387.39 964.61,3387.45C964.663,3387.49 964.712,3387.53 964.755,3387.58C965.07,3387.94 965.094,3388.46 965.06,3388.91C965.053,3389.01 965.043,3389.1 965.03,3389.2C965.011,3389.34 964.988,3389.48 964.961,3389.61C964.924,3389.8 964.881,3389.99 964.833,3390.18C964.78,3390.38 964.722,3390.58 964.659,3390.78C964.577,3391.05 964.487,3391.31 964.392,3391.57C964.006,3392.61 963.527,3393.62 962.974,3394.59C962.394,3395.61 961.727,3396.57 960.958,3397.45C960.114,3398.41 959.135,3399.28 958.004,3399.89C957.75,3400.03 957.489,3400.15 957.222,3400.26L957.17,3400.28C957.17,3400.28 955.678,3400.68 955.678,3400.68C955.574,3400.7 955.47,3400.71 955.366,3400.72C955.277,3400.73 955.188,3400.74 955.099,3400.74C954.499,3400.77 953.897,3400.73 953.301,3400.66C952.709,3400.58 952.121,3400.48 951.541,3400.34C951.229,3400.26 950.92,3400.18 950.615,3400.08C950.882,3399.8 951.046,3399.11 951.134,3398.67C951.9,3398.91 952.686,3399.07 953.481,3399.16C953.729,3399.2 953.978,3399.22 954.228,3399.23C954.444,3399.25 954.66,3399.26 954.877,3399.25L954.947,3399.25L954.996,3399.25L954.994,3399.24L954.994,3399.24C955.603,3399.22 956.084,3399.09 956.523,3398.92L956.531,3398.92ZM947.746,3398.88C947.254,3398.62 946.774,3398.33 946.309,3398.02C944.905,3397.09 943.632,3395.97 942.497,3394.73C941.767,3393.93 941.09,3393.07 940.478,3392.18C940.325,3391.95 940.174,3391.73 940.028,3391.5C939.93,3391.35 939.839,3391.2 939.745,3391.05C939.653,3390.9 939.564,3390.75 939.476,3390.6C939.389,3390.45 939.299,3390.3 939.231,3390.14C939.094,3389.81 939.045,3389.45 939.156,3389.11C939.192,3389.01 939.243,3388.9 939.308,3388.81C939.343,3388.76 939.383,3388.71 939.425,3388.66C939.772,3388.29 940.297,3388.17 940.786,3388.14C940.87,3388.14 940.955,3388.14 941.04,3388.14C941.16,3388.14 941.279,3388.14 941.399,3388.15C941.558,3388.16 941.716,3388.18 941.875,3388.2C942.045,3388.22 942.215,3388.25 942.384,3388.28C942.603,3388.32 942.82,3388.37 943.037,3388.43C943.652,3388.58 944.255,3388.78 944.848,3389C945.53,3389.25 946.198,3389.55 946.85,3389.87C948.288,3390.58 949.657,3391.43 950.928,3392.41C951.396,3392.77 951.847,3393.15 952.288,3393.55C952.289,3393.55 952.291,3393.55 952.292,3393.55C952.587,3393.99 953.33,3394.58 953.372,3394.59C953.377,3394.59 953.383,3394.59 953.391,3394.59L953.379,3394.6C953.496,3394.72 953.611,3394.84 953.726,3394.97C954.229,3395.52 954.706,3396.09 955.146,3396.7C955.507,3397.2 955.841,3397.71 956.149,3398.24L954.656,3398.67C954.428,3398.3 954.188,3397.93 953.932,3397.58C953.467,3396.94 952.956,3396.33 952.412,3395.76L952.409,3395.76C952.348,3395.65 951.463,3394.75 951.332,3394.7L951.332,3394.7C950.392,3393.85 949.368,3393.08 948.294,3392.4C947.149,3391.68 945.939,3391.04 944.68,3390.54C944.025,3390.28 943.357,3390.05 942.673,3389.88C942.157,3389.75 941.631,3389.65 941.099,3389.64C941.039,3389.64 941.04,3389.64 940.98,3389.64C940.883,3389.64 940.787,3389.64 940.69,3389.66L940.671,3389.66C940.912,3390.08 941.163,3390.5 941.429,3390.91C942.302,3392.24 943.315,3393.48 944.457,3394.6C945.483,3395.59 946.615,3396.49 947.847,3397.22C948.088,3397.36 948.334,3397.5 948.583,3397.63L947.746,3398.88Z" style="fill:white;"/>
                        </g>
                        <path d="M976.053,3377C976.052,3377.02 976.049,3377.05 976.046,3377.09L964.814,3439.41C964.791,3439.5 964.764,3439.59 964.714,3439.67C964.568,3439.92 964.302,3440.08 964.02,3440.09C963.955,3440.11 963.892,3440.14 963.828,3440.16C963.332,3440.35 962.861,3440.6 962.417,3440.89C961.411,3441.54 960.524,3442.42 959.982,3443.5C959.891,3443.68 959.811,3443.86 959.741,3444.05C959.579,3444.49 959.477,3444.95 959.436,3445.42C959.419,3445.62 959.415,3445.82 959.414,3446.02L959.409,3446.09C959.403,3446.14 959.396,3446.19 959.383,3446.24C959.369,3446.29 959.345,3446.34 959.322,3446.39C959.217,3446.6 959.012,3446.75 958.789,3446.82C958.713,3446.84 958.638,3446.84 958.56,3446.85L958.147,3446.85C958.049,3446.84 958.02,3446.84 957.93,3446.8C957.794,3446.74 957.693,3446.61 957.659,3446.46C957.651,3446.43 957.651,3446.39 957.647,3446.35L957.647,3445.69L957.659,3445.58L957.671,3445.54C957.675,3445.45 957.682,3445.37 957.689,3445.28C957.699,3445.18 957.71,3445.08 957.722,3444.99C957.75,3444.78 957.783,3444.58 957.827,3444.39C957.928,3443.93 958.076,3443.48 958.268,3443.06C958.925,3441.59 960.076,3440.4 961.411,3439.53C961.953,3439.17 962.528,3438.87 963.131,3438.63L963.177,3438.61L974.283,3377L976.053,3377ZM930.679,3377L941.067,3437.87C941.178,3437.9 941.288,3437.94 941.399,3437.97C941.509,3438.01 941.619,3438.05 941.728,3438.09C943.129,3438.61 944.447,3439.44 945.382,3440.62C945.529,3440.81 945.666,3441 945.79,3441.2C945.948,3441.46 946.087,3441.73 946.204,3442C946.383,3442.42 946.512,3442.87 946.59,3443.32C946.625,3443.52 946.643,3443.73 946.667,3443.93C946.676,3443.98 946.686,3444.03 946.699,3444.08C946.795,3444.41 946.967,3444.72 947.104,3445.03C947.134,3445.1 947.162,3445.18 947.19,3445.25C947.226,3445.35 947.258,3445.46 947.286,3445.57L947.29,3445.59L947.3,3445.69L947.3,3446.35C947.296,3446.39 947.296,3446.43 947.288,3446.46C947.254,3446.61 947.153,3446.74 947.017,3446.8C946.927,3446.84 946.899,3446.84 946.8,3446.85L946.462,3446.85C946.373,3446.85 946.285,3446.84 946.199,3446.81C945.952,3446.74 945.739,3446.56 945.642,3446.31C945.6,3446.21 945.589,3446.1 945.583,3445.98C945.579,3445.95 945.574,3445.93 945.566,3445.9C945.537,3445.79 945.497,3445.7 945.454,3445.6C945.377,3445.43 945.299,3445.27 945.222,3445.1C945.119,3444.86 945.023,3444.62 944.968,3444.36C944.924,3444.16 944.911,3443.95 944.884,3443.75C944.871,3443.66 944.871,3443.66 944.856,3443.57C944.83,3443.43 944.801,3443.29 944.763,3443.16C944.669,3442.82 944.533,3442.49 944.358,3442.18C943.777,3441.16 942.806,3440.42 941.761,3439.92C941.301,3439.7 940.819,3439.52 940.321,3439.4C940.301,3439.4 940.282,3439.4 940.262,3439.39L940.157,3439.39L940.061,3439.36C939.829,3439.3 939.622,3439.15 939.511,3438.93C939.473,3438.86 939.451,3438.78 939.432,3438.7L928.917,3377.08C928.915,3377.05 928.912,3377.02 928.911,3377L930.679,3377Z" style="fill:white;"/>
                    </g>
                    <g transform="matrix(4.3584e-17,0.71178,-0.71178,4.3584e-17,3430.68,2871.03)">
                        <g transform="matrix(-0.753425,-9.22679e-17,8.1272e-17,-0.663636,1310.75,5631.37)">
                            <g>
                                <path d="M487.616,3287.31L487.626,3287.48L487.64,3287.65L487.659,3287.84L487.682,3288.03L487.709,3288.23L487.741,3288.44L487.778,3288.65L487.819,3288.87L487.865,3289.09L487.915,3289.31L487.969,3289.54L488.028,3289.78L488.091,3290.01L488.159,3290.25L488.23,3290.49L488.306,3290.74L488.386,3290.98L488.469,3291.22L488.557,3291.47L488.648,3291.71L488.742,3291.96L488.841,3292.2L488.942,3292.45L489.047,3292.69L489.155,3292.93L489.266,3293.16L489.381,3293.4L489.498,3293.63L489.617,3293.86L489.739,3294.09L489.864,3294.31L489.991,3294.53L490.12,3294.74L490.251,3294.95L490.383,3295.15L490.517,3295.35L490.652,3295.54L490.789,3295.72L490.926,3295.9L491.064,3296.07L491.203,3296.24L491.342,3296.39L491.48,3296.54L491.618,3296.68L491.755,3296.81L491.892,3296.94L492.027,3297.05L492.16,3297.16L492.292,3297.26L492.421,3297.35L492.547,3297.43L492.671,3297.5L492.792,3297.57L492.91,3297.62L493.024,3297.67L493.136,3297.71L493.244,3297.75L493.349,3297.78L493.452,3297.8L493.552,3297.81L493.652,3297.82L493.758,3297.82L494.031,3297.82L494.308,3297.8L494.582,3297.77L494.895,3297.72L495.289,3297.7L495.681,3297.75L496.06,3297.88L496.414,3298.08L496.735,3298.34L497.013,3298.66L497.241,3299.02L497.411,3299.43L497.52,3299.86L514.314,3396.48L514.357,3396.91L514.34,3397.34L514.262,3397.76L514.126,3398.16L513.936,3398.53L513.696,3398.86L513.412,3399.14L513.092,3399.37L512.744,3399.54L512.377,3399.64L512,3399.68L439,3399.68L438.623,3399.64L438.256,3399.54L437.908,3399.37L437.588,3399.14L437.304,3398.86L437.064,3398.53L436.874,3398.16L436.738,3397.76L436.66,3397.34L436.643,3396.91L436.686,3396.48L446.453,3340.29L453.48,3299.86L453.589,3299.43L453.759,3299.02L453.987,3298.66L454.265,3298.34L454.586,3298.08L454.94,3297.88L455.319,3297.75L455.711,3297.7L456.105,3297.72L456.418,3297.77L456.692,3297.8L456.969,3297.82L457.242,3297.82L457.348,3297.82L457.448,3297.81L457.548,3297.8L457.651,3297.78L457.756,3297.75L457.864,3297.71L457.976,3297.67L458.09,3297.62L458.208,3297.57L458.329,3297.5L458.453,3297.43L458.579,3297.35L458.708,3297.26L458.84,3297.16L458.973,3297.05L459.108,3296.94L459.245,3296.81L459.382,3296.68L459.52,3296.54L459.658,3296.39L459.797,3296.24L459.936,3296.07L460.074,3295.9L460.211,3295.72L460.348,3295.54L460.483,3295.35L460.617,3295.15L460.749,3294.95L460.88,3294.74L461.009,3294.53L461.136,3294.31L461.261,3294.09L461.383,3293.86L461.502,3293.63L461.619,3293.4L461.734,3293.16L461.845,3292.93L461.953,3292.69L462.058,3292.45L462.159,3292.2L462.258,3291.96L462.352,3291.71L462.443,3291.47L462.531,3291.22L462.614,3290.98L462.694,3290.74L462.77,3290.49L462.841,3290.25L462.909,3290.01L462.972,3289.78L463.031,3289.54L463.085,3289.31L463.135,3289.09L463.181,3288.87L463.222,3288.65L463.259,3288.44L463.291,3288.23L463.318,3288.03L463.341,3287.84L463.36,3287.65L463.374,3287.48L463.384,3287.31L463.39,3287.15L463.392,3286.96L463.433,3286.5L463.543,3286.06L463.719,3285.64L463.955,3285.26L464.245,3284.94L464.58,3284.68L464.95,3284.48L465.344,3284.36L465.75,3284.32L485.25,3284.32L485.656,3284.36L486.05,3284.48L486.42,3284.68L486.755,3284.94L487.045,3285.26L487.281,3285.64L487.457,3286.06L487.567,3286.5L487.608,3286.96L487.61,3287.15L487.616,3287.31ZM504.341,3366.77L493.285,3303.16L493.073,3303.14L492.741,3303.09L492.414,3303.03L492.092,3302.94L491.777,3302.84L491.468,3302.73L491.166,3302.6L490.871,3302.46L490.582,3302.31L490.301,3302.14L490.026,3301.96L489.758,3301.78L489.497,3301.58L489.242,3301.38L488.994,3301.16L488.751,3300.94L488.514,3300.71L488.283,3300.48L488.058,3300.24L487.838,3299.99L487.623,3299.73L487.414,3299.47L487.209,3299.21L487.009,3298.94L486.814,3298.66L486.624,3298.39L486.438,3298.1L486.258,3297.81L486.081,3297.52L485.909,3297.23L485.742,3296.93L485.579,3296.63L485.421,3296.33L485.267,3296.02L485.118,3295.71L484.973,3295.4L484.832,3295.09L484.696,3294.78L484.564,3294.46L484.437,3294.15L484.315,3293.83L484.197,3293.51L484.084,3293.2L483.975,3292.88L483.871,3292.56L483.772,3292.24L483.678,3291.93L483.589,3291.61L483.504,3291.29L483.424,3290.98L483.35,3290.66L483.281,3290.35L483.216,3290.04L483.158,3289.73L483.149,3289.68L467.851,3289.68L467.842,3289.73L467.784,3290.04L467.719,3290.35L467.65,3290.66L467.576,3290.98L467.496,3291.29L467.411,3291.61L467.322,3291.93L467.228,3292.24L467.129,3292.56L467.025,3292.88L466.916,3293.2L466.803,3293.51L466.685,3293.83L466.563,3294.15L466.436,3294.46L466.304,3294.78L466.168,3295.09L466.027,3295.4L465.882,3295.71L465.733,3296.02L465.579,3296.33L465.421,3296.63L465.258,3296.93L465.091,3297.23L464.919,3297.52L464.742,3297.81L464.562,3298.1L464.376,3298.39L464.186,3298.66L463.991,3298.94L463.791,3299.21L463.586,3299.47L463.377,3299.73L463.162,3299.99L462.942,3300.24L462.717,3300.48L462.486,3300.71L462.249,3300.94L462.006,3301.16L461.758,3301.38L461.503,3301.58L461.242,3301.78L460.974,3301.96L460.699,3302.14L460.418,3302.31L460.129,3302.46L459.834,3302.6L459.532,3302.73L459.223,3302.84L458.908,3302.94L458.586,3303.03L458.259,3303.09L457.927,3303.14L457.715,3303.16L450.837,3342.72L441.869,3394.32L509.131,3394.32L504.341,3366.77Z" style="fill:white;"/>
                            </g>
                        </g>
                        <g transform="matrix(1.18462,0,0,1.18462,-176.376,-625.407)">
                            <path d="M951.004,3395.13C951.08,3395.66 951.875,3396.13 952.107,3396.16C951.559,3396.9 951.054,3397.67 950.593,3398.47L950.581,3398.49L950.599,3398.5L950.599,3398.5L949.945,3399.86L949.931,3399.86C949.921,3399.88 949.91,3399.91 949.899,3399.94C949.697,3400.47 949.531,3401.01 949.406,3401.56C948.968,3403.5 949.004,3405.53 949.311,3407.48C949.578,3409.18 950.046,3410.84 950.639,3412.46C951.291,3414.23 952.097,3415.95 953.028,3417.59C953.102,3417.47 953.175,3417.35 953.248,3417.24C953.661,3416.56 954.057,3415.87 954.42,3415.16C955.641,3412.78 956.538,3410.19 956.759,3407.51C956.804,3406.97 956.821,3406.42 956.808,3405.88C956.79,3405.17 956.722,3404.46 956.6,3403.76C956.485,3403.1 956.321,3402.44 956.11,3401.8C956.035,3401.57 955.954,3401.34 955.867,3401.12C956.465,3401.15 956.982,3401.02 957.359,3400.82C957.372,3400.86 957.386,3400.89 957.407,3400.95C957.517,3401.27 957.621,3401.59 957.713,3401.91C957.92,3402.64 958.074,3403.38 958.174,3404.13C958.278,3404.91 958.323,3405.71 958.31,3406.5C958.3,3407.11 958.257,3407.72 958.183,3408.33C957.798,3411.47 956.591,3414.47 955.018,3417.2C954.581,3417.95 954.11,3418.69 953.623,3419.42L953.566,3419.49C953.5,3419.56 953.435,3419.62 953.35,3419.66C953.1,3419.8 952.788,3419.77 952.56,3419.61C952.482,3419.55 952.426,3419.48 952.369,3419.41C952.276,3419.26 952.186,3419.11 952.096,3418.97C951.444,3417.88 950.854,3416.75 950.321,3415.6C949.98,3414.86 949.663,3414.11 949.373,3413.35C949.151,3412.77 948.946,3412.19 948.758,3411.59C948.605,3411.11 948.464,3410.62 948.336,3410.13C948.224,3409.7 948.122,3409.27 948.032,3408.83C947.495,3406.22 947.367,3403.48 948.026,3400.89C948.165,3400.34 948.339,3399.81 948.544,3399.29L948.545,3399.28L948.545,3399.28L949.182,3397.92L949.192,3397.91C949.245,3397.81 949.298,3397.72 949.352,3397.62C949.708,3397.02 950.083,3396.42 950.485,3395.85C950.653,3395.6 950.826,3395.37 951.004,3395.13ZM956.531,3398.92C956.618,3398.89 956.703,3398.85 956.788,3398.82C957.002,3398.72 957.212,3398.62 957.415,3398.5C958.245,3398.03 958.973,3397.4 959.618,3396.7C960.197,3396.07 960.712,3395.38 961.175,3394.66C961.706,3393.84 962.17,3392.97 962.567,3392.08C962.833,3391.47 963.071,3390.86 963.261,3390.23C963.401,3389.76 963.523,3389.28 963.565,3388.8L963.565,3388.8C963.549,3388.8 963.534,3388.8 963.519,3388.8C962.328,3388.97 961.166,3389.32 960.057,3389.78C958.47,3390.44 956.985,3391.35 955.652,3392.43C955.065,3392.91 954.506,3393.42 953.977,3393.96C953.892,3393.81 953.564,3393.29 953,3393C952.955,3392.98 952.911,3392.96 952.871,3392.95C952.927,3392.89 952.983,3392.83 953.04,3392.77C953.738,3392.08 954.476,3391.42 955.263,3390.83C956.763,3389.7 958.423,3388.77 960.189,3388.12C960.858,3387.88 961.542,3387.67 962.238,3387.51C962.776,3387.39 963.32,3387.3 963.87,3387.26C963.931,3387.25 963.991,3387.25 964.052,3387.25C964.159,3387.26 964.261,3387.27 964.363,3387.31C964.451,3387.34 964.535,3387.39 964.61,3387.45C964.663,3387.49 964.712,3387.53 964.755,3387.58C965.07,3387.94 965.094,3388.46 965.06,3388.91C965.053,3389.01 965.043,3389.1 965.03,3389.2C965.011,3389.34 964.988,3389.48 964.961,3389.61C964.924,3389.8 964.881,3389.99 964.833,3390.18C964.78,3390.38 964.722,3390.58 964.659,3390.78C964.577,3391.05 964.487,3391.31 964.392,3391.57C964.006,3392.61 963.527,3393.62 962.974,3394.59C962.394,3395.61 961.727,3396.57 960.958,3397.45C960.114,3398.41 959.135,3399.28 958.004,3399.89C957.75,3400.03 957.489,3400.15 957.222,3400.26L957.17,3400.28C957.17,3400.28 955.678,3400.68 955.678,3400.68C955.574,3400.7 955.47,3400.71 955.366,3400.72C955.277,3400.73 955.188,3400.74 955.099,3400.74C954.499,3400.77 953.897,3400.73 953.301,3400.66C952.709,3400.58 952.121,3400.48 951.541,3400.34C951.229,3400.26 950.92,3400.18 950.615,3400.08C950.882,3399.8 951.046,3399.11 951.134,3398.67C951.9,3398.91 952.686,3399.07 953.481,3399.16C953.729,3399.2 953.978,3399.22 954.228,3399.23C954.444,3399.25 954.66,3399.26 954.877,3399.25L954.947,3399.25L954.996,3399.25L954.994,3399.24L954.994,3399.24C955.603,3399.22 956.084,3399.09 956.523,3398.92L956.531,3398.92ZM947.746,3398.88C947.254,3398.62 946.774,3398.33 946.309,3398.02C944.905,3397.09 943.632,3395.97 942.497,3394.73C941.767,3393.93 941.09,3393.07 940.478,3392.18C940.325,3391.95 940.174,3391.73 940.028,3391.5C939.93,3391.35 939.839,3391.2 939.745,3391.05C939.653,3390.9 939.564,3390.75 939.476,3390.6C939.389,3390.45 939.299,3390.3 939.231,3390.14C939.094,3389.81 939.045,3389.45 939.156,3389.11C939.192,3389.01 939.243,3388.9 939.308,3388.81C939.343,3388.76 939.383,3388.71 939.425,3388.66C939.772,3388.29 940.297,3388.17 940.786,3388.14C940.87,3388.14 940.955,3388.14 941.04,3388.14C941.16,3388.14 941.279,3388.14 941.399,3388.15C941.558,3388.16 941.716,3388.18 941.875,3388.2C942.045,3388.22 942.215,3388.25 942.384,3388.28C942.603,3388.32 942.82,3388.37 943.037,3388.43C943.652,3388.58 944.255,3388.78 944.848,3389C945.53,3389.25 946.198,3389.55 946.85,3389.87C948.288,3390.58 949.657,3391.43 950.928,3392.41C951.396,3392.77 951.847,3393.15 952.288,3393.55C952.289,3393.55 952.291,3393.55 952.292,3393.55C952.587,3393.99 953.33,3394.58 953.372,3394.59C953.377,3394.59 953.383,3394.59 953.391,3394.59L953.379,3394.6C953.496,3394.72 953.611,3394.84 953.726,3394.97C954.229,3395.52 954.706,3396.09 955.146,3396.7C955.507,3397.2 955.841,3397.71 956.149,3398.24L954.656,3398.67C954.428,3398.3 954.188,3397.93 953.932,3397.58C953.467,3396.94 952.956,3396.33 952.412,3395.76L952.409,3395.76C952.348,3395.65 951.463,3394.75 951.332,3394.7L951.332,3394.7C950.392,3393.85 949.368,3393.08 948.294,3392.4C947.149,3391.68 945.939,3391.04 944.68,3390.54C944.025,3390.28 943.357,3390.05 942.673,3389.88C942.157,3389.75 941.631,3389.65 941.099,3389.64C941.039,3389.64 941.04,3389.64 940.98,3389.64C940.883,3389.64 940.787,3389.64 940.69,3389.66L940.671,3389.66C940.912,3390.08 941.163,3390.5 941.429,3390.91C942.302,3392.24 943.315,3393.48 944.457,3394.6C945.483,3395.59 946.615,3396.49 947.847,3397.22C948.088,3397.36 948.334,3397.5 948.583,3397.63L947.746,3398.88Z" style="fill:white;"/>
                        </g>
                        <path d="M976.053,3377C976.052,3377.02 976.049,3377.05 976.046,3377.09L964.814,3439.41C964.791,3439.5 964.764,3439.59 964.714,3439.67C964.568,3439.92 964.302,3440.08 964.02,3440.09C963.955,3440.11 963.892,3440.14 963.828,3440.16C963.332,3440.35 962.861,3440.6 962.417,3440.89C961.411,3441.54 960.524,3442.42 959.982,3443.5C959.891,3443.68 959.811,3443.86 959.741,3444.05C959.579,3444.49 959.477,3444.95 959.436,3445.42C959.419,3445.62 959.415,3445.82 959.414,3446.02L959.409,3446.09C959.403,3446.14 959.396,3446.19 959.383,3446.24C959.369,3446.29 959.345,3446.34 959.322,3446.39C959.217,3446.6 959.012,3446.75 958.789,3446.82C958.713,3446.84 958.638,3446.84 958.56,3446.85L958.147,3446.85C958.049,3446.84 958.02,3446.84 957.93,3446.8C957.794,3446.74 957.693,3446.61 957.659,3446.46C957.651,3446.43 957.651,3446.39 957.647,3446.35L957.647,3445.69L957.659,3445.58L957.671,3445.54C957.675,3445.45 957.682,3445.37 957.689,3445.28C957.699,3445.18 957.71,3445.08 957.722,3444.99C957.75,3444.78 957.783,3444.58 957.827,3444.39C957.928,3443.93 958.076,3443.48 958.268,3443.06C958.925,3441.59 960.076,3440.4 961.411,3439.53C961.953,3439.17 962.528,3438.87 963.131,3438.63L963.177,3438.61L974.283,3377L976.053,3377ZM930.679,3377L941.067,3437.87C941.178,3437.9 941.288,3437.94 941.399,3437.97C941.509,3438.01 941.619,3438.05 941.728,3438.09C943.129,3438.61 944.447,3439.44 945.382,3440.62C945.529,3440.81 945.666,3441 945.79,3441.2C945.948,3441.46 946.087,3441.73 946.204,3442C946.383,3442.42 946.512,3442.87 946.59,3443.32C946.625,3443.52 946.643,3443.73 946.667,3443.93C946.676,3443.98 946.686,3444.03 946.699,3444.08C946.795,3444.41 946.967,3444.72 947.104,3445.03C947.134,3445.1 947.162,3445.18 947.19,3445.25C947.226,3445.35 947.258,3445.46 947.286,3445.57L947.29,3445.59L947.3,3445.69L947.3,3446.35C947.296,3446.39 947.296,3446.43 947.288,3446.46C947.254,3446.61 947.153,3446.74 947.017,3446.8C946.927,3446.84 946.899,3446.84 946.8,3446.85L946.462,3446.85C946.373,3446.85 946.285,3446.84 946.199,3446.81C945.952,3446.74 945.739,3446.56 945.642,3446.31C945.6,3446.21 945.589,3446.1 945.583,3445.98C945.579,3445.95 945.574,3445.93 945.566,3445.9C945.537,3445.79 945.497,3445.7 945.454,3445.6C945.377,3445.43 945.299,3445.27 945.222,3445.1C945.119,3444.86 945.023,3444.62 944.968,3444.36C944.924,3444.16 944.911,3443.95 944.884,3443.75C944.871,3443.66 944.871,3443.66 944.856,3443.57C944.83,3443.43 944.801,3443.29 944.763,3443.16C944.669,3442.82 944.533,3442.49 944.358,3442.18C943.777,3441.16 942.806,3440.42 941.761,3439.92C941.301,3439.7 940.819,3439.52 940.321,3439.4C940.301,3439.4 940.282,3439.4 940.262,3439.39L940.157,3439.39L940.061,3439.36C939.829,3439.3 939.622,3439.15 939.511,3438.93C939.473,3438.86 939.451,3438.78 939.432,3438.7L928.917,3377.08C928.915,3377.05 928.912,3377.02 928.911,3377L930.679,3377Z" style="fill:white;"/>
                    </g>
                </g>
                <circle cx="966" cy="3549" r="61" style="fill:none;stroke:white;stroke-width:5.06px;"/>
                <g transform="matrix(0.799884,0,0,0.799884,247.385,707.451)">
                    <circle cx="897.493" cy="3552.45" r="12.493" style="fill:white;"/>
                </g>
            </g>
        </g>
    </g>
</svg>
