<?xml version="1.0" encoding="UTF-8" standalone="no"?>
<!DOCTYPE svg PUBLIC "-//W3C//DTD SVG 1.1//EN" "http://www.w3.org/Graphics/SVG/1.1/DTD/svg11.dtd">
<svg width="100%" height="100%" viewBox="0 0 100 100" version="1.1" xmlns="http://www.w3.org/2000/svg" xmlns:xlink="http://www.w3.org/1999/xlink" xml:space="preserve" xmlns:serif="http://www.serif.com/" style="fill-rule:evenodd;clip-rule:evenodd;stroke-linejoin:round;stroke-miterlimit:1.41421;">
    <g transform="matrix(0.214956,0,0,0.214956,-44.3385,-18.058)">
        <g transform="matrix(3.68222,0,0,3.68222,-3118.24,-12751.6)">
            <circle cx="966" cy="3549" r="61" style="fill:none;"/>
            <clipPath id="_clip1">
                <circle cx="966" cy="3549" r="61"/>
            </clipPath>
            <g clip-path="url(#_clip1)">
                <g transform="matrix(0.271575,0,0,0.271575,731.192,3437.01)">
                    <path d="M828.938,419.773C829.774,419.82 829.77,419.867 830.176,420.001C831.596,420.472 832.763,421.684 832.991,423.22L833.022,424.748C832.788,427.205 830.529,429.037 827.971,429.178C823.591,430.237 823.359,430.165 820.449,430.792C816.97,431.542 813.87,434.124 812.702,437.401C812.702,437.401 812.433,438.38 812.433,438.38C811.73,440.036 810.129,441.103 808.309,441.428L640.494,462.43C639.449,462.484 639.444,462.468 638.855,462.225C637.805,461.791 637.134,461.267 637,459.451L637,455.924C637.159,453.733 637.614,453.349 639.627,452.948L803.569,432.43C803.661,432.254 803.755,432.079 803.851,431.905C807.28,425.761 813.85,421.707 821.005,421.105C823.066,420.931 824.686,419.916 826.759,419.762L828.776,419.762C828.83,419.765 828.884,419.769 828.938,419.773ZM640.214,362.402L640.527,362.421L810.251,384.856C811.134,385.018 811.274,385.075 811.726,385.276C813.073,385.873 814.054,386.759 814.526,388.446C814.526,388.446 819.946,395.558 827.864,395.593C827.864,395.593 832.968,396.768 833.036,400.298C833.055,401.284 834.398,401.107 832.019,403.703C831.012,404.802 828.777,405.12 828.777,405.12L826.118,405.059C818.087,404.721 810.282,400.671 805.895,394.044L805.78,393.867L639.607,371.901C637.466,371.459 637.147,370.965 637,368.927L637,365.395C637.181,362.941 637.842,362.289 640.214,362.402ZM814.566,388.617L814.627,388.973C814.627,388.973 814.531,388.468 814.566,388.617Z" style="fill:white;"/>
                </g>
                <g transform="matrix(0.271575,0,0,0.271575,731.192,3437.01)">
                    <path d="M710.272,394.911C722.453,395.056 734.303,400.016 744.478,406.798C744.478,406.798 746.768,408.527 746.194,410.874C745.761,412.646 744.047,413.674 742.507,414.589C727.962,423.181 710.313,429.165 693.952,423.705C693.952,423.705 691.854,427.737 689.602,430.675C684.811,436.925 678.669,442.275 671.813,445.967C668.896,447.538 664.836,446.792 663.543,443.108C662.353,439.717 663.423,436.041 664.419,432.701C666.674,425.139 670.79,418.18 675.883,412.062C675.883,412.062 669.945,406.013 666.482,399.984C663.507,394.806 661.372,389.035 660.963,383.135C660.681,379.062 665.04,377.343 669.479,378.18C672.577,378.765 675.504,380.01 678.382,381.34C685.812,384.776 692.797,389.764 696.528,396.976C696.528,396.976 704.114,394.863 710.272,394.911ZM681.814,417.046C676.918,422.91 672.99,429.692 671.293,437.101L671.271,437.201C677.678,432.968 683.271,427.35 686.943,420.585C686.943,420.585 684.096,418.636 681.877,417.004C681.877,417.004 681.837,417.02 681.814,417.046ZM710.144,402.613C706.243,402.65 702.369,403.311 698.708,404.65C698.945,408.747 698.036,412.819 697.02,416.56C709.298,420.487 723.415,415.748 734.565,410.081L734.85,409.934C727.51,405.627 719.216,402.729 710.708,402.614C710.426,402.612 710.427,402.612 710.144,402.613ZM690.664,408.888C689.533,409.68 688.442,410.523 687.389,411.416C687.617,411.577 687.846,411.736 688.076,411.895C688.849,412.422 689.92,413.111 689.92,413.111C690.432,411.235 691.189,408.525 690.664,408.888ZM669.327,386.305C671.137,393.876 675.534,400.701 681.117,406.211C681.117,406.211 680.748,406.949 681.89,405.921C684.241,403.825 686.745,401.766 689.548,400.433L689.578,400.42C685.763,393.09 677.304,388.131 669.282,386.113C669.297,386.177 669.312,386.241 669.327,386.305Z" style="fill:white;"/>
                </g>
                <g transform="matrix(0.271575,0,0,0.271575,731.192,3437.01)">
                    <path d="M902.91,419.656C902.91,419.656 907.352,419.89 911.085,421.226C916.083,423.015 920.53,426.386 923.42,430.824C923.42,430.824 1089.62,452.839 1089.62,452.839C1089.62,452.839 1092.05,453.338 1092.23,455.813L1092.23,459.345C1092.06,461.694 1090.89,462.022 1089.96,462.254C1088.99,462.499 1088.7,462.319 1088.7,462.319L918.98,439.884C916.974,439.516 915.318,438.475 914.706,436.296C914.706,436.296 909.412,429.184 901.368,429.147C901.368,429.147 896.263,427.977 896.195,424.442C896.177,423.522 895.334,423.945 896.757,421.641C897.704,420.106 900.455,419.621 900.455,419.621L902.484,419.621C902.626,419.632 902.768,419.644 902.91,419.656ZM903.161,419.687L903.409,419.74C903.409,419.74 903.068,419.676 903.161,419.687ZM902.472,404.978L900.455,404.978C899.523,404.916 899.34,404.853 898.859,404.669C897.525,404.159 896.455,402.965 896.241,401.52L896.21,399.992C896.44,397.546 898.67,395.705 901.261,395.562C905.74,394.481 905.949,394.595 908.92,393.917C912.343,393.137 915.376,390.574 916.529,387.339C916.529,387.339 917.845,383.862 920.922,383.312L1088.74,362.31C1089,362.297 1089.26,362.297 1089.52,362.303C1091.73,362.683 1092.08,363.202 1092.23,365.289L1092.23,368.816C1092.07,371.007 1091.62,371.391 1089.6,371.793L925.662,392.31C925.571,392.486 925.476,392.661 925.381,392.836C921.951,398.978 915.383,403.033 908.226,403.635C906.155,403.81 904.542,404.824 902.472,404.978Z" style="fill:white;"/>
                </g>
                <g transform="matrix(0.271575,0,0,0.271575,731.192,3437.01)">
                    <path d="M1060.81,377.83C1063.01,377.947 1064.94,379.487 1065.72,381.69C1067.01,385.372 1065.68,389.465 1064.41,393.389C1062.11,400.527 1058.09,407.02 1053.28,412.758C1053.28,412.758 1055.07,414.498 1056.23,415.797C1062.73,423.056 1067.7,432.203 1068.28,441.821C1068.45,444.565 1065.93,446.881 1062.93,446.987C1060.02,447.09 1057.2,445.952 1054.37,444.905C1045.39,441.585 1036.84,435.806 1032.63,427.611C1031.75,427.936 1031.44,427.995 1030.84,428.171C1015.32,432.703 998.228,426.926 984.753,417.942C984.753,417.942 982.469,416.184 983.038,413.865C983.932,410.214 988.214,409.175 991.961,407.26C1005.12,400.534 1020.62,396.2 1035.18,401.001C1035.18,401.001 1037,397.676 1038.77,395.216C1043.63,388.504 1050.12,382.984 1057.21,378.887C1058.3,378.258 1059.48,377.823 1060.81,377.83ZM1047.9,418.315C1045.38,420.639 1042.71,422.944 1039.65,424.317C1039.65,424.317 1040.89,426.54 1042.4,428.178C1047.06,433.241 1053.32,436.96 1059.95,438.627C1058.17,431.001 1053.75,424.088 1048.11,418.529C1048.11,418.529 1047.95,418.264 1047.9,418.315ZM1022.57,406.795C1012.77,406.875 1003.13,410.302 994.382,414.806C1005.23,421.171 1018.33,424.552 1030.52,420.09C1030.29,416.014 1031.19,411.922 1032.21,408.181C1032.03,408.123 1031.85,408.068 1031.67,408.014C1028.72,407.157 1025.63,406.79 1022.57,406.795ZM1039.3,411.666C1038.84,413.383 1038.41,415.959 1038.41,415.959C1039.6,415.138 1040.74,414.257 1041.84,413.324C1041.62,413.163 1041.38,413.004 1041.15,412.846C1040.33,412.283 1039.35,411.472 1039.3,411.666ZM1057.91,387.574C1051.48,391.854 1045.87,397.474 1042.21,404.294C1042.48,404.455 1042.75,404.619 1043.02,404.784C1044.5,405.706 1045.93,406.69 1047.34,407.723L1047.37,407.749C1052.3,401.887 1056.23,395.093 1057.94,387.639C1057.94,387.639 1058.04,387.49 1057.91,387.574Z" style="fill:white;"/>
                </g>
                <g transform="matrix(0.271575,0,0,0.271575,731.192,3437.01)">
                    <path d="M821.155,640.004L817.623,640.004C815.275,639.83 814.947,638.661 814.714,637.736C814.47,636.765 814.649,636.477 814.649,636.477L837.084,466.753C837.45,464.75 838.488,463.089 840.674,462.478C840.674,462.478 847.782,457.315 847.821,449.14C847.821,449.14 847.876,447.903 848.287,446.937C849.152,444.906 851.352,443.826 853.771,443.997C855.732,444.275 857.222,446.041 857.337,448.067L857.287,450.859L857.287,450.859L857.287,450.859L857.287,450.885C856.954,458.822 852.904,466.797 846.143,471.192C846.143,471.192 824.129,637.397 824.129,637.397C824.129,637.397 823.63,639.825 821.155,640.004ZM911.679,640.004L908.152,640.004C905.961,639.845 905.577,639.39 905.175,637.376L884.658,473.434C884.482,473.343 884.307,473.248 884.132,473.153C878.007,469.733 873.934,463.157 873.333,455.999C873.159,453.93 872.136,452.211 871.989,450.244L871.989,448.228C872.123,446.22 873.32,444.329 875.448,444.013L876.768,443.967C876.837,443.972 876.906,443.977 876.976,443.982C879.436,444.215 881.265,446.473 881.406,449.033C882.484,453.498 882.373,453.723 883.05,456.692C883.831,460.112 886.395,463.148 889.629,464.301C889.629,464.301 893.106,465.62 893.656,468.694L914.658,636.51C914.712,637.555 914.695,637.559 914.452,638.148C914.019,639.199 913.494,639.869 911.679,640.004ZM857.286,450.89C857.296,450.68 857.228,451.181 857.228,451.181L857.286,450.89L857.287,450.859L857.287,450.859L857.286,450.89Z" style="fill:white;"/>
                </g>
                <g transform="matrix(0.271575,0,0,0.271575,731.192,3437.01)">
                    <path d="M862.464,530.703C865.446,530.897 866.923,534.545 868.62,537.674C876.166,551.593 880.89,568.197 875.933,583.051C875.933,583.051 879.211,584.726 881.555,586.405C888.334,591.259 893.889,597.772 898.082,604.989C899.776,607.969 899.099,612.139 895.336,613.46C892.129,614.586 888.55,613.643 885.142,612.648C877.49,610.414 870.463,606.258 864.29,601.121C864.29,601.121 862.278,603.043 860.622,604.486C853.605,610.603 844.974,615.216 835.721,616.013C832.838,616.261 830.099,614.062 829.981,610.703C829.882,607.887 830.966,605.159 831.958,602.425C835.259,593.324 841.103,584.639 849.359,580.404C843.906,565.668 849.634,546.573 858.87,532.758C860.606,530.162 860.963,530.689 862.464,530.703ZM852.627,587.402C845.271,591.257 840.358,599.7 838.341,607.721C846.014,605.935 853.053,601.495 858.343,595.983C858.692,595.619 859.145,596.235 858.13,595.098C856.041,592.733 853.932,590.283 852.651,587.426C852.651,587.426 852.648,587.391 852.627,587.402ZM872.594,590.118C871.555,591.835 870.432,593.496 869.245,595.109L869.22,595.143C875.081,600.073 881.875,604.003 889.329,605.711L889.429,605.733C885.195,599.327 879.578,593.734 872.812,590.06C872.812,590.06 872.745,589.866 872.594,590.118ZM861.085,586.286C862.027,587.707 863.641,589.619 863.641,589.619C864.377,588.575 865.339,587.082 865.339,587.082C863.481,586.569 860.796,585.841 861.085,586.286ZM858.809,578.255C862.247,578.327 865.77,579.166 868.787,579.984C872.724,567.634 868.075,553.637 862.162,542.154C855.797,553 852.417,566.098 856.878,578.295C857.088,578.283 857.298,578.274 857.508,578.266C857.941,578.252 858.375,578.249 858.809,578.255Z" style="fill:white;"/>
                </g>
                <g transform="matrix(0.271575,0,0,0.271575,731.192,3437.01)">
                    <path d="M912.048,184.805C914.23,185.295 914.553,185.83 914.604,187.919C914.594,188.134 914.583,188.299 914.583,188.299L892.147,358.023C891.78,360.031 890.721,361.691 888.559,362.298C888.559,362.298 881.446,367.591 881.411,375.636C881.411,375.636 880.237,380.74 876.706,380.809C875.713,380.828 875.926,382.197 873.3,379.791C872.202,378.784 871.884,376.549 871.884,376.549L871.945,373.89C872.282,365.848 876.36,357.963 883.088,353.584C883.088,353.584 905.103,187.379 905.103,187.379C905.103,187.379 905.601,184.951 908.077,184.772L911.608,184.772C911.755,184.783 911.902,184.794 912.048,184.805ZM821.512,184.804C823.477,185.237 823.69,185.563 824.056,187.4L844.573,351.342C844.75,351.433 844.925,351.527 845.099,351.623C851.217,355.04 855.296,361.622 855.899,368.777C856.051,370.592 856.873,372.05 857.17,373.805C857.211,374.045 857.224,374.289 857.242,374.531L857.242,376.549C857.182,377.434 857.129,377.597 856.968,378.047C856.478,379.424 855.267,380.543 853.783,380.763L852.255,380.794C849.797,380.56 847.969,378.329 847.825,375.743C846.725,371.185 846.858,371.057 846.181,368.083C845.4,364.659 842.838,361.629 839.602,360.475L838.624,360.206C836.968,359.503 835.9,357.899 835.576,356.082L814.574,188.266C814.519,187.222 814.536,187.217 814.779,186.628C815.213,185.577 815.737,184.906 817.552,184.772L821.079,184.772C821.223,184.783 821.367,184.793 821.512,184.804ZM871.949,373.805C871.917,374.44 872.114,373.163 871.949,373.805ZM888.386,362.338L888.033,362.399C888.033,362.399 888.533,362.304 888.386,362.338Z" style="fill:white;"/>
                </g>
                <g transform="matrix(0.271575,0,0,0.271575,731.192,3437.01)">
                    <path d="M837.245,210.916C844.657,211.099 851.796,214.72 857.855,218.51C860.353,220.073 862.735,221.814 864.997,223.702C864.997,223.702 867.067,221.619 868.818,220.105C875.988,213.907 884.892,209.217 894.269,208.711C897.047,208.561 899.151,211.241 899.25,214.073C899.35,216.888 898.265,219.617 897.273,222.351C894.001,231.372 888.297,239.949 879.998,244.306C879.998,244.306 881.587,249.441 881.97,254.359C883.014,267.761 877.671,281.168 870.109,292.393C868.477,294.675 868.826,294.627 866.128,293.966C863.109,293.226 861.905,289.55 860.212,286.358C852.93,272.629 848.407,256.383 853.299,241.725C853.299,241.725 849.812,239.93 847.337,238.13C840.782,233.362 835.411,227.083 831.315,220.073C829.974,217.731 829.662,214.58 831.692,212.636C833.14,211.251 834.922,210.874 837.245,210.916ZM860.443,244.886C856.537,257.368 861.234,271.357 867.029,282.555L867.066,282.626C873.411,271.815 876.814,258.679 872.353,246.48C868.421,246.707 864.495,245.976 860.723,244.854C860.59,244.83 860.493,244.73 860.443,244.886ZM865.482,235.31C864.936,236.093 864.406,236.886 863.893,237.692C864.126,237.754 864.359,237.815 864.592,237.874C865.787,238.17 866.993,238.416 868.212,238.574C868.054,238.345 867.893,238.118 867.731,237.891C866.802,236.608 865.827,234.821 865.482,235.31ZM890.699,217.099C883.162,218.901 876.377,223.278 870.927,228.753C870.927,228.753 870.06,228.527 871.082,229.663C873.189,232.026 875.3,234.506 876.581,237.35L876.581,237.351C882.142,234.449 885.927,228.734 888.777,222.791C889.66,220.951 890.394,219.037 890.89,217.055C890.826,217.07 890.762,217.084 890.699,217.099ZM839.837,219.096C844.141,225.555 849.775,231.154 856.558,234.79C856.719,234.521 856.882,234.254 857.047,233.987C857.969,232.51 858.953,231.071 859.987,229.667L860.011,229.633C854.161,224.709 847.357,220.774 839.902,219.065C839.902,219.065 839.754,218.969 839.837,219.096Z" style="fill:white;"/>
                </g>
                <g transform="matrix(0.271575,0,0,0.271575,731.192,3437.01)">
                    <path d="M1042.01,458.617L1043.22,459.388L1043.44,460.807C1026.66,522.684 974.873,574.486 913.415,591.019L912.316,591.153L911.12,590.363L910.865,589.676L910.53,587.359C910.53,587.359 910.484,586.239 911.23,585.695C912.094,585.065 913.322,584.999 914.486,584.664C943.098,576.311 969.557,561.225 990.624,540.48C1013.04,518.409 1029.29,490.398 1037.8,459.936C1037.8,459.936 1038.18,458.365 1039.84,458.304C1040.56,458.408 1041.29,458.513 1042.01,458.617ZM689.992,458.367C691.399,458.964 691.624,460.845 692.111,462.569C708.822,521.071 757.842,569.248 817.385,585.789C817.385,585.789 818.771,586.463 818.648,587.725C818.518,589.066 818.546,589.079 818.138,590.181L816.941,590.971C816.941,590.971 813.087,590.098 810.355,589.276C752.258,571.792 704.833,523.306 687.209,464.952C686.949,464.094 686.696,463.234 686.45,462.373C686.233,461.617 686.016,460.877 685.969,460.085L686.757,458.877L687.448,458.62L689.36,458.343C689.571,458.351 689.782,458.359 689.992,458.367ZM733.37,452.084C734.659,452.608 734.612,453.07 734.778,453.599C734.913,454.03 735.05,454.459 735.188,454.888C748.603,496.135 781.899,528.811 823.751,542.282C823.751,542.282 824.881,542.132 824.947,544.198L824.67,546.114L823.863,547.349L822.399,547.528C779.945,533.798 744.138,500.18 730.09,457.382C729.922,456.871 729.757,456.359 729.596,455.846C729.587,455.817 729.22,454.65 729.214,454.617C729.062,453.79 729.408,453.167 729.408,453.167L730.636,452.371L732.755,452.064C732.96,452.071 733.165,452.077 733.37,452.084ZM998.493,452.32L999.722,453.117L999.915,454.569C986.703,497.335 952.592,532.077 909.579,546.712C909.009,546.906 908.438,547.096 907.867,547.282C906.755,547.645 905.378,547.43 905.378,547.43L904.574,546.197L904.271,544.108C904.271,544.108 903.837,542.772 907.919,541.371C948.5,527.304 982.181,493.576 994.682,453.261C994.682,453.261 994.468,452.117 996.604,452.047C997.234,452.138 997.863,452.229 998.493,452.32ZM906.837,277.241C949.337,291.085 985.332,325.564 999.285,367.559C1000.4,370.928 1000.13,370.412 1000.17,370.851L999.385,372.093L998.682,372.357L996.412,372.686C996.412,372.686 995.092,373.218 993.624,368.758C980.163,328.192 946.332,295.443 905.499,282.385C905.499,282.385 904.178,281.693 904.3,280.467C904.437,279.106 904.398,279.089 904.83,277.948L906.084,277.168C906.335,277.193 906.586,277.217 906.837,277.241ZM823.839,277.238L824.642,278.47L824.959,280.66C824.959,280.66 826.038,281.755 820.956,283.526C780.656,297.73 747.305,330.641 734.461,371.474C734.461,371.474 733.777,372.802 732.541,372.681C731.23,372.552 731.216,372.582 730.112,372.168L729.329,370.932C729.329,370.932 730.186,367.589 731.003,365.222C745.26,323.915 779.641,290.845 821.718,277.264C821.718,277.264 821.918,276.552 823.839,277.238ZM817.589,233.851L818.361,235.063L818.673,237.223C818.673,237.223 819.151,238.63 814.721,239.931C774.458,251.866 738.337,277.675 715.17,312.534C704.481,328.616 696.593,346.474 691.572,365.193C691.572,365.193 691.847,366.388 689.631,366.472L687.467,366.158L686.252,365.382L686.032,363.956C699.38,316.085 731.637,273.933 775.62,249.904C788.028,243.125 801.305,237.769 814.808,234C815.68,233.757 816.463,233.415 817.589,233.851ZM913.048,233.788C960.792,247.063 1003.1,279.42 1026.93,323.24C1033.67,335.624 1038.96,348.772 1042.74,362.35C1042.95,363.117 1043.17,363.867 1043.21,364.671L1042.42,365.872L1041.73,366.127L1039.12,366.392C1037.72,365.807 1037.48,363.952 1036.97,362.253C1025.29,323.154 1000.45,287.974 967.1,264.71C950.608,253.206 932.055,244.623 912.716,239.229L911.285,238.719C910.849,238.261 910.517,237.724 910.583,237.053C910.718,235.675 910.685,235.66 911.105,234.532L912.312,233.744C912.558,233.759 912.803,233.773 913.048,233.788Z" style="fill:white;"/>
                </g>
            </g>
        </g>
        <g transform="matrix(3.68222,0,0,3.68222,-3118.24,-12751.6)">
            <path d="M966.2,3487.05C981.762,3487.12 997.361,3493.32 1008.73,3504.16C1022.85,3517.62 1030.11,3537.93 1027.35,3557.66C1024.89,3575.19 1014.5,3591.43 999.539,3601.08C986.325,3609.61 969.782,3612.82 954.28,3609.84C935.323,3606.2 918.462,3593.2 910.082,3575.68C901.902,3558.58 902.117,3537.81 910.832,3520.81C920.932,3501.1 942.039,3487.49 964.801,3487.06C965.267,3487.05 965.734,3487.05 966.2,3487.05ZM965.806,3488.95C950.832,3489.02 935.832,3494.94 924.84,3505.29C911.019,3518.31 903.887,3538.06 906.508,3557.21C908.816,3574.07 918.753,3589.78 933.038,3599.19C945.866,3607.64 962.022,3610.87 977.178,3608.01C995.523,3604.55 1011.94,3592.01 1020.12,3575.02C1028.1,3558.48 1027.98,3538.27 1019.48,3521.67C1009.67,3502.53 989.234,3489.38 967.163,3488.96C966.711,3488.95 966.258,3488.95 965.806,3488.95Z" style="fill:white;fill-rule:nonzero;"/>
        </g>
        <g transform="matrix(1.92993,0,0,1.92993,-744.078,-465.809)">
            <circle cx="612.95" cy="405.449" r="20.504" style="fill:white;"/>
        </g>
        <g transform="matrix(1.23615,-0.552586,0.552586,1.23615,-918.821,467.787)">
            <path d="M957.707,176.234L953.541,185.657L959.831,188.87C960.53,189.264 960.82,190.139 960.492,190.873L954.816,202.296L952.13,200.961L957.145,190.867L950.809,187.624C950.2,187.215 949.953,186.427 950.224,185.741L954.964,175.021C955.878,175.426 956.793,175.83 957.707,176.234Z" style="fill:white;fill-rule:nonzero;"/>
        </g>
        <g transform="matrix(-0.400755,1.29337,-1.29337,-0.400755,1214.79,-783.538)">
            <path d="M957.707,176.234L953.541,185.657L959.831,188.87C960.53,189.264 960.82,190.139 960.492,190.873L954.816,202.296L952.13,200.961L957.145,190.867C957.145,190.867 950.809,187.624 950.809,187.624C950.2,187.215 949.953,186.427 950.224,185.741L954.964,175.021C955.878,175.426 956.793,175.83 957.707,176.234Z" style="fill:white;fill-rule:nonzero;"/>
        </g>
        <g transform="matrix(0.465646,-1.27145,1.27145,0.465646,-453.505,1341.51)">
            <rect x="944.78" y="228.574" width="4" height="23.268" style="fill:white;fill-rule:nonzero;"/>
        </g>
        <g transform="matrix(-1.258,0.500841,-0.500841,-1.258,1812.5,291.147)">
            <rect x="944.78" y="228.574" width="4" height="23.268" style="fill:white;fill-rule:nonzero;"/>
        </g>
        <g transform="matrix(1.08016,-0.816496,0.816496,1.08016,-831.183,575.428)">
            <path d="M859.849,291.802L868.599,283.052C869.189,283.641 869.778,284.23 870.367,284.82L859.849,295.338L859.849,307.204L855.849,307.204L855.849,295.338L845.331,284.82L847.099,283.052L855.849,291.802L855.849,283.936L859.849,283.936L859.849,291.802Z" style="fill:white;"/>
        </g>
        <g transform="matrix(0.818931,-1.07832,1.07832,0.818931,-690.69,875.266)">
            <path d="M834.014,292.238L840.523,297.117L839.023,299.118L834.014,295.362L834.014,298.055L840.523,302.934L839.023,304.935L834.014,301.179L834.014,307.204L830.014,307.204L830.014,298.18L823.505,293.301L825.005,291.3L830.014,295.056L830.014,292.363L823.505,287.484L825.005,285.483L830.014,289.239L830.014,283.936L834.014,283.936L834.014,292.238Z" style="fill:white;"/>
        </g>
        <g transform="matrix(1.02592,0.88369,-0.88369,1.02592,-176.367,-952.304)">
            <path d="M949.623,292.238L956.132,297.117L954.632,299.118L949.623,295.362L949.623,298.055L956.132,302.934L954.632,304.935L949.623,301.179L949.623,307.204L945.623,307.204L945.623,298.18L939.114,293.301L940.613,291.3L945.623,295.056L945.623,292.363L939.114,287.484L940.613,285.483L945.623,289.239L945.623,283.936L949.623,283.936L949.623,292.238Z" style="fill:white;"/>
        </g>
        <g transform="matrix(-0.938989,0.975557,-0.975557,-0.938989,1833.57,-326.047)">
            <path d="M1057.02,291.858L1064.74,286.076C1065.24,286.742 1065.74,287.409 1066.24,288.076L1057.02,294.983L1057.02,307.204L1053.02,307.204L1053.02,297.982L1047.32,302.258L1045.82,300.257L1053.02,294.857L1053.02,283.936L1057.02,283.936L1057.02,291.858Z" style="fill:white;"/>
        </g>
        <g transform="matrix(-0.935069,-0.979314,0.979314,-0.935069,1113.43,1836.82)">
            <path d="M1155.36,291.858L1163.08,286.076C1163.58,286.742 1164.08,287.409 1164.58,288.076L1155.36,294.983L1155.36,307.204L1151.36,307.204L1151.36,297.982L1145.66,302.258L1144.16,300.257L1151.36,294.857L1151.36,283.936L1155.36,283.936L1155.36,291.858Z" style="fill:white;"/>
        </g>
        <g transform="matrix(-1.14368,0.724857,-0.724857,-1.14368,1975.51,4.56617)">
            <path d="M1082.03,294.857L1089.23,300.257L1087.73,302.258L1082.03,297.982L1082.03,307.204L1078.03,307.204L1078.03,294.983L1068.82,288.076L1070.32,286.076L1078.03,291.858L1078.03,283.936L1082.03,283.936L1082.03,294.857Z" style="fill:white;"/>
        </g>
        <g transform="matrix(0.841916,1.06047,-1.06047,0.841916,56.9046,-1065.6)">
            <path d="M966.62,282.437C966.853,282.456 967.072,282.518 967.28,282.622L976.335,287.616C978.303,288.804 977.119,289.742 976.372,290.222L968.653,294.768L976.027,306.401L973.493,308.007L968.056,299.43L968.056,307.204L965.056,307.204L965.056,283.936C965.095,282.912 966.436,282.436 966.62,282.437ZM968.056,291.638L972.582,288.972L968.056,286.476C968.056,288.197 968.056,289.917 968.056,291.638Z" style="fill:white;fill-rule:nonzero;"/>
        </g>
        <g transform="matrix(0.46325,1.27232,-1.27232,0.46325,496.872,-1156.75)">
            <path d="M988.517,291.802L997.267,283.052C997.856,283.641 998.445,284.23 999.034,284.82L988.517,295.338L988.517,307.204L984.517,307.204L984.517,283.936L988.517,283.936L988.517,291.802Z" style="fill:white;"/>
        </g>
        <g transform="matrix(-0.753445,1.12505,-1.12505,-0.753445,1687.2,-541.289)">
            <path d="M1035.98,291.802L1044.73,283.052C1045.32,283.641 1045.91,284.23 1046.5,284.82L1035.98,295.338L1035.98,307.204L1031.98,307.204L1031.98,283.936L1035.98,283.936L1035.98,291.802Z" style="fill:white;"/>
        </g>
        <g transform="matrix(-0.801092,-1.09163,1.09163,-0.801092,919.902,1919.21)">
            <path d="M1171.8,291.802L1180.55,283.052C1181.13,283.641 1181.72,284.23 1182.31,284.82L1171.8,295.338L1171.8,307.204L1167.8,307.204L1167.8,283.936L1171.8,283.936L1171.8,291.802Z" style="fill:white;"/>
        </g>
        <g transform="matrix(1.23468,0.555861,-0.499681,1.10989,-493.455,-671.729)">
            <path d="M921.902,279.654C922.136,279.678 922.356,279.751 922.564,279.872L933.383,286.763C935.411,288.174 934.085,289.227 933.311,289.702L925.116,294.285C925.116,294.285 932.66,298.647 932.66,298.647C932.956,298.87 932.987,298.938 933.083,299.085C933.566,299.828 933.499,300.834 932.675,301.47L922.626,308.61C920.593,309.936 920.352,308.187 920.319,307.204L920.319,281.32C920.359,280.171 921.716,279.65 921.902,279.654ZM923.319,304.158L928.871,300.213L923.319,297.008C923.319,299.391 923.319,301.775 923.319,304.158ZM923.319,291.555L929.469,288.116L923.319,284.198C923.319,286.651 923.319,289.103 923.319,291.555Z" style="fill:white;fill-rule:nonzero;"/>
        </g>
        <g transform="matrix(-1.21308,-0.601543,0.601543,-1.21308,1551.68,1492.85)">
            <path d="M1132.63,282.439C1133.25,282.506 1133.34,282.654 1133.57,282.861L1141.69,290.76L1139.6,292.91L1134.03,287.488L1134.03,307.204L1131.03,307.204C1131.03,307.204 1131.03,283.819 1131.03,283.819C1131.12,283.024 1131.8,282.414 1132.63,282.439Z" style="fill:white;fill-rule:nonzero;"/>
        </g>
    </g>
</svg>
