<?xml version="1.0" encoding="UTF-8" standalone="no"?>
<!DOCTYPE svg PUBLIC "-//W3C//DTD SVG 1.1//EN" "http://www.w3.org/Graphics/SVG/1.1/DTD/svg11.dtd">
<svg width="100%" height="100%" viewBox="0 0 50 50" version="1.1" xmlns="http://www.w3.org/2000/svg" xmlns:xlink="http://www.w3.org/1999/xlink" xml:space="preserve" xmlns:serif="http://www.serif.com/" style="fill-rule:evenodd;clip-rule:evenodd;stroke-linecap:round;stroke-linejoin:round;stroke-miterlimit:1.5;">
    <g transform="matrix(1.03825,0,0,1.03825,-0.956364,0.187415)">
        <g transform="matrix(0.8107,0,0,0.808674,4.95505,3.49249)">
            <path d="M37.5,10.505C37.5,6.971 34.638,4.102 31.113,4.102L18.339,4.102C14.813,4.102 11.952,6.971 11.952,10.505L11.952,39.963C11.952,43.497 14.813,46.366 18.339,46.366L31.113,46.366C34.638,46.366 37.5,43.497 37.5,39.963L37.5,10.505Z" style="fill:none;stroke:white;stroke-width:1.19px;"/>
        </g>
        <g transform="matrix(0.95051,0,0,0.808674,1.48022,4.16489)">
            <path d="M34.097,10.998C34.097,8.778 32.566,6.978 30.677,6.978C27.306,6.978 22.183,6.978 18.812,6.978C16.923,6.978 15.392,8.778 15.392,10.998C15.392,19.016 15.392,36.232 15.392,36.232L34.097,36.232C34.097,36.232 34.097,19.016 34.097,10.998Z" style="fill:white;"/>
        </g>
        <g transform="matrix(0.808674,0,0,0.808674,5.88432,2.5937)">
            <circle cx="23.638" cy="42.749" r="2.063" style="fill:white;"/>
        </g>
        <g transform="matrix(0.808674,0,0,0.808674,17.0912,-10.4439)">
            <path d="M14.007,23.439C14.007,23.118 13.746,22.857 13.424,22.857L6.136,22.857C5.814,22.857 5.553,23.118 5.553,23.439C5.553,23.761 5.814,24.022 6.136,24.022L13.424,24.022C13.746,24.022 14.007,23.761 14.007,23.439Z" style="fill:white;"/>
        </g>
    </g>
</svg>
