<?xml version="1.0" encoding="UTF-8" standalone="no"?>
<!DOCTYPE svg PUBLIC "-//W3C//DTD SVG 1.1//EN" "http://www.w3.org/Graphics/SVG/1.1/DTD/svg11.dtd">
<svg width="100%" height="100%" viewBox="0 0 50 50" version="1.1" xmlns="http://www.w3.org/2000/svg" xmlns:xlink="http://www.w3.org/1999/xlink" xml:space="preserve" xmlns:serif="http://www.serif.com/" style="fill-rule:evenodd;clip-rule:evenodd;stroke-linejoin:round;stroke-miterlimit:1.41421;">
    <g transform="matrix(-0.0998592,-1.09692e-17,1.17993e-17,-0.0864213,75.8599,105.154)">
        <g>
            <path d="M437.306,788.095L477.02,737.93L513.306,692.095L513.91,691.447L514.598,690.923L515.352,690.537L516.15,690.298L516.971,690.214L517.792,690.287L518.593,690.515L519.35,690.891L520.044,691.406L520.655,692.045L597.655,787.045L597.423,795.223L597.869,795.774L590.345,794.955L554.567,750.813L517.043,704.517L480.768,750.339L444.694,795.905L437.62,796.269L437.306,788.095Z" style="fill:white;"/>
        </g>
    </g>
    <g transform="matrix(0.698274,0,0,0.698274,18.6144,11.1857)">
        <circle cx="7.975" cy="28.391" r="2.453" style="fill:white;"/>
    </g>
    <g transform="matrix(0.698274,0,0,0.698274,18.6144,0.916801)">
        <circle cx="7.975" cy="28.391" r="2.453" style="fill:white;"/>
    </g>
    <g transform="matrix(0.698274,0,0,0.698274,18.6144,-9.35206)">
        <circle cx="7.975" cy="28.391" r="2.453" style="fill:white;"/>
    </g>
</svg>
