<svg id="Layer_1" data-name="Layer 1" xmlns="http://www.w3.org/2000/svg" viewBox="0 0 525.71 639.05"><defs><style>.cls-1{fill:#fff;}</style></defs><title>viking-icon</title><path class="cls-1" d="M425.38,384.85a258.22,258.22,0,0,1-43,35.4c1.12,4.29,2.13,8.6,2.95,12.94,19.05,101.82-52.77,194.66-88,233-63.41-75.9-94.2-146.85-92-211.71a184.53,184.53,0,0,1,2.06-22q.79-5.19,1.9-10.31c.15-.7.31-1.41.47-2.11.78-3.47,1.63-6.93,2.62-10.36q1.11-3.9,2.39-7.72l0,0a212.07,212.07,0,0,1,22.7-47s0,0,0,0c1.36-2.13,2.78-4.21,4.21-6.29.18-.28.36-.56.55-.83,1.68-2.44,3.41-4.84,5.18-7.23q6.63-9,14-17.42c5.2-6,10.66-11.75,16.32-17.36a466.22,466.22,0,0,0-42-31.08q-7.84,8.11-15.19,16.68-7,8.19-13.47,16.79l-.24.31A281,281,0,0,0,172.11,369q-1.8,4.35-3.44,8.8c-.53,1.41-1.08,2.82-1.58,4.24-1.55,4.41-3,8.85-4.31,13.38-.9,3.11-1.73,6.22-2.49,9.35-.72,2.92-1.36,5.85-2,8.79,0,.19-.09.38-.12.57q-1.9,9.38-3,18.85a.17.17,0,0,1,0,.07c-.85,7.13-1.36,14.3-1.57,21.52-2.4,83.85,38.87,173.36,123.3,266.94l17.15,19,19.16-17c1.56-1.39,38.67-34.54,72.35-87.16C431.19,565,448.68,491.6,436.13,424A242.52,242.52,0,0,0,425.38,384.85Z" transform="translate(-34.78 -101.42)"/><path class="cls-1" d="M185.54,301.41C160,267,138.36,226,122.65,190.92q69.22,29.79,120.51,63.15h0c.55.36,1.08.73,1.64,1.09,2.2,1.44,4.45,2.87,6.6,4.32l0,0a484.16,484.16,0,0,1,42.1,31.64l0,0c6.77,5.73,13.14,11.53,19.19,17.39l.41.4q3.86,3.73,7.5,7.51l.36.36h0q9.11,9.45,17,19.12c11.08-8.13,23.42-19.75,36.89-36.07A382.25,382.25,0,0,0,346,269.19l-.11.09a506.89,506.89,0,0,0-67.24-53.43h0q-78-52.31-193-95.42l-50.8-19,17.27,51.41c.9,2.67,22.38,66.08,60.37,131.07q21.93,37.53,45,65.26A305.79,305.79,0,0,1,185.54,301.41Z" transform="translate(-34.78 -101.42)"/><path class="cls-1" d="M508.54,119.76c-6.94,2-105.79,30.7-197.43,92.69a519,519,0,0,1,42.22,34.34c40.51-25.63,81.93-44.71,113.67-57.5Q437.74,249.74,408.4,291h.09c-20.76,29.18-40.05,49-57.63,62l0,0c-1,.76-2,1.4-3,2.12-.8.56-1.6,1.13-2.38,1.66-1.39.94-2.78,1.86-4.17,2.73l-1.05.63q-4,2.47-8,4.54l-1.63.83q-4,2-7.94,3.54l-.74.31h0a79.88,79.88,0,0,1-32,5.74c-11.54-.44-22.86-3.64-33.87-9a190,190,0,0,0-22,46.73c17.64,8.48,35.6,13.14,53.86,13.85a128.88,128.88,0,0,0,34.06-3.19v-.06c51.6-11.82,100.78-55.66,148.5-132.47h0q34.93-56.28,68.94-136.24L560.49,105Z" transform="translate(-34.78 -101.42)"/></svg>