<?xml version="1.0" encoding="UTF-8" standalone="no"?>
<!DOCTYPE svg PUBLIC "-//W3C//DTD SVG 1.1//EN" "http://www.w3.org/Graphics/SVG/1.1/DTD/svg11.dtd">
<svg width="100%" height="100%" viewBox="0 0 50 50" version="1.1" xmlns="http://www.w3.org/2000/svg" xmlns:xlink="http://www.w3.org/1999/xlink" xml:space="preserve" xmlns:serif="http://www.serif.com/" style="fill-rule:evenodd;clip-rule:evenodd;stroke-linejoin:round;stroke-miterlimit:1.41421;">
    <g transform="matrix(1.49465,0,0,1.49465,-1398.03,-5062.03)">
        <g>
            <path d="M951.004,3395.13C951.08,3395.66 951.875,3396.13 952.107,3396.16C951.559,3396.9 951.054,3397.67 950.593,3398.47L950.581,3398.49L950.599,3398.5L950.599,3398.5L949.945,3399.86L949.931,3399.86C949.921,3399.88 949.91,3399.91 949.899,3399.94C949.697,3400.47 949.531,3401.01 949.406,3401.56C948.968,3403.5 949.004,3405.53 949.311,3407.48C949.578,3409.18 950.046,3410.84 950.639,3412.46C951.291,3414.23 952.097,3415.95 953.028,3417.59C953.102,3417.47 953.175,3417.35 953.248,3417.24C953.661,3416.56 954.057,3415.87 954.42,3415.16C955.641,3412.78 956.538,3410.19 956.759,3407.51C956.804,3406.97 956.821,3406.42 956.808,3405.88C956.79,3405.17 956.722,3404.46 956.6,3403.76C956.485,3403.1 956.321,3402.44 956.11,3401.8C956.035,3401.57 955.954,3401.34 955.867,3401.12C956.465,3401.15 956.982,3401.02 957.359,3400.82C957.372,3400.86 957.386,3400.89 957.407,3400.95C957.517,3401.27 957.621,3401.59 957.713,3401.91C957.92,3402.64 958.074,3403.38 958.174,3404.13C958.278,3404.91 958.323,3405.71 958.31,3406.5C958.3,3407.11 958.257,3407.72 958.183,3408.33C957.798,3411.47 956.591,3414.47 955.018,3417.2C954.581,3417.95 954.11,3418.69 953.623,3419.42L953.566,3419.49C953.5,3419.56 953.435,3419.62 953.35,3419.66C953.1,3419.8 952.788,3419.77 952.56,3419.61C952.482,3419.55 952.426,3419.48 952.369,3419.41C952.276,3419.26 952.186,3419.11 952.096,3418.97C951.444,3417.88 950.854,3416.75 950.321,3415.6C949.98,3414.86 949.663,3414.11 949.373,3413.35C949.151,3412.77 948.946,3412.19 948.758,3411.59C948.605,3411.11 948.464,3410.62 948.336,3410.13C948.224,3409.7 948.122,3409.27 948.032,3408.83C947.495,3406.22 947.367,3403.48 948.026,3400.89C948.165,3400.34 948.339,3399.81 948.544,3399.29L948.545,3399.28L948.545,3399.28L949.182,3397.92L949.192,3397.91C949.245,3397.81 949.298,3397.72 949.352,3397.62C949.708,3397.02 950.083,3396.42 950.485,3395.85C950.653,3395.6 950.826,3395.37 951.004,3395.13ZM956.531,3398.92C956.618,3398.89 956.703,3398.85 956.788,3398.82C957.002,3398.72 957.212,3398.62 957.415,3398.5C958.245,3398.03 958.973,3397.4 959.618,3396.7C960.197,3396.07 960.712,3395.38 961.175,3394.66C961.706,3393.84 962.17,3392.97 962.567,3392.08C962.833,3391.47 963.071,3390.86 963.261,3390.23C963.401,3389.76 963.523,3389.28 963.565,3388.8L963.565,3388.8C963.549,3388.8 963.534,3388.8 963.519,3388.8C962.328,3388.97 961.166,3389.32 960.057,3389.78C958.47,3390.44 956.985,3391.35 955.652,3392.43C955.065,3392.91 954.506,3393.42 953.977,3393.96C953.892,3393.81 953.564,3393.29 953,3393C952.955,3392.98 952.911,3392.96 952.871,3392.95C952.927,3392.89 952.983,3392.83 953.04,3392.77C953.738,3392.08 954.476,3391.42 955.263,3390.83C956.763,3389.7 958.423,3388.77 960.189,3388.12C960.858,3387.88 961.542,3387.67 962.238,3387.51C962.776,3387.39 963.32,3387.3 963.87,3387.26C963.931,3387.25 963.991,3387.25 964.052,3387.25C964.159,3387.26 964.261,3387.27 964.363,3387.31C964.451,3387.34 964.535,3387.39 964.61,3387.45C964.663,3387.49 964.712,3387.53 964.755,3387.58C965.07,3387.94 965.094,3388.46 965.06,3388.91C965.053,3389.01 965.043,3389.1 965.03,3389.2C965.011,3389.34 964.988,3389.48 964.961,3389.61C964.924,3389.8 964.881,3389.99 964.833,3390.18C964.78,3390.38 964.722,3390.58 964.659,3390.78C964.577,3391.05 964.487,3391.31 964.392,3391.57C964.006,3392.61 963.527,3393.62 962.974,3394.59C962.394,3395.61 961.727,3396.57 960.958,3397.45C960.114,3398.41 959.135,3399.28 958.004,3399.89C957.75,3400.03 957.489,3400.15 957.222,3400.26L957.17,3400.28C957.17,3400.28 955.678,3400.68 955.678,3400.68C955.574,3400.7 955.47,3400.71 955.366,3400.72C955.277,3400.73 955.188,3400.74 955.099,3400.74C954.499,3400.77 953.897,3400.73 953.301,3400.66C952.709,3400.58 952.121,3400.48 951.541,3400.34C951.229,3400.26 950.92,3400.18 950.615,3400.08C950.882,3399.8 951.046,3399.11 951.134,3398.67C951.9,3398.91 952.686,3399.07 953.481,3399.16C953.729,3399.2 953.978,3399.22 954.228,3399.23C954.444,3399.25 954.66,3399.26 954.877,3399.25L954.947,3399.25L954.996,3399.25L954.994,3399.24L954.994,3399.24C955.603,3399.22 956.084,3399.09 956.523,3398.92L956.531,3398.92ZM947.746,3398.88C947.254,3398.62 946.774,3398.33 946.309,3398.02C944.905,3397.09 943.632,3395.97 942.497,3394.73C941.767,3393.93 941.09,3393.07 940.478,3392.18C940.325,3391.95 940.174,3391.73 940.028,3391.5C939.93,3391.35 939.839,3391.2 939.745,3391.05C939.653,3390.9 939.564,3390.75 939.476,3390.6C939.389,3390.45 939.299,3390.3 939.231,3390.14C939.094,3389.81 939.045,3389.45 939.156,3389.11C939.192,3389.01 939.243,3388.9 939.308,3388.81C939.343,3388.76 939.383,3388.71 939.425,3388.66C939.772,3388.29 940.297,3388.17 940.786,3388.14C940.87,3388.14 940.955,3388.14 941.04,3388.14C941.16,3388.14 941.279,3388.14 941.399,3388.15C941.558,3388.16 941.716,3388.18 941.875,3388.2C942.045,3388.22 942.215,3388.25 942.384,3388.28C942.603,3388.32 942.82,3388.37 943.037,3388.43C943.652,3388.58 944.255,3388.78 944.848,3389C945.53,3389.25 946.198,3389.55 946.85,3389.87C948.288,3390.58 949.657,3391.43 950.928,3392.41C951.396,3392.77 951.847,3393.15 952.288,3393.55C952.289,3393.55 952.291,3393.55 952.292,3393.55C952.587,3393.99 953.33,3394.58 953.372,3394.59C953.377,3394.59 953.383,3394.59 953.391,3394.59L953.379,3394.6C953.496,3394.72 953.611,3394.84 953.726,3394.97C954.229,3395.52 954.706,3396.09 955.146,3396.7C955.507,3397.2 955.841,3397.71 956.149,3398.24L954.656,3398.67C954.428,3398.3 954.188,3397.93 953.932,3397.58C953.467,3396.94 952.956,3396.33 952.412,3395.76L952.409,3395.76C952.348,3395.65 951.463,3394.75 951.332,3394.7L951.332,3394.7C950.392,3393.85 949.368,3393.08 948.294,3392.4C947.149,3391.68 945.939,3391.04 944.68,3390.54C944.025,3390.28 943.357,3390.05 942.673,3389.88C942.157,3389.75 941.631,3389.65 941.099,3389.64C941.039,3389.64 941.04,3389.64 940.98,3389.64C940.883,3389.64 940.787,3389.64 940.69,3389.66L940.671,3389.66C940.912,3390.08 941.163,3390.5 941.429,3390.91C942.302,3392.24 943.315,3393.48 944.457,3394.6C945.483,3395.59 946.615,3396.49 947.847,3397.22C948.088,3397.36 948.334,3397.5 948.583,3397.63L947.746,3398.88Z" style="fill:white;"/>
        </g>
    </g>
</svg>
